G04 #@! TF.FileFunction,Soldermask,Bot*
%FSLAX46Y46*%
G04 Gerber Fmt 4.6, Leading zero omitted, Abs format (unit mm)*
G04 Created by KiCad (PCBNEW 4.0.6) date 10/14/18 11:43:10*
%MOMM*%
%LPD*%
G01*
G04 APERTURE LIST*
%ADD10C,0.100000*%
%ADD11C,3.500000*%
%ADD12R,1.700000X1.700000*%
%ADD13O,1.700000X1.700000*%
%ADD14R,2.150000X2.200000*%
%ADD15C,0.254000*%
G04 APERTURE END LIST*
D10*
D11*
X50000000Y-81000000D03*
X81000000Y-81000000D03*
X81000000Y-50000000D03*
D12*
X73200000Y-85900000D03*
D13*
X70660000Y-85900000D03*
D12*
X56600000Y-85900000D03*
X59200000Y-85900000D03*
X62500000Y-85900000D03*
X65040000Y-85900000D03*
X67580000Y-85900000D03*
D14*
X52958935Y-72400000D03*
X52958935Y-70200000D03*
X55108935Y-72400000D03*
X55108935Y-70200000D03*
X52945000Y-66800000D03*
X52945000Y-64600000D03*
X55095000Y-66800000D03*
X55095000Y-64600000D03*
X52958935Y-61195000D03*
X52958935Y-58995000D03*
X55108935Y-61195000D03*
X55108935Y-58995000D03*
D11*
X50000000Y-50000000D03*
D15*
G36*
X68373000Y-84027901D02*
X68373000Y-87873000D01*
X66827000Y-87873000D01*
X66827000Y-84000000D01*
X66814423Y-83944897D01*
X56364423Y-62244897D01*
X56333970Y-62204722D01*
X56290286Y-62179559D01*
X56250000Y-62173000D01*
X52027000Y-62173000D01*
X52027000Y-58027000D01*
X56368753Y-58027000D01*
X68373000Y-84027901D01*
X68373000Y-84027901D01*
G37*
X68373000Y-84027901D02*
X68373000Y-87873000D01*
X66827000Y-87873000D01*
X66827000Y-84000000D01*
X66814423Y-83944897D01*
X56364423Y-62244897D01*
X56333970Y-62204722D01*
X56290286Y-62179559D01*
X56250000Y-62173000D01*
X52027000Y-62173000D01*
X52027000Y-58027000D01*
X56368753Y-58027000D01*
X68373000Y-84027901D01*
G36*
X65773000Y-84078468D02*
X65773000Y-87823000D01*
X64277000Y-87823000D01*
X64277000Y-84050000D01*
X64264014Y-83994055D01*
X56364014Y-67894055D01*
X56333266Y-67854105D01*
X56289397Y-67829265D01*
X56250000Y-67823000D01*
X52027000Y-67823000D01*
X52027000Y-63627000D01*
X56119509Y-63627000D01*
X65773000Y-84078468D01*
X65773000Y-84078468D01*
G37*
X65773000Y-84078468D02*
X65773000Y-87823000D01*
X64277000Y-87823000D01*
X64277000Y-84050000D01*
X64264014Y-83994055D01*
X56364014Y-67894055D01*
X56333266Y-67854105D01*
X56289397Y-67829265D01*
X56250000Y-67823000D01*
X52027000Y-67823000D01*
X52027000Y-63627000D01*
X56119509Y-63627000D01*
X65773000Y-84078468D01*
G36*
X63223000Y-84078807D02*
X63223000Y-87873000D01*
X61777000Y-87873000D01*
X61777000Y-84350000D01*
X61757389Y-84282202D01*
X54907389Y-73432202D01*
X54872551Y-73395763D01*
X54826281Y-73375749D01*
X54800000Y-73373000D01*
X51978452Y-73373000D01*
X52025565Y-69227000D01*
X56119962Y-69227000D01*
X63223000Y-84078807D01*
X63223000Y-84078807D01*
G37*
X63223000Y-84078807D02*
X63223000Y-87873000D01*
X61777000Y-87873000D01*
X61777000Y-84350000D01*
X61757389Y-84282202D01*
X54907389Y-73432202D01*
X54872551Y-73395763D01*
X54826281Y-73375749D01*
X54800000Y-73373000D01*
X51978452Y-73373000D01*
X52025565Y-69227000D01*
X56119962Y-69227000D01*
X63223000Y-84078807D01*
M02*
