G04 #@! TF.FileFunction,Copper,L1,Top,Signal*
%FSLAX46Y46*%
G04 Gerber Fmt 4.6, Leading zero omitted, Abs format (unit mm)*
G04 Created by KiCad (PCBNEW 4.0.6) date 10/14/18 11:43:10*
%MOMM*%
%LPD*%
G01*
G04 APERTURE LIST*
%ADD10C,0.100000*%
%ADD11R,1.000000X1.250000*%
%ADD12R,1.250000X1.000000*%
%ADD13R,0.800000X0.750000*%
%ADD14R,0.750000X0.800000*%
%ADD15R,1.700000X0.900000*%
%ADD16R,0.500000X0.500000*%
%ADD17R,0.800000X0.800000*%
%ADD18R,1.700000X1.700000*%
%ADD19O,1.700000X1.700000*%
%ADD20R,2.500000X0.900000*%
%ADD21R,1.400000X0.700000*%
%ADD22R,4.300000X4.410000*%
%ADD23R,0.900000X0.500000*%
%ADD24R,0.500000X0.900000*%
%ADD25R,0.700000X0.250000*%
%ADD26R,0.250000X0.700000*%
%ADD27R,1.000000X1.000000*%
%ADD28R,0.304800X0.889000*%
%ADD29R,2.000000X0.600000*%
%ADD30O,0.300000X0.750000*%
%ADD31O,0.750000X0.300000*%
%ADD32R,0.900000X0.900000*%
%ADD33R,1.400000X0.400000*%
%ADD34R,1.000000X1.600000*%
%ADD35R,2.150000X2.200000*%
%ADD36R,0.740000X2.400000*%
%ADD37R,1.500000X3.000000*%
%ADD38C,0.400000*%
%ADD39C,0.130000*%
%ADD40C,0.250000*%
%ADD41C,0.500000*%
%ADD42C,0.254000*%
G04 APERTURE END LIST*
D10*
D11*
X71750000Y-46050000D03*
X69750000Y-46050000D03*
D12*
X70150000Y-51300000D03*
X70150000Y-49300000D03*
D13*
X58550000Y-51800000D03*
X57050000Y-51800000D03*
X58550000Y-49750000D03*
X57050000Y-49750000D03*
X58550000Y-47750000D03*
X57050000Y-47750000D03*
D14*
X75000000Y-80200000D03*
X75000000Y-78700000D03*
D13*
X70500000Y-62700000D03*
X72000000Y-62700000D03*
D15*
X84300000Y-66400000D03*
X84300000Y-63500000D03*
D16*
X73950000Y-51900000D03*
X73950000Y-54100000D03*
D17*
X74750000Y-75350000D03*
X73150000Y-75350000D03*
X79000000Y-71150000D03*
X79000000Y-72750000D03*
D16*
X55500000Y-44350000D03*
X53300000Y-44350000D03*
D17*
X79000000Y-64100000D03*
X79000000Y-65700000D03*
D15*
X84300000Y-73350000D03*
X84300000Y-70450000D03*
D18*
X73200000Y-85900000D03*
D19*
X70660000Y-85900000D03*
D18*
X56600000Y-85900000D03*
X59200000Y-85900000D03*
X62500000Y-85900000D03*
X65040000Y-85900000D03*
X67580000Y-85900000D03*
D20*
X73750000Y-50200000D03*
X73750000Y-47300000D03*
D21*
X50100000Y-73240000D03*
X50100000Y-71970000D03*
X50100000Y-70700000D03*
X50100000Y-69430000D03*
D22*
X46290000Y-71335000D03*
D21*
X50100000Y-67570000D03*
X50100000Y-66300000D03*
X50100000Y-65030000D03*
X50100000Y-63760000D03*
D22*
X46290000Y-65665000D03*
D21*
X50000000Y-62000000D03*
X50000000Y-60730000D03*
X50000000Y-59460000D03*
X50000000Y-58190000D03*
D22*
X46190000Y-60095000D03*
D23*
X77800000Y-72700000D03*
X77800000Y-71200000D03*
X77800000Y-65650000D03*
X77800000Y-64150000D03*
X55250000Y-56950000D03*
X55250000Y-55450000D03*
X56600000Y-56950000D03*
X56600000Y-55450000D03*
X52650000Y-56950000D03*
X52650000Y-55450000D03*
X53950000Y-56950000D03*
X53950000Y-55450000D03*
X50000000Y-56950000D03*
X50000000Y-55450000D03*
X51350000Y-56950000D03*
X51350000Y-55450000D03*
D24*
X73200000Y-74050000D03*
X74700000Y-74050000D03*
D25*
X67700000Y-52750000D03*
X67700000Y-52250000D03*
X67700000Y-51750000D03*
X67700000Y-51250000D03*
X67700000Y-50750000D03*
X67700000Y-50250000D03*
X67700000Y-49750000D03*
X67700000Y-49250000D03*
X67700000Y-48750000D03*
X67700000Y-48250000D03*
X67700000Y-47750000D03*
X67700000Y-47250000D03*
D26*
X67050000Y-46600000D03*
X66550000Y-46600000D03*
X66050000Y-46600000D03*
X65550000Y-46600000D03*
X65050000Y-46600000D03*
X64550000Y-46600000D03*
X64050000Y-46600000D03*
X63550000Y-46600000D03*
X63050000Y-46600000D03*
X62550000Y-46600000D03*
X62050000Y-46600000D03*
X61550000Y-46600000D03*
D25*
X60900000Y-47250000D03*
X60900000Y-47750000D03*
X60900000Y-48250000D03*
X60900000Y-48750000D03*
X60900000Y-49250000D03*
X60900000Y-49750000D03*
X60900000Y-50250000D03*
X60900000Y-50750000D03*
X60900000Y-51250000D03*
X60900000Y-51750000D03*
X60900000Y-52250000D03*
X60900000Y-52750000D03*
D26*
X61550000Y-53400000D03*
X62050000Y-53400000D03*
X62550000Y-53400000D03*
X63050000Y-53400000D03*
X63550000Y-53400000D03*
X64050000Y-53400000D03*
X64550000Y-53400000D03*
X65050000Y-53400000D03*
X65550000Y-53400000D03*
X66050000Y-53400000D03*
X66550000Y-53400000D03*
X67050000Y-53400000D03*
D27*
X65000000Y-50800000D03*
D28*
X73050000Y-77900000D03*
X72550000Y-77900000D03*
X72050000Y-77900000D03*
X71550000Y-77900000D03*
X71550000Y-80922600D03*
X72050000Y-80922600D03*
X72550000Y-80922600D03*
X73050000Y-80922600D03*
D29*
X72200000Y-79411300D03*
D30*
X70150000Y-66975000D03*
X70650000Y-66975000D03*
X71150000Y-66975000D03*
X71650000Y-66975000D03*
D31*
X72375000Y-66250000D03*
X72375000Y-65750000D03*
X72375000Y-65250000D03*
X72375000Y-64750000D03*
D30*
X71650000Y-64025000D03*
X71150000Y-64025000D03*
X70650000Y-64025000D03*
X70150000Y-64025000D03*
D31*
X69425000Y-64750000D03*
X69425000Y-65250000D03*
X69425000Y-65750000D03*
X69425000Y-66250000D03*
D32*
X71350000Y-65050000D03*
X70450000Y-65050000D03*
X71350000Y-65950000D03*
X70450000Y-65950000D03*
D33*
X70000000Y-55150000D03*
X70000000Y-53950000D03*
X70000000Y-52750000D03*
D34*
X56700000Y-44400000D03*
X59700000Y-44400000D03*
D21*
X57823935Y-73205000D03*
X57823935Y-71935000D03*
X57823935Y-70665000D03*
X57823935Y-69395000D03*
D35*
X52958935Y-72400000D03*
X52958935Y-70200000D03*
X55108935Y-72400000D03*
X55108935Y-70200000D03*
D21*
X57810000Y-67605000D03*
X57810000Y-66335000D03*
X57810000Y-65065000D03*
X57810000Y-63795000D03*
D35*
X52945000Y-66800000D03*
X52945000Y-64600000D03*
X55095000Y-66800000D03*
X55095000Y-64600000D03*
D21*
X57823935Y-62000000D03*
X57823935Y-60730000D03*
X57823935Y-59460000D03*
X57823935Y-58190000D03*
D35*
X52958935Y-61195000D03*
X52958935Y-58995000D03*
X55108935Y-61195000D03*
X55108935Y-58995000D03*
D36*
X77610000Y-60150000D03*
X77610000Y-56250000D03*
X78880000Y-60150000D03*
X78880000Y-56250000D03*
X80150000Y-60150000D03*
X80150000Y-56250000D03*
X81420000Y-60150000D03*
X81420000Y-56250000D03*
X82690000Y-60150000D03*
X82690000Y-56250000D03*
D37*
X66600000Y-70600000D03*
X64060000Y-70600000D03*
D24*
X84200000Y-54300000D03*
X82700000Y-54300000D03*
D38*
X83500000Y-54300000D03*
X77650000Y-62100000D03*
X74300000Y-81250000D03*
X76200000Y-74850000D03*
X82600000Y-63500000D03*
X82550000Y-70300000D03*
X67650000Y-54450000D03*
X67350000Y-54050000D03*
X72200000Y-47300000D03*
X71550000Y-47300000D03*
X70900000Y-47300000D03*
X70250000Y-47300000D03*
X73750000Y-47300000D03*
X73650000Y-56600000D03*
X74100000Y-56150000D03*
X62850004Y-45600000D03*
X62250000Y-45600000D03*
X61550000Y-45600004D03*
X66850000Y-49150000D03*
X66850000Y-49750000D03*
X66850000Y-50450000D03*
X58550000Y-51800000D03*
X58550000Y-49750000D03*
X58550000Y-47750000D03*
X77300000Y-54400000D03*
X68650000Y-49500000D03*
X62154990Y-55900000D03*
X70270685Y-59779315D03*
X70718687Y-60227316D03*
X62154990Y-56704315D03*
X61950000Y-49900000D03*
X72750000Y-68150000D03*
X62665825Y-49217677D03*
X74308093Y-65258636D03*
X62050000Y-50850000D03*
X72150000Y-61450000D03*
X63371481Y-49651262D03*
X74650000Y-66650000D03*
X66600000Y-72800000D03*
X73000000Y-82000000D03*
X64800000Y-72900000D03*
X70900000Y-81600000D03*
X58200000Y-57100000D03*
X53600000Y-57530002D03*
X71900000Y-76900000D03*
X62600000Y-52050000D03*
X71366430Y-77396927D03*
X63143602Y-58652231D03*
X63150000Y-57450000D03*
X73000000Y-77150000D03*
X62150000Y-52650000D03*
X68840858Y-59115087D03*
X64099999Y-49250000D03*
X82200000Y-73350000D03*
X62900000Y-47350000D03*
X76600000Y-72550000D03*
X65300000Y-49350000D03*
X76850000Y-65650000D03*
D39*
X84200000Y-54300000D02*
X83500000Y-54300000D01*
D40*
X69400000Y-64000000D02*
X69425000Y-64025000D01*
X69425000Y-64025000D02*
X69425000Y-64750000D01*
D41*
X69400000Y-62900000D02*
X69400000Y-64000000D01*
X70500000Y-62700000D02*
X69600000Y-62700000D01*
X69600000Y-62700000D02*
X69400000Y-62900000D01*
D39*
X77610000Y-60150000D02*
X77610000Y-62060000D01*
X77610000Y-62060000D02*
X77650000Y-62100000D01*
D40*
X74277400Y-80922600D02*
X74277400Y-81227400D01*
X74277400Y-81227400D02*
X74300000Y-81250000D01*
X73050000Y-80922600D02*
X74277400Y-80922600D01*
X74277400Y-80922600D02*
X75000000Y-80200000D01*
D39*
X76150000Y-74850000D02*
X76200000Y-74850000D01*
X75650000Y-75350000D02*
X76150000Y-74850000D01*
X74750000Y-75350000D02*
X75650000Y-75350000D01*
D41*
X70475000Y-62700000D02*
X69275000Y-61500000D01*
D40*
X84300000Y-63500000D02*
X82600000Y-63500000D01*
X84300000Y-70450000D02*
X82700000Y-70450000D01*
X82700000Y-70450000D02*
X82550000Y-70300000D01*
X67350000Y-54050000D02*
X67350000Y-54150000D01*
X67350000Y-54150000D02*
X67650000Y-54450000D01*
X67050000Y-53400000D02*
X67050000Y-53750000D01*
X67050000Y-53750000D02*
X67350000Y-54050000D01*
D41*
X73750000Y-47300000D02*
X72200000Y-47300000D01*
X72200000Y-47300000D02*
X71550000Y-47300000D01*
X71550000Y-47300000D02*
X70900000Y-47300000D01*
X70900000Y-47300000D02*
X70250000Y-47300000D01*
X69900000Y-47300000D02*
X69200000Y-47300000D01*
X70250000Y-47300000D02*
X69900000Y-47300000D01*
X70475000Y-62700000D02*
X70500000Y-62700000D01*
X73750000Y-47300000D02*
X73000000Y-47300000D01*
X73000000Y-47300000D02*
X71750000Y-46050000D01*
X73550000Y-47100000D02*
X73750000Y-47300000D01*
D40*
X67700000Y-48250000D02*
X68300000Y-48250000D01*
X68300000Y-48250000D02*
X68800000Y-47750000D01*
X68800000Y-47750000D02*
X68800000Y-47700000D01*
D41*
X69200000Y-47300000D02*
X68800000Y-47700000D01*
X72650000Y-57600000D02*
X73650000Y-56600000D01*
X73650000Y-56600000D02*
X74100000Y-56150000D01*
X68600000Y-57600000D02*
X72650000Y-57600000D01*
X67700000Y-58500000D02*
X68600000Y-57600000D01*
X67700000Y-59850000D02*
X67700000Y-58500000D01*
X69275000Y-61425000D02*
X67700000Y-59850000D01*
X69275000Y-61500000D02*
X69275000Y-61425000D01*
D40*
X65050000Y-53400000D02*
X65050000Y-52700000D01*
X65050000Y-52700000D02*
X65000000Y-52650000D01*
D41*
X65000000Y-51800000D02*
X65000000Y-52650000D01*
X65000000Y-50800000D02*
X65000000Y-51800000D01*
X59700000Y-44400000D02*
X61650000Y-44400000D01*
D40*
X70150000Y-49300000D02*
X69950000Y-49300000D01*
X69950000Y-49300000D02*
X69000000Y-50250000D01*
X69000000Y-50250000D02*
X68300000Y-50250000D01*
X68300000Y-50250000D02*
X67700000Y-50250000D01*
D41*
X62250000Y-45600000D02*
X62850004Y-45600000D01*
X62249996Y-45600004D02*
X62250000Y-45600000D01*
X61550000Y-45600004D02*
X62249996Y-45600004D01*
X61267158Y-45600004D02*
X61550000Y-45600004D01*
X57500004Y-45600004D02*
X61267158Y-45600004D01*
X56250000Y-44350000D02*
X57500004Y-45600004D01*
X55500000Y-44350000D02*
X56250000Y-44350000D01*
D40*
X67700000Y-49250000D02*
X66950000Y-49250000D01*
X66950000Y-49250000D02*
X66850000Y-49150000D01*
D41*
X66850000Y-49750000D02*
X66850000Y-49150000D01*
X66850000Y-50450000D02*
X66850000Y-49750000D01*
X55500000Y-44350000D02*
X56650000Y-44350000D01*
X56650000Y-44350000D02*
X56700000Y-44400000D01*
D39*
X58550000Y-51800000D02*
X60850000Y-51800000D01*
X60850000Y-51800000D02*
X60900000Y-51750000D01*
X57050000Y-51800000D02*
X57050000Y-52305000D01*
X57050000Y-52305000D02*
X57115001Y-52370001D01*
X57115001Y-52370001D02*
X60299999Y-52370001D01*
X60299999Y-52370001D02*
X60420000Y-52250000D01*
X60420000Y-52250000D02*
X60900000Y-52250000D01*
X58550000Y-49750000D02*
X59080000Y-49750000D01*
X59080000Y-49750000D02*
X60900000Y-49750000D01*
X57050000Y-49750000D02*
X57075000Y-49750000D01*
X57075000Y-49750000D02*
X57645001Y-50320001D01*
X57645001Y-50320001D02*
X60349999Y-50320001D01*
X60349999Y-50320001D02*
X60420000Y-50250000D01*
X60420000Y-50250000D02*
X60900000Y-50250000D01*
X60900000Y-47750000D02*
X58550000Y-47750000D01*
X57050000Y-47750000D02*
X57075000Y-47750000D01*
X57075000Y-47750000D02*
X57645001Y-48320001D01*
X57645001Y-48320001D02*
X60349999Y-48320001D01*
X60349999Y-48320001D02*
X60420000Y-48250000D01*
X60420000Y-48250000D02*
X60900000Y-48250000D01*
D40*
X68930001Y-48419999D02*
X68600000Y-48750000D01*
X68600000Y-48750000D02*
X67700000Y-48750000D01*
D41*
X73750000Y-50200000D02*
X73750000Y-49250000D01*
X73750000Y-49250000D02*
X72919999Y-48419999D01*
X72919999Y-48419999D02*
X68930001Y-48419999D01*
X73950000Y-51900000D02*
X73950000Y-50400000D01*
X73950000Y-50400000D02*
X73750000Y-50200000D01*
D39*
X73200000Y-74050000D02*
X73200000Y-75300000D01*
X73200000Y-75300000D02*
X73150000Y-75350000D01*
X79000000Y-71150000D02*
X77850000Y-71150000D01*
X77850000Y-71150000D02*
X77800000Y-71200000D01*
D41*
X46200000Y-48900000D02*
X50750000Y-44350000D01*
X50750000Y-44350000D02*
X53300000Y-44350000D01*
X46200000Y-57380000D02*
X46200000Y-48900000D01*
X46190000Y-60095000D02*
X46190000Y-57390000D01*
X46190000Y-57390000D02*
X46200000Y-57380000D01*
D39*
X77800000Y-64150000D02*
X78950000Y-64150000D01*
X78950000Y-64150000D02*
X79000000Y-64100000D01*
X82700000Y-54300000D02*
X82700000Y-56240000D01*
X82700000Y-56240000D02*
X82690000Y-56250000D01*
X77300000Y-54400000D02*
X81670000Y-54400000D01*
X81670000Y-54400000D02*
X82690000Y-55420000D01*
X82690000Y-55420000D02*
X82690000Y-56250000D01*
X67700000Y-49750000D02*
X68400000Y-49750000D01*
X68400000Y-49750000D02*
X68650000Y-49500000D01*
X75200000Y-57200000D02*
X75200000Y-56738998D01*
X75200000Y-56738998D02*
X77083999Y-54854999D01*
X77083999Y-54854999D02*
X78314999Y-54854999D01*
X78314999Y-54854999D02*
X78880000Y-55420000D01*
X78880000Y-55420000D02*
X78880000Y-56250000D01*
X62050000Y-55795010D02*
X62154990Y-55900000D01*
X62050000Y-53400000D02*
X62050000Y-55795010D01*
X72820684Y-59579316D02*
X70470684Y-59579316D01*
X70470684Y-59579316D02*
X70270685Y-59779315D01*
X75200000Y-57200000D02*
X72820684Y-59579316D01*
X77610000Y-56250000D02*
X77110000Y-56250000D01*
X77110000Y-56250000D02*
X75210000Y-58150000D01*
X75210000Y-58150000D02*
X74617710Y-58150000D01*
X74617710Y-58150000D02*
X72540394Y-60227316D01*
X72540394Y-60227316D02*
X71001529Y-60227316D01*
X71001529Y-60227316D02*
X70718687Y-60227316D01*
X61954991Y-56504316D02*
X62154990Y-56704315D01*
X61550000Y-53400000D02*
X61550000Y-56099325D01*
X61550000Y-56099325D02*
X61954991Y-56504316D01*
X71650000Y-66975000D02*
X71650000Y-67200000D01*
X71650000Y-67200000D02*
X72600000Y-68150000D01*
X72600000Y-68150000D02*
X72750000Y-68150000D01*
X61950000Y-49617158D02*
X61950000Y-49900000D01*
X63415396Y-47800000D02*
X61950000Y-49265396D01*
X64550000Y-47079974D02*
X63829974Y-47800000D01*
X64550000Y-46600000D02*
X64550000Y-47079974D01*
X63829974Y-47800000D02*
X63415396Y-47800000D01*
X61950000Y-49265396D02*
X61950000Y-49617158D01*
X73450000Y-65250000D02*
X72375000Y-65250000D01*
X65050000Y-46950000D02*
X63929634Y-48070366D01*
X63530294Y-48070366D02*
X62665825Y-48934835D01*
X62665825Y-48934835D02*
X62665825Y-49217677D01*
X63929634Y-48070366D02*
X63530294Y-48070366D01*
X65050000Y-46600000D02*
X65050000Y-46950000D01*
X74299457Y-65250000D02*
X74308093Y-65258636D01*
X73450000Y-65250000D02*
X74299457Y-65250000D01*
X72150000Y-61450000D02*
X71225000Y-62375000D01*
X71225000Y-62375000D02*
X71225000Y-63101002D01*
X70871011Y-63454990D02*
X70495010Y-63454990D01*
X71225000Y-63101002D02*
X70871011Y-63454990D01*
X70495010Y-63454990D02*
X70150000Y-63800000D01*
X70150000Y-63800000D02*
X70150000Y-64025000D01*
X62976479Y-49461660D02*
X62976479Y-49923521D01*
X62976479Y-49923521D02*
X62249999Y-50650001D01*
X63171960Y-48858016D02*
X63171960Y-49266179D01*
X63694999Y-48334977D02*
X63171960Y-48858016D01*
X62249999Y-50650001D02*
X62050000Y-50850000D01*
X63171960Y-49266179D02*
X62976479Y-49461660D01*
X65550000Y-46879976D02*
X64094999Y-48334977D01*
X65550000Y-46600000D02*
X65550000Y-46879976D01*
X64094999Y-48334977D02*
X63694999Y-48334977D01*
X73570000Y-66650000D02*
X73170000Y-66250000D01*
X73170000Y-66250000D02*
X72375000Y-66250000D01*
X66050000Y-46862265D02*
X65637299Y-47274966D01*
X64217277Y-48594988D02*
X63802698Y-48594988D01*
X65637299Y-47274966D02*
X65537299Y-47274966D01*
X65537299Y-47274966D02*
X64217277Y-48594988D01*
X63444987Y-48952699D02*
X63444988Y-49577755D01*
X63802698Y-48594988D02*
X63444987Y-48952699D01*
X63444988Y-49577755D02*
X63371481Y-49651262D01*
X66050000Y-46600000D02*
X66050000Y-46862265D01*
X74650000Y-66650000D02*
X73570000Y-66650000D01*
X66600000Y-72800000D02*
X66600000Y-70600000D01*
X72550000Y-81600000D02*
X72550000Y-85250000D01*
X72550000Y-80922600D02*
X72550000Y-81600000D01*
X72600000Y-81600000D02*
X73000000Y-82000000D01*
X72550000Y-81600000D02*
X72600000Y-81600000D01*
X72550000Y-85250000D02*
X73200000Y-85900000D01*
X64060000Y-72230000D02*
X64730000Y-72900000D01*
X64730000Y-72900000D02*
X64800000Y-72900000D01*
X64060000Y-70600000D02*
X64060000Y-72230000D01*
X72050000Y-81600000D02*
X72050000Y-80922600D01*
X72050000Y-82100000D02*
X72050000Y-81600000D01*
X72050000Y-81600000D02*
X70900000Y-81600000D01*
X72050000Y-84510000D02*
X72050000Y-82100000D01*
X70660000Y-85900000D02*
X72050000Y-84510000D01*
X50100000Y-68950000D02*
X50100000Y-69430000D01*
X55050000Y-56950000D02*
X54250000Y-56150000D01*
X48910011Y-56139989D02*
X48700000Y-56350000D01*
X52007700Y-56139989D02*
X48910011Y-56139989D01*
X54250000Y-56150000D02*
X52017711Y-56150000D01*
X52017711Y-56150000D02*
X52007700Y-56139989D01*
X48700000Y-56350000D02*
X48700000Y-67550000D01*
X55250000Y-56950000D02*
X55050000Y-56950000D01*
X48700000Y-67550000D02*
X50100000Y-68950000D01*
X50100000Y-69430000D02*
X49750000Y-69430000D01*
X56600000Y-56950000D02*
X56600000Y-57330000D01*
X56600000Y-57330000D02*
X56525000Y-57405000D01*
X56525000Y-57405000D02*
X56525000Y-68950000D01*
X56525000Y-68950000D02*
X56970000Y-69395000D01*
X56970000Y-69395000D02*
X57823935Y-69395000D01*
X50100000Y-63760000D02*
X49270000Y-63760000D01*
X49270000Y-63760000D02*
X49000000Y-63490000D01*
X49000000Y-63490000D02*
X49000000Y-56700000D01*
X49000000Y-56700000D02*
X49300000Y-56400000D01*
X49300000Y-56400000D02*
X51900000Y-56400000D01*
X51900000Y-56400000D02*
X52450000Y-56950000D01*
X52450000Y-56950000D02*
X52650000Y-56950000D01*
X53950000Y-56950000D02*
X54150000Y-56950000D01*
X54150000Y-56950000D02*
X54750000Y-57550000D01*
X55895001Y-57356001D02*
X55895001Y-56603997D01*
X54750000Y-57550000D02*
X55701002Y-57550000D01*
X55701002Y-57550000D02*
X55895001Y-57356001D01*
X55895001Y-56603997D02*
X56148998Y-56350000D01*
X56148998Y-56350000D02*
X57051002Y-56350000D01*
X57051002Y-56350000D02*
X57245001Y-56543999D01*
X57245001Y-56543999D02*
X57245001Y-57304999D01*
X57245001Y-57304999D02*
X56800000Y-57750000D01*
X56800000Y-57750000D02*
X56800000Y-63000000D01*
X56800000Y-63000000D02*
X57595000Y-63795000D01*
X57595000Y-63795000D02*
X57810000Y-63795000D01*
X50000000Y-56950000D02*
X50000000Y-58190000D01*
X58200000Y-57100000D02*
X58200000Y-57813935D01*
X58200000Y-57813935D02*
X57823935Y-58190000D01*
X51420000Y-57400000D02*
X53469998Y-57400000D01*
X53469998Y-57400000D02*
X53600000Y-57530002D01*
X51350000Y-56950000D02*
X51350000Y-57330000D01*
X51350000Y-57330000D02*
X51420000Y-57400000D01*
X55250000Y-55450000D02*
X55250000Y-51850000D01*
X55250000Y-51850000D02*
X55870001Y-51229999D01*
X55870001Y-51229999D02*
X60399999Y-51229999D01*
X60399999Y-51229999D02*
X60420000Y-51250000D01*
X60420000Y-51250000D02*
X60900000Y-51250000D01*
X56600000Y-55450000D02*
X56600000Y-55070000D01*
X56600000Y-55070000D02*
X58920000Y-52750000D01*
X58920000Y-52750000D02*
X60420000Y-52750000D01*
X60420000Y-52750000D02*
X60900000Y-52750000D01*
X60900000Y-49250000D02*
X60420000Y-49250000D01*
X60420000Y-49250000D02*
X60349999Y-49179999D01*
X55970001Y-49179999D02*
X55300000Y-49850000D01*
X55300000Y-51000000D02*
X52650000Y-53650000D01*
X60349999Y-49179999D02*
X55970001Y-49179999D01*
X55300000Y-49850000D02*
X55300000Y-51000000D01*
X52650000Y-53650000D02*
X52650000Y-55450000D01*
X53950000Y-55070000D02*
X53950000Y-55450000D01*
X53950000Y-52782289D02*
X53950000Y-55070000D01*
X55982289Y-50750000D02*
X53950000Y-52782289D01*
X60900000Y-50750000D02*
X55982289Y-50750000D01*
X50000000Y-55450000D02*
X50050000Y-55450000D01*
X50050000Y-55450000D02*
X54750000Y-50750000D01*
X54750000Y-50750000D02*
X54750000Y-48650000D01*
X54750000Y-48650000D02*
X56405000Y-46995000D01*
X60675000Y-47250000D02*
X60900000Y-47250000D01*
X56405000Y-46995000D02*
X60420000Y-46995000D01*
X60420000Y-46995000D02*
X60675000Y-47250000D01*
X51350000Y-54582290D02*
X51350000Y-55070000D01*
X55039990Y-50892300D02*
X51350000Y-54582290D01*
X55039990Y-49460010D02*
X55039990Y-50892300D01*
X51350000Y-55070000D02*
X51350000Y-55450000D01*
X55750000Y-48750000D02*
X55039990Y-49460010D01*
X60900000Y-48750000D02*
X55750000Y-48750000D01*
X67700000Y-51250000D02*
X68180000Y-51250000D01*
X68180000Y-51250000D02*
X69104999Y-52174999D01*
X69104999Y-52174999D02*
X69104999Y-54754999D01*
X69104999Y-54754999D02*
X69500000Y-55150000D01*
X69500000Y-55150000D02*
X70000000Y-55150000D01*
X68180000Y-50750000D02*
X67700000Y-50750000D01*
X69500000Y-52070000D02*
X68180000Y-50750000D01*
X69500000Y-52750000D02*
X69500000Y-52070000D01*
D40*
X70000000Y-52750000D02*
X69500000Y-52750000D01*
D39*
X72050000Y-77900000D02*
X72550000Y-77900000D01*
X72050000Y-77900000D02*
X72050000Y-77050000D01*
X72050000Y-77050000D02*
X71900000Y-76900000D01*
X62799999Y-51850001D02*
X62600000Y-52050000D01*
X64249999Y-50400001D02*
X62799999Y-51850001D01*
X64249999Y-49702950D02*
X64249999Y-50400001D01*
X66459748Y-47669978D02*
X66034748Y-48094978D01*
X66609749Y-47669978D02*
X66459748Y-47669978D01*
X67029727Y-47250000D02*
X66609749Y-47669978D01*
X65857971Y-48094978D02*
X64249999Y-49702950D01*
X67700000Y-47250000D02*
X67029727Y-47250000D01*
X66034748Y-48094978D02*
X65857971Y-48094978D01*
X71366430Y-77716430D02*
X71366430Y-77679769D01*
X71550000Y-77900000D02*
X71366430Y-77716430D01*
X71366430Y-77679769D02*
X71366430Y-77396927D01*
X62943603Y-58452232D02*
X63143602Y-58652231D01*
X62550000Y-53400000D02*
X62550000Y-58058629D01*
X62550000Y-58058629D02*
X62943603Y-58452232D01*
X63150000Y-57450000D02*
X63150000Y-55050000D01*
X63150000Y-55050000D02*
X63050000Y-54950000D01*
X73050000Y-77900000D02*
X73050000Y-77200000D01*
X73050000Y-77200000D02*
X73000000Y-77150000D01*
X63050000Y-53880000D02*
X63050000Y-53400000D01*
X63050000Y-54950000D02*
X63050000Y-53880000D01*
X63794477Y-50272681D02*
X62150000Y-51917158D01*
X62150000Y-52367158D02*
X62150000Y-52650000D01*
X62150000Y-51917158D02*
X62150000Y-52367158D01*
X63794477Y-49529080D02*
X63794477Y-50272681D01*
X63910398Y-48854999D02*
X63704998Y-49060399D01*
X64324977Y-48854999D02*
X63910398Y-48854999D01*
X65744999Y-47534977D02*
X65644999Y-47534977D01*
X65644999Y-47534977D02*
X64324977Y-48854999D01*
X66130020Y-47149956D02*
X65744999Y-47534977D01*
X66550000Y-46864579D02*
X66264623Y-47149956D01*
X63704998Y-49439601D02*
X63794477Y-49529080D01*
X66264623Y-47149956D02*
X66130020Y-47149956D01*
X66550000Y-46600000D02*
X66550000Y-46864579D01*
X63704998Y-49060399D02*
X63704998Y-49439601D01*
X68840858Y-59397929D02*
X68840858Y-59115087D01*
X72595002Y-61160398D02*
X72316933Y-60882329D01*
X70325258Y-60882329D02*
X68840858Y-59397929D01*
X77034604Y-66400000D02*
X72595002Y-61960398D01*
X72316933Y-60882329D02*
X70325258Y-60882329D01*
X72595002Y-61960398D02*
X72595002Y-61160398D01*
X84300000Y-66400000D02*
X77034604Y-66400000D01*
X64297687Y-49250000D02*
X64099999Y-49250000D01*
X65752699Y-47794988D02*
X64297687Y-49250000D01*
X65967028Y-47794988D02*
X65752699Y-47794988D01*
X66352048Y-47409967D02*
X65967028Y-47794988D01*
X67050000Y-46600000D02*
X67050000Y-46862016D01*
X67050000Y-46862016D02*
X66502049Y-47409967D01*
X66502049Y-47409967D02*
X66352048Y-47409967D01*
X82200000Y-73350000D02*
X84300000Y-73350000D01*
X62900000Y-47350000D02*
X63780000Y-47350000D01*
X63780000Y-47350000D02*
X64050000Y-47080000D01*
X77800000Y-72700000D02*
X76750000Y-72700000D01*
X76750000Y-72700000D02*
X76600000Y-72550000D01*
X64050000Y-46600000D02*
X64050000Y-47080000D01*
X65300000Y-49020660D02*
X65300000Y-49067158D01*
X65300000Y-49067158D02*
X65300000Y-49350000D01*
X67220000Y-47750000D02*
X67040011Y-47929989D01*
X66142448Y-48354989D02*
X65965671Y-48354989D01*
X65965671Y-48354989D02*
X65300000Y-49020660D01*
X67700000Y-47750000D02*
X67220000Y-47750000D01*
X66567448Y-47929989D02*
X66142448Y-48354989D01*
X67040011Y-47929989D02*
X66567448Y-47929989D01*
X76850000Y-65650000D02*
X77800000Y-65650000D01*
D42*
G36*
X48273000Y-74000000D02*
X48278028Y-74035381D01*
X48286408Y-74056796D01*
X48686408Y-74856796D01*
X48706728Y-74886194D01*
X48734434Y-74908766D01*
X48767331Y-74922726D01*
X48800000Y-74927000D01*
X55373000Y-74927000D01*
X55373000Y-77300000D01*
X55378028Y-77335381D01*
X55392714Y-77367961D01*
X55406028Y-77385429D01*
X57373000Y-79549098D01*
X57373000Y-87623000D01*
X54018441Y-87623000D01*
X53127000Y-87535594D01*
X53127000Y-80000000D01*
X53121972Y-79964619D01*
X53107286Y-79932039D01*
X53089803Y-79910197D01*
X51089803Y-77910197D01*
X51061229Y-77888734D01*
X51027807Y-77876082D01*
X51000000Y-77873000D01*
X45390849Y-77873000D01*
X43427000Y-76435572D01*
X43427000Y-58027000D01*
X48273000Y-58027000D01*
X48273000Y-74000000D01*
X48273000Y-74000000D01*
G37*
X48273000Y-74000000D02*
X48278028Y-74035381D01*
X48286408Y-74056796D01*
X48686408Y-74856796D01*
X48706728Y-74886194D01*
X48734434Y-74908766D01*
X48767331Y-74922726D01*
X48800000Y-74927000D01*
X55373000Y-74927000D01*
X55373000Y-77300000D01*
X55378028Y-77335381D01*
X55392714Y-77367961D01*
X55406028Y-77385429D01*
X57373000Y-79549098D01*
X57373000Y-87623000D01*
X54018441Y-87623000D01*
X53127000Y-87535594D01*
X53127000Y-80000000D01*
X53121972Y-79964619D01*
X53107286Y-79932039D01*
X53089803Y-79910197D01*
X51089803Y-77910197D01*
X51061229Y-77888734D01*
X51027807Y-77876082D01*
X51000000Y-77873000D01*
X45390849Y-77873000D01*
X43427000Y-76435572D01*
X43427000Y-58027000D01*
X48273000Y-58027000D01*
X48273000Y-74000000D01*
G36*
X79063004Y-43581087D02*
X81047420Y-44180218D01*
X82877679Y-45153384D01*
X84484056Y-46463514D01*
X85805368Y-48060706D01*
X86791286Y-49884122D01*
X87404257Y-51864311D01*
X87622801Y-53943620D01*
X87623000Y-54000742D01*
X87623000Y-76981559D01*
X87418913Y-79063004D01*
X86819782Y-81047420D01*
X85875690Y-82823000D01*
X72942000Y-82823000D01*
X72942000Y-82525923D01*
X73040627Y-82527989D01*
X73142406Y-82510043D01*
X73238762Y-82472669D01*
X73326024Y-82417291D01*
X73400867Y-82346019D01*
X73460441Y-82261567D01*
X73502477Y-82167152D01*
X73525374Y-82066370D01*
X73527023Y-81948325D01*
X73506949Y-81846943D01*
X73467565Y-81751391D01*
X73410372Y-81665309D01*
X73382964Y-81637709D01*
X73420001Y-81613303D01*
X73479977Y-81542933D01*
X73517973Y-81458641D01*
X73529916Y-81374600D01*
X73787043Y-81374600D01*
X73790964Y-81395964D01*
X73829010Y-81492056D01*
X73884995Y-81578929D01*
X73956788Y-81653273D01*
X74041654Y-81712256D01*
X74136360Y-81753632D01*
X74237299Y-81775825D01*
X74340627Y-81777989D01*
X74442406Y-81760043D01*
X74538762Y-81722669D01*
X74626024Y-81667291D01*
X74700867Y-81596019D01*
X74760441Y-81511567D01*
X74802477Y-81417152D01*
X74825374Y-81316370D01*
X74827023Y-81198325D01*
X74806949Y-81096943D01*
X74788074Y-81051150D01*
X74910642Y-80928582D01*
X75375000Y-80928582D01*
X75427074Y-80924429D01*
X75515396Y-80897078D01*
X75592601Y-80846203D01*
X75652577Y-80775833D01*
X75690573Y-80691541D01*
X75703582Y-80600000D01*
X75703582Y-79800000D01*
X75699429Y-79747926D01*
X75672078Y-79659604D01*
X75621203Y-79582399D01*
X75550833Y-79522423D01*
X75466541Y-79484427D01*
X75375000Y-79471418D01*
X74625000Y-79471418D01*
X74572926Y-79475571D01*
X74484604Y-79502922D01*
X74407399Y-79553797D01*
X74347423Y-79624167D01*
X74309427Y-79708459D01*
X74296418Y-79800000D01*
X74296418Y-80264358D01*
X74090176Y-80470600D01*
X73530384Y-80470600D01*
X73526829Y-80426026D01*
X73499478Y-80337704D01*
X73448603Y-80260499D01*
X73378233Y-80200523D01*
X73293941Y-80162527D01*
X73202400Y-80149518D01*
X72897600Y-80149518D01*
X72845526Y-80153671D01*
X72803302Y-80166747D01*
X72793941Y-80162527D01*
X72702400Y-80149518D01*
X72397600Y-80149518D01*
X72345526Y-80153671D01*
X72303302Y-80166747D01*
X72293941Y-80162527D01*
X72202400Y-80149518D01*
X71897600Y-80149518D01*
X71845526Y-80153671D01*
X71757204Y-80181022D01*
X71679999Y-80231897D01*
X71620023Y-80302267D01*
X71582027Y-80386559D01*
X71569018Y-80478100D01*
X71569018Y-81208000D01*
X71253462Y-81208000D01*
X71237548Y-81191975D01*
X71151867Y-81134182D01*
X71056592Y-81094132D01*
X70955353Y-81073351D01*
X70852006Y-81072629D01*
X70750486Y-81091995D01*
X70654662Y-81130711D01*
X70568182Y-81187302D01*
X70494341Y-81259612D01*
X70435952Y-81344887D01*
X70395238Y-81439880D01*
X70373750Y-81540972D01*
X70372307Y-81644312D01*
X70390964Y-81745964D01*
X70429010Y-81842056D01*
X70484995Y-81928929D01*
X70556788Y-82003273D01*
X70641654Y-82062256D01*
X70736360Y-82103632D01*
X70837299Y-82125825D01*
X70940627Y-82127989D01*
X71042406Y-82110043D01*
X71138762Y-82072669D01*
X71226024Y-82017291D01*
X71252582Y-81992000D01*
X71658000Y-81992000D01*
X71658000Y-82823000D01*
X60600000Y-82823000D01*
X60564619Y-82828028D01*
X60532039Y-82842714D01*
X60504840Y-82865895D01*
X60485177Y-82895736D01*
X60474605Y-82929873D01*
X60473000Y-82950000D01*
X60473000Y-87623000D01*
X58427000Y-87623000D01*
X58427000Y-78350000D01*
X58421972Y-78314619D01*
X58407286Y-78282039D01*
X58394921Y-78265626D01*
X57662133Y-77441239D01*
X70838737Y-77441239D01*
X70857394Y-77542891D01*
X70895440Y-77638983D01*
X70951425Y-77725856D01*
X70978048Y-77753425D01*
X70981120Y-77788539D01*
X70981695Y-77790517D01*
X70981896Y-77792570D01*
X70992372Y-77827269D01*
X71002464Y-77862006D01*
X71003411Y-77863834D01*
X71004008Y-77865810D01*
X71021006Y-77897778D01*
X71037671Y-77929929D01*
X71038959Y-77931543D01*
X71039925Y-77933359D01*
X71062792Y-77961397D01*
X71069018Y-77969196D01*
X71069018Y-78344500D01*
X71073171Y-78396574D01*
X71100522Y-78484896D01*
X71151397Y-78562101D01*
X71221767Y-78622077D01*
X71306059Y-78660073D01*
X71397600Y-78673082D01*
X71702400Y-78673082D01*
X71754474Y-78668929D01*
X71796698Y-78655853D01*
X71806059Y-78660073D01*
X71897600Y-78673082D01*
X72202400Y-78673082D01*
X72254474Y-78668929D01*
X72296698Y-78655853D01*
X72306059Y-78660073D01*
X72397600Y-78673082D01*
X72702400Y-78673082D01*
X72754474Y-78668929D01*
X72796698Y-78655853D01*
X72806059Y-78660073D01*
X72897600Y-78673082D01*
X73202400Y-78673082D01*
X73254474Y-78668929D01*
X73342796Y-78641578D01*
X73420001Y-78590703D01*
X73479977Y-78520333D01*
X73517973Y-78436041D01*
X73530982Y-78344500D01*
X73530982Y-77455500D01*
X73526829Y-77403426D01*
X73501082Y-77320285D01*
X73502477Y-77317152D01*
X73525374Y-77216370D01*
X73527023Y-77098325D01*
X73506949Y-76996943D01*
X73467565Y-76901391D01*
X73410372Y-76815309D01*
X73337548Y-76741975D01*
X73251867Y-76684182D01*
X73156592Y-76644132D01*
X73055353Y-76623351D01*
X72952006Y-76622629D01*
X72850486Y-76641995D01*
X72754662Y-76680711D01*
X72668182Y-76737302D01*
X72594341Y-76809612D01*
X72535952Y-76894887D01*
X72495238Y-76989880D01*
X72473750Y-77090972D01*
X72473248Y-77126918D01*
X72442000Y-77126918D01*
X72442000Y-77050000D01*
X72438463Y-77013926D01*
X72435310Y-76977891D01*
X72434735Y-76975913D01*
X72434534Y-76973860D01*
X72425679Y-76944530D01*
X72427023Y-76848325D01*
X72406949Y-76746943D01*
X72367565Y-76651391D01*
X72310372Y-76565309D01*
X72237548Y-76491975D01*
X72151867Y-76434182D01*
X72056592Y-76394132D01*
X71955353Y-76373351D01*
X71852006Y-76372629D01*
X71750486Y-76391995D01*
X71654662Y-76430711D01*
X71568182Y-76487302D01*
X71494341Y-76559612D01*
X71435952Y-76644887D01*
X71395238Y-76739880D01*
X71373750Y-76840972D01*
X71373346Y-76869940D01*
X71318436Y-76869556D01*
X71216916Y-76888922D01*
X71121092Y-76927638D01*
X71034612Y-76984229D01*
X70960771Y-77056539D01*
X70902382Y-77141814D01*
X70861668Y-77236807D01*
X70840180Y-77337899D01*
X70838737Y-77441239D01*
X57662133Y-77441239D01*
X57227000Y-76951715D01*
X57227000Y-74950000D01*
X72421418Y-74950000D01*
X72421418Y-75750000D01*
X72425571Y-75802074D01*
X72452922Y-75890396D01*
X72503797Y-75967601D01*
X72574167Y-76027577D01*
X72658459Y-76065573D01*
X72750000Y-76078582D01*
X73550000Y-76078582D01*
X73602074Y-76074429D01*
X73690396Y-76047078D01*
X73767601Y-75996203D01*
X73827577Y-75925833D01*
X73865573Y-75841541D01*
X73878582Y-75750000D01*
X73878582Y-74950000D01*
X74021418Y-74950000D01*
X74021418Y-75750000D01*
X74025571Y-75802074D01*
X74052922Y-75890396D01*
X74103797Y-75967601D01*
X74174167Y-76027577D01*
X74258459Y-76065573D01*
X74350000Y-76078582D01*
X75150000Y-76078582D01*
X75202074Y-76074429D01*
X75290396Y-76047078D01*
X75367601Y-75996203D01*
X75427577Y-75925833D01*
X75465573Y-75841541D01*
X75478582Y-75750000D01*
X75478582Y-75742000D01*
X75650000Y-75742000D01*
X75686074Y-75738463D01*
X75722109Y-75735310D01*
X75724087Y-75734735D01*
X75726140Y-75734534D01*
X75760839Y-75724058D01*
X75795576Y-75713966D01*
X75797404Y-75713019D01*
X75799380Y-75712422D01*
X75831348Y-75695424D01*
X75863499Y-75678759D01*
X75865113Y-75677471D01*
X75866929Y-75676505D01*
X75894967Y-75653638D01*
X75923289Y-75631029D01*
X75926156Y-75628202D01*
X75926217Y-75628152D01*
X75926264Y-75628095D01*
X75927186Y-75627186D01*
X76177701Y-75376671D01*
X76240627Y-75377989D01*
X76342406Y-75360043D01*
X76438762Y-75322669D01*
X76526024Y-75267291D01*
X76600867Y-75196019D01*
X76660441Y-75111567D01*
X76702477Y-75017152D01*
X76725374Y-74916370D01*
X76727023Y-74798325D01*
X76706949Y-74696943D01*
X76667565Y-74601391D01*
X76610372Y-74515309D01*
X76537548Y-74441975D01*
X76451867Y-74384182D01*
X76356592Y-74344132D01*
X76255353Y-74323351D01*
X76152006Y-74322629D01*
X76050486Y-74341995D01*
X75954662Y-74380711D01*
X75868182Y-74437302D01*
X75794341Y-74509612D01*
X75735952Y-74594887D01*
X75695238Y-74689880D01*
X75678904Y-74766724D01*
X75487628Y-74958000D01*
X75478582Y-74958000D01*
X75478582Y-74950000D01*
X75474429Y-74897926D01*
X75447078Y-74809604D01*
X75396203Y-74732399D01*
X75325833Y-74672423D01*
X75241541Y-74634427D01*
X75150000Y-74621418D01*
X74350000Y-74621418D01*
X74297926Y-74625571D01*
X74209604Y-74652922D01*
X74132399Y-74703797D01*
X74072423Y-74774167D01*
X74034427Y-74858459D01*
X74021418Y-74950000D01*
X73878582Y-74950000D01*
X73874429Y-74897926D01*
X73847078Y-74809604D01*
X73796203Y-74732399D01*
X73728203Y-74674443D01*
X73765573Y-74591541D01*
X73778582Y-74500000D01*
X73778582Y-73600000D01*
X73774429Y-73547926D01*
X73747078Y-73459604D01*
X73704054Y-73394312D01*
X81672307Y-73394312D01*
X81690964Y-73495964D01*
X81729010Y-73592056D01*
X81784995Y-73678929D01*
X81856788Y-73753273D01*
X81941654Y-73812256D01*
X82036360Y-73853632D01*
X82137299Y-73875825D01*
X82240627Y-73877989D01*
X82342406Y-73860043D01*
X82438762Y-73822669D01*
X82526024Y-73767291D01*
X82552582Y-73742000D01*
X83121418Y-73742000D01*
X83121418Y-73800000D01*
X83125571Y-73852074D01*
X83152922Y-73940396D01*
X83203797Y-74017601D01*
X83274167Y-74077577D01*
X83358459Y-74115573D01*
X83450000Y-74128582D01*
X85150000Y-74128582D01*
X85202074Y-74124429D01*
X85290396Y-74097078D01*
X85367601Y-74046203D01*
X85427577Y-73975833D01*
X85465573Y-73891541D01*
X85478582Y-73800000D01*
X85478582Y-72900000D01*
X85474429Y-72847926D01*
X85447078Y-72759604D01*
X85396203Y-72682399D01*
X85325833Y-72622423D01*
X85241541Y-72584427D01*
X85150000Y-72571418D01*
X83450000Y-72571418D01*
X83397926Y-72575571D01*
X83309604Y-72602922D01*
X83232399Y-72653797D01*
X83172423Y-72724167D01*
X83134427Y-72808459D01*
X83121418Y-72900000D01*
X83121418Y-72958000D01*
X82553462Y-72958000D01*
X82537548Y-72941975D01*
X82451867Y-72884182D01*
X82356592Y-72844132D01*
X82255353Y-72823351D01*
X82152006Y-72822629D01*
X82050486Y-72841995D01*
X81954662Y-72880711D01*
X81868182Y-72937302D01*
X81794341Y-73009612D01*
X81735952Y-73094887D01*
X81695238Y-73189880D01*
X81673750Y-73290972D01*
X81672307Y-73394312D01*
X73704054Y-73394312D01*
X73696203Y-73382399D01*
X73625833Y-73322423D01*
X73541541Y-73284427D01*
X73450000Y-73271418D01*
X72950000Y-73271418D01*
X72897926Y-73275571D01*
X72809604Y-73302922D01*
X72732399Y-73353797D01*
X72672423Y-73424167D01*
X72634427Y-73508459D01*
X72621418Y-73600000D01*
X72621418Y-74500000D01*
X72625571Y-74552074D01*
X72652671Y-74639585D01*
X72609604Y-74652922D01*
X72532399Y-74703797D01*
X72472423Y-74774167D01*
X72434427Y-74858459D01*
X72421418Y-74950000D01*
X57227000Y-74950000D01*
X57227000Y-70250138D01*
X58999867Y-70252000D01*
X59035253Y-70247009D01*
X59067848Y-70232357D01*
X59095071Y-70209205D01*
X59114766Y-70179385D01*
X59125374Y-70145259D01*
X59127000Y-70125000D01*
X59127000Y-68400000D01*
X59121972Y-68364619D01*
X59107286Y-68332039D01*
X59084105Y-68304840D01*
X59054264Y-68285177D01*
X59020127Y-68274605D01*
X59000000Y-68273000D01*
X57227000Y-68273000D01*
X57227000Y-65549943D01*
X61923349Y-65549943D01*
X62001166Y-66243700D01*
X62212253Y-66909130D01*
X62548569Y-67520887D01*
X62997304Y-68055669D01*
X63541366Y-68493106D01*
X64073727Y-68771418D01*
X63310000Y-68771418D01*
X63257926Y-68775571D01*
X63169604Y-68802922D01*
X63092399Y-68853797D01*
X63032423Y-68924167D01*
X62994427Y-69008459D01*
X62981418Y-69100000D01*
X62981418Y-72100000D01*
X62985571Y-72152074D01*
X63012922Y-72240396D01*
X63063797Y-72317601D01*
X63134167Y-72377577D01*
X63218459Y-72415573D01*
X63310000Y-72428582D01*
X63723509Y-72428582D01*
X63731241Y-72443499D01*
X63732529Y-72445113D01*
X63733495Y-72446929D01*
X63756362Y-72474967D01*
X63778971Y-72503289D01*
X63781798Y-72506156D01*
X63781848Y-72506217D01*
X63781905Y-72506264D01*
X63782814Y-72507186D01*
X64284079Y-73008451D01*
X64290964Y-73045964D01*
X64329010Y-73142056D01*
X64384995Y-73228929D01*
X64456788Y-73303273D01*
X64541654Y-73362256D01*
X64636360Y-73403632D01*
X64737299Y-73425825D01*
X64840627Y-73427989D01*
X64942406Y-73410043D01*
X65038762Y-73372669D01*
X65126024Y-73317291D01*
X65200867Y-73246019D01*
X65260441Y-73161567D01*
X65302477Y-73067152D01*
X65325374Y-72966370D01*
X65327023Y-72848325D01*
X65306949Y-72746943D01*
X65267565Y-72651391D01*
X65210372Y-72565309D01*
X65137548Y-72491975D01*
X65051867Y-72434182D01*
X64956592Y-72394132D01*
X64955276Y-72393862D01*
X65027601Y-72346203D01*
X65087577Y-72275833D01*
X65125573Y-72191541D01*
X65138582Y-72100000D01*
X65138582Y-69100000D01*
X65134429Y-69047926D01*
X65132340Y-69041180D01*
X65524702Y-69076888D01*
X65521418Y-69100000D01*
X65521418Y-72100000D01*
X65525571Y-72152074D01*
X65552922Y-72240396D01*
X65603797Y-72317601D01*
X65674167Y-72377577D01*
X65758459Y-72415573D01*
X65850000Y-72428582D01*
X66208000Y-72428582D01*
X66208000Y-72446236D01*
X66194341Y-72459612D01*
X66135952Y-72544887D01*
X66095238Y-72639880D01*
X66073750Y-72740972D01*
X66072307Y-72844312D01*
X66090964Y-72945964D01*
X66129010Y-73042056D01*
X66184995Y-73128929D01*
X66256788Y-73203273D01*
X66341654Y-73262256D01*
X66436360Y-73303632D01*
X66537299Y-73325825D01*
X66640627Y-73327989D01*
X66742406Y-73310043D01*
X66838762Y-73272669D01*
X66926024Y-73217291D01*
X67000867Y-73146019D01*
X67060441Y-73061567D01*
X67102477Y-72967152D01*
X67125374Y-72866370D01*
X67127023Y-72748325D01*
X67106949Y-72646943D01*
X67085256Y-72594312D01*
X76072307Y-72594312D01*
X76090964Y-72695964D01*
X76129010Y-72792056D01*
X76184995Y-72878929D01*
X76256788Y-72953273D01*
X76341654Y-73012256D01*
X76436360Y-73053632D01*
X76537299Y-73075825D01*
X76640627Y-73077989D01*
X76647509Y-73076776D01*
X76668499Y-73083434D01*
X76670549Y-73083664D01*
X76672518Y-73084266D01*
X76708531Y-73087924D01*
X76744527Y-73091962D01*
X76748553Y-73091990D01*
X76748632Y-73091998D01*
X76748706Y-73091991D01*
X76750000Y-73092000D01*
X77053979Y-73092000D01*
X77103797Y-73167601D01*
X77174167Y-73227577D01*
X77258459Y-73265573D01*
X77350000Y-73278582D01*
X78250000Y-73278582D01*
X78302074Y-73274429D01*
X78390396Y-73247078D01*
X78467601Y-73196203D01*
X78527577Y-73125833D01*
X78565573Y-73041541D01*
X78578582Y-72950000D01*
X78578582Y-72450000D01*
X78574429Y-72397926D01*
X78547078Y-72309604D01*
X78496203Y-72232399D01*
X78425833Y-72172423D01*
X78341541Y-72134427D01*
X78250000Y-72121418D01*
X77350000Y-72121418D01*
X77297926Y-72125571D01*
X77209604Y-72152922D01*
X77132399Y-72203797D01*
X77072423Y-72274167D01*
X77063148Y-72294743D01*
X77010372Y-72215309D01*
X76937548Y-72141975D01*
X76851867Y-72084182D01*
X76756592Y-72044132D01*
X76655353Y-72023351D01*
X76552006Y-72022629D01*
X76450486Y-72041995D01*
X76354662Y-72080711D01*
X76268182Y-72137302D01*
X76194341Y-72209612D01*
X76135952Y-72294887D01*
X76095238Y-72389880D01*
X76073750Y-72490972D01*
X76072307Y-72594312D01*
X67085256Y-72594312D01*
X67067565Y-72551391D01*
X67010372Y-72465309D01*
X66992000Y-72446808D01*
X66992000Y-72428582D01*
X67350000Y-72428582D01*
X67402074Y-72424429D01*
X67490396Y-72397078D01*
X67567601Y-72346203D01*
X67627577Y-72275833D01*
X67665573Y-72191541D01*
X67678582Y-72100000D01*
X67678582Y-70950000D01*
X77021418Y-70950000D01*
X77021418Y-71450000D01*
X77025571Y-71502074D01*
X77052922Y-71590396D01*
X77103797Y-71667601D01*
X77174167Y-71727577D01*
X77258459Y-71765573D01*
X77350000Y-71778582D01*
X78250000Y-71778582D01*
X78302074Y-71774429D01*
X78348768Y-71759969D01*
X78353797Y-71767601D01*
X78424167Y-71827577D01*
X78508459Y-71865573D01*
X78600000Y-71878582D01*
X79400000Y-71878582D01*
X79452074Y-71874429D01*
X79540396Y-71847078D01*
X79617601Y-71796203D01*
X79677577Y-71725833D01*
X79715573Y-71641541D01*
X79728582Y-71550000D01*
X79728582Y-70750000D01*
X79724429Y-70697926D01*
X79697078Y-70609604D01*
X79646203Y-70532399D01*
X79575833Y-70472423D01*
X79491541Y-70434427D01*
X79400000Y-70421418D01*
X78600000Y-70421418D01*
X78547926Y-70425571D01*
X78459604Y-70452922D01*
X78382399Y-70503797D01*
X78322423Y-70574167D01*
X78298046Y-70628246D01*
X78250000Y-70621418D01*
X77350000Y-70621418D01*
X77297926Y-70625571D01*
X77209604Y-70652922D01*
X77132399Y-70703797D01*
X77072423Y-70774167D01*
X77034427Y-70858459D01*
X77021418Y-70950000D01*
X67678582Y-70950000D01*
X67678582Y-70344312D01*
X82022307Y-70344312D01*
X82040964Y-70445964D01*
X82079010Y-70542056D01*
X82134995Y-70628929D01*
X82206788Y-70703273D01*
X82291654Y-70762256D01*
X82386360Y-70803632D01*
X82434128Y-70814134D01*
X82444635Y-70822951D01*
X82446715Y-70824095D01*
X82448554Y-70825605D01*
X82485382Y-70845352D01*
X82521938Y-70865449D01*
X82524202Y-70866167D01*
X82526298Y-70867291D01*
X82566200Y-70879490D01*
X82606024Y-70892123D01*
X82608390Y-70892388D01*
X82610659Y-70893082D01*
X82652142Y-70897296D01*
X82693689Y-70901956D01*
X82698337Y-70901988D01*
X82698422Y-70901997D01*
X82698501Y-70901990D01*
X82700000Y-70902000D01*
X83121578Y-70902000D01*
X83125571Y-70952074D01*
X83152922Y-71040396D01*
X83203797Y-71117601D01*
X83274167Y-71177577D01*
X83358459Y-71215573D01*
X83450000Y-71228582D01*
X85150000Y-71228582D01*
X85202074Y-71224429D01*
X85290396Y-71197078D01*
X85367601Y-71146203D01*
X85427577Y-71075833D01*
X85465573Y-70991541D01*
X85478582Y-70900000D01*
X85478582Y-70000000D01*
X85474429Y-69947926D01*
X85447078Y-69859604D01*
X85396203Y-69782399D01*
X85325833Y-69722423D01*
X85241541Y-69684427D01*
X85150000Y-69671418D01*
X83450000Y-69671418D01*
X83397926Y-69675571D01*
X83309604Y-69702922D01*
X83232399Y-69753797D01*
X83172423Y-69824167D01*
X83134427Y-69908459D01*
X83121702Y-69998000D01*
X82982092Y-69998000D01*
X82960372Y-69965309D01*
X82887548Y-69891975D01*
X82801867Y-69834182D01*
X82706592Y-69794132D01*
X82605353Y-69773351D01*
X82502006Y-69772629D01*
X82400486Y-69791995D01*
X82304662Y-69830711D01*
X82218182Y-69887302D01*
X82144341Y-69959612D01*
X82085952Y-70044887D01*
X82045238Y-70139880D01*
X82023750Y-70240972D01*
X82022307Y-70344312D01*
X67678582Y-70344312D01*
X67678582Y-69100000D01*
X67674429Y-69047926D01*
X67647078Y-68959604D01*
X67596203Y-68882399D01*
X67525833Y-68822423D01*
X67441541Y-68784427D01*
X67350000Y-68771418D01*
X66934388Y-68771418D01*
X67500233Y-68465467D01*
X68038135Y-68020477D01*
X68479359Y-67479482D01*
X68807101Y-66863089D01*
X68884238Y-66607601D01*
X68927114Y-66643579D01*
X69008693Y-66688428D01*
X69097429Y-66716576D01*
X69189943Y-66726954D01*
X69196603Y-66727000D01*
X69653397Y-66727000D01*
X69674733Y-66724908D01*
X69673046Y-66739943D01*
X69673000Y-66746603D01*
X69673000Y-67203397D01*
X69682084Y-67296047D01*
X69708992Y-67385168D01*
X69752697Y-67467365D01*
X69811535Y-67539508D01*
X69883265Y-67598848D01*
X69965155Y-67643126D01*
X70054086Y-67670654D01*
X70146670Y-67680385D01*
X70239381Y-67671948D01*
X70328687Y-67645664D01*
X70400457Y-67608144D01*
X70465155Y-67643126D01*
X70554086Y-67670654D01*
X70646670Y-67680385D01*
X70739381Y-67671948D01*
X70828687Y-67645664D01*
X70900457Y-67608144D01*
X70965155Y-67643126D01*
X71054086Y-67670654D01*
X71146670Y-67680385D01*
X71239381Y-67671948D01*
X71328687Y-67645664D01*
X71400457Y-67608144D01*
X71465155Y-67643126D01*
X71554086Y-67670654D01*
X71567714Y-67672086D01*
X72273325Y-68377697D01*
X72279010Y-68392056D01*
X72334995Y-68478929D01*
X72406788Y-68553273D01*
X72491654Y-68612256D01*
X72586360Y-68653632D01*
X72687299Y-68675825D01*
X72790627Y-68677989D01*
X72892406Y-68660043D01*
X72988762Y-68622669D01*
X73076024Y-68567291D01*
X73150867Y-68496019D01*
X73210441Y-68411567D01*
X73252477Y-68317152D01*
X73275374Y-68216370D01*
X73277023Y-68098325D01*
X73256949Y-67996943D01*
X73217565Y-67901391D01*
X73160372Y-67815309D01*
X73087548Y-67741975D01*
X73001867Y-67684182D01*
X72906592Y-67644132D01*
X72805353Y-67623351D01*
X72702006Y-67622629D01*
X72639017Y-67634645D01*
X72127000Y-67122628D01*
X72127000Y-66746603D01*
X72124908Y-66725267D01*
X72139943Y-66726954D01*
X72146603Y-66727000D01*
X72603397Y-66727000D01*
X72696047Y-66717916D01*
X72785168Y-66691008D01*
X72867365Y-66647303D01*
X72873867Y-66642000D01*
X73007628Y-66642000D01*
X73292814Y-66927186D01*
X73320804Y-66950177D01*
X73348533Y-66973444D01*
X73350340Y-66974438D01*
X73351932Y-66975745D01*
X73383827Y-66992847D01*
X73415575Y-67010301D01*
X73417540Y-67010924D01*
X73419356Y-67011898D01*
X73453964Y-67022479D01*
X73488499Y-67033434D01*
X73490549Y-67033664D01*
X73492518Y-67034266D01*
X73528536Y-67037925D01*
X73564527Y-67041962D01*
X73568552Y-67041990D01*
X73568631Y-67041998D01*
X73568705Y-67041991D01*
X73570000Y-67042000D01*
X74295902Y-67042000D01*
X74306788Y-67053273D01*
X74391654Y-67112256D01*
X74486360Y-67153632D01*
X74587299Y-67175825D01*
X74690627Y-67177989D01*
X74792406Y-67160043D01*
X74888762Y-67122669D01*
X74976024Y-67067291D01*
X75050867Y-66996019D01*
X75110441Y-66911567D01*
X75152477Y-66817152D01*
X75175374Y-66716370D01*
X75177023Y-66598325D01*
X75156949Y-66496943D01*
X75117565Y-66401391D01*
X75060372Y-66315309D01*
X74987548Y-66241975D01*
X74901867Y-66184182D01*
X74806592Y-66144132D01*
X74705353Y-66123351D01*
X74602006Y-66122629D01*
X74500486Y-66141995D01*
X74404662Y-66180711D01*
X74318182Y-66237302D01*
X74297046Y-66258000D01*
X73732372Y-66258000D01*
X73447186Y-65972814D01*
X73419191Y-65949819D01*
X73391467Y-65926556D01*
X73389660Y-65925563D01*
X73388067Y-65924254D01*
X73356139Y-65907134D01*
X73324425Y-65889699D01*
X73322462Y-65889076D01*
X73320643Y-65888101D01*
X73286004Y-65877511D01*
X73251501Y-65866566D01*
X73249451Y-65866336D01*
X73247482Y-65865734D01*
X73211469Y-65862076D01*
X73175473Y-65858038D01*
X73171447Y-65858010D01*
X73171368Y-65858002D01*
X73171294Y-65858009D01*
X73170000Y-65858000D01*
X73066913Y-65858000D01*
X73070654Y-65845914D01*
X73080385Y-65753330D01*
X73071948Y-65660619D01*
X73066468Y-65642000D01*
X73945655Y-65642000D01*
X73964881Y-65661909D01*
X74049747Y-65720892D01*
X74144453Y-65762268D01*
X74245392Y-65784461D01*
X74348720Y-65786625D01*
X74450499Y-65768679D01*
X74546855Y-65731305D01*
X74634117Y-65675927D01*
X74708960Y-65604655D01*
X74768534Y-65520203D01*
X74810570Y-65425788D01*
X74833467Y-65325006D01*
X74835116Y-65206961D01*
X74815042Y-65105579D01*
X74775658Y-65010027D01*
X74718465Y-64923945D01*
X74645641Y-64850611D01*
X74559960Y-64792818D01*
X74464685Y-64752768D01*
X74363446Y-64731987D01*
X74260099Y-64731265D01*
X74158579Y-64750631D01*
X74062755Y-64789347D01*
X73976275Y-64845938D01*
X73963958Y-64858000D01*
X72874768Y-64858000D01*
X72872886Y-64856421D01*
X72791307Y-64811572D01*
X72702571Y-64783424D01*
X72610057Y-64773046D01*
X72603397Y-64773000D01*
X72146603Y-64773000D01*
X72053953Y-64782084D01*
X71964832Y-64808992D01*
X71882635Y-64852697D01*
X71810492Y-64911535D01*
X71751152Y-64983265D01*
X71706874Y-65065155D01*
X71679346Y-65154086D01*
X71669615Y-65246670D01*
X71678052Y-65339381D01*
X71704336Y-65428687D01*
X71741856Y-65500457D01*
X71706874Y-65565155D01*
X71679346Y-65654086D01*
X71669615Y-65746670D01*
X71678052Y-65839381D01*
X71704336Y-65928687D01*
X71741856Y-66000457D01*
X71706874Y-66065155D01*
X71679346Y-66154086D01*
X71669615Y-66246670D01*
X71671881Y-66271565D01*
X71653330Y-66269615D01*
X71560619Y-66278052D01*
X71471313Y-66304336D01*
X71399543Y-66341856D01*
X71334845Y-66306874D01*
X71245914Y-66279346D01*
X71153330Y-66269615D01*
X71060619Y-66278052D01*
X70971313Y-66304336D01*
X70899543Y-66341856D01*
X70834845Y-66306874D01*
X70745914Y-66279346D01*
X70653330Y-66269615D01*
X70560619Y-66278052D01*
X70471313Y-66304336D01*
X70399543Y-66341856D01*
X70334845Y-66306874D01*
X70245914Y-66279346D01*
X70153330Y-66269615D01*
X70128435Y-66271881D01*
X70130385Y-66253330D01*
X70121948Y-66160619D01*
X70095664Y-66071313D01*
X70058144Y-65999543D01*
X70093126Y-65934845D01*
X70120654Y-65845914D01*
X70130385Y-65753330D01*
X70121948Y-65660619D01*
X70095664Y-65571313D01*
X70058144Y-65499543D01*
X70093126Y-65434845D01*
X70120654Y-65345914D01*
X70130385Y-65253330D01*
X70121948Y-65160619D01*
X70095664Y-65071313D01*
X70058144Y-64999543D01*
X70093126Y-64934845D01*
X70120654Y-64845914D01*
X70130385Y-64753330D01*
X70128119Y-64728435D01*
X70146670Y-64730385D01*
X70239381Y-64721948D01*
X70328687Y-64695664D01*
X70400457Y-64658144D01*
X70465155Y-64693126D01*
X70554086Y-64720654D01*
X70646670Y-64730385D01*
X70739381Y-64721948D01*
X70828687Y-64695664D01*
X70900457Y-64658144D01*
X70965155Y-64693126D01*
X71054086Y-64720654D01*
X71146670Y-64730385D01*
X71239381Y-64721948D01*
X71328687Y-64695664D01*
X71400457Y-64658144D01*
X71465155Y-64693126D01*
X71554086Y-64720654D01*
X71646670Y-64730385D01*
X71739381Y-64721948D01*
X71828687Y-64695664D01*
X71911188Y-64652534D01*
X71983739Y-64594200D01*
X72043579Y-64522886D01*
X72088428Y-64441307D01*
X72116576Y-64352571D01*
X72126954Y-64260057D01*
X72127000Y-64253397D01*
X72127000Y-63796603D01*
X72117916Y-63703953D01*
X72091008Y-63614832D01*
X72047303Y-63532635D01*
X71988465Y-63460492D01*
X71916735Y-63401152D01*
X71834845Y-63356874D01*
X71745914Y-63329346D01*
X71653330Y-63319615D01*
X71560619Y-63328052D01*
X71538230Y-63334641D01*
X71548444Y-63322469D01*
X71549438Y-63320662D01*
X71550745Y-63319070D01*
X71567847Y-63287175D01*
X71585301Y-63255427D01*
X71585924Y-63253462D01*
X71586898Y-63251646D01*
X71597483Y-63217025D01*
X71608434Y-63182503D01*
X71608664Y-63180455D01*
X71609266Y-63178485D01*
X71612925Y-63142461D01*
X71616962Y-63106475D01*
X71616990Y-63102450D01*
X71616998Y-63102371D01*
X71616991Y-63102297D01*
X71617000Y-63101002D01*
X71617000Y-62537372D01*
X72176675Y-61977697D01*
X72190627Y-61977989D01*
X72204487Y-61975545D01*
X72206539Y-61996472D01*
X72209692Y-62032507D01*
X72210267Y-62034485D01*
X72210468Y-62036538D01*
X72220944Y-62071237D01*
X72231036Y-62105974D01*
X72231983Y-62107802D01*
X72232580Y-62109778D01*
X72249578Y-62141746D01*
X72266243Y-62173897D01*
X72267531Y-62175511D01*
X72268497Y-62177327D01*
X72291364Y-62205365D01*
X72313973Y-62233687D01*
X72316800Y-62236554D01*
X72316850Y-62236615D01*
X72316907Y-62236662D01*
X72317816Y-62237584D01*
X76757418Y-66677186D01*
X76785408Y-66700177D01*
X76813137Y-66723444D01*
X76814944Y-66724438D01*
X76816536Y-66725745D01*
X76848431Y-66742847D01*
X76880179Y-66760301D01*
X76882144Y-66760924D01*
X76883960Y-66761898D01*
X76918568Y-66772479D01*
X76953103Y-66783434D01*
X76955153Y-66783664D01*
X76957122Y-66784266D01*
X76993140Y-66787925D01*
X77029131Y-66791962D01*
X77033156Y-66791990D01*
X77033235Y-66791998D01*
X77033309Y-66791991D01*
X77034604Y-66792000D01*
X83121418Y-66792000D01*
X83121418Y-66850000D01*
X83125571Y-66902074D01*
X83152922Y-66990396D01*
X83203797Y-67067601D01*
X83274167Y-67127577D01*
X83358459Y-67165573D01*
X83450000Y-67178582D01*
X85150000Y-67178582D01*
X85202074Y-67174429D01*
X85290396Y-67147078D01*
X85367601Y-67096203D01*
X85427577Y-67025833D01*
X85465573Y-66941541D01*
X85478582Y-66850000D01*
X85478582Y-65950000D01*
X85474429Y-65897926D01*
X85447078Y-65809604D01*
X85396203Y-65732399D01*
X85325833Y-65672423D01*
X85241541Y-65634427D01*
X85150000Y-65621418D01*
X83450000Y-65621418D01*
X83397926Y-65625571D01*
X83309604Y-65652922D01*
X83232399Y-65703797D01*
X83172423Y-65774167D01*
X83134427Y-65858459D01*
X83121418Y-65950000D01*
X83121418Y-66008000D01*
X78558154Y-66008000D01*
X78565573Y-65991541D01*
X78578582Y-65900000D01*
X78578582Y-65400000D01*
X78574429Y-65347926D01*
X78547078Y-65259604D01*
X78496203Y-65182399D01*
X78425833Y-65122423D01*
X78341541Y-65084427D01*
X78250000Y-65071418D01*
X77350000Y-65071418D01*
X77297926Y-65075571D01*
X77209604Y-65102922D01*
X77132399Y-65153797D01*
X77104810Y-65186167D01*
X77101867Y-65184182D01*
X77006592Y-65144132D01*
X76905353Y-65123351D01*
X76802006Y-65122629D01*
X76700486Y-65141995D01*
X76604662Y-65180711D01*
X76518182Y-65237302D01*
X76471749Y-65282773D01*
X75088976Y-63900000D01*
X77021418Y-63900000D01*
X77021418Y-64400000D01*
X77025571Y-64452074D01*
X77052922Y-64540396D01*
X77103797Y-64617601D01*
X77174167Y-64677577D01*
X77258459Y-64715573D01*
X77350000Y-64728582D01*
X78250000Y-64728582D01*
X78302074Y-64724429D01*
X78348768Y-64709969D01*
X78353797Y-64717601D01*
X78424167Y-64777577D01*
X78508459Y-64815573D01*
X78600000Y-64828582D01*
X79400000Y-64828582D01*
X79452074Y-64824429D01*
X79540396Y-64797078D01*
X79617601Y-64746203D01*
X79677577Y-64675833D01*
X79715573Y-64591541D01*
X79728582Y-64500000D01*
X79728582Y-63700000D01*
X79724429Y-63647926D01*
X79697078Y-63559604D01*
X79687002Y-63544312D01*
X82072307Y-63544312D01*
X82090964Y-63645964D01*
X82129010Y-63742056D01*
X82184995Y-63828929D01*
X82256788Y-63903273D01*
X82341654Y-63962256D01*
X82436360Y-64003632D01*
X82537299Y-64025825D01*
X82640627Y-64027989D01*
X82742406Y-64010043D01*
X82838762Y-63972669D01*
X82871331Y-63952000D01*
X83121578Y-63952000D01*
X83125571Y-64002074D01*
X83152922Y-64090396D01*
X83203797Y-64167601D01*
X83274167Y-64227577D01*
X83358459Y-64265573D01*
X83450000Y-64278582D01*
X85150000Y-64278582D01*
X85202074Y-64274429D01*
X85290396Y-64247078D01*
X85367601Y-64196203D01*
X85427577Y-64125833D01*
X85465573Y-64041541D01*
X85478582Y-63950000D01*
X85478582Y-63050000D01*
X85474429Y-62997926D01*
X85447078Y-62909604D01*
X85396203Y-62832399D01*
X85325833Y-62772423D01*
X85241541Y-62734427D01*
X85150000Y-62721418D01*
X83450000Y-62721418D01*
X83397926Y-62725571D01*
X83309604Y-62752922D01*
X83232399Y-62803797D01*
X83172423Y-62874167D01*
X83134427Y-62958459D01*
X83121702Y-63048000D01*
X82872353Y-63048000D01*
X82851867Y-63034182D01*
X82756592Y-62994132D01*
X82655353Y-62973351D01*
X82552006Y-62972629D01*
X82450486Y-62991995D01*
X82354662Y-63030711D01*
X82268182Y-63087302D01*
X82194341Y-63159612D01*
X82135952Y-63244887D01*
X82095238Y-63339880D01*
X82073750Y-63440972D01*
X82072307Y-63544312D01*
X79687002Y-63544312D01*
X79646203Y-63482399D01*
X79575833Y-63422423D01*
X79491541Y-63384427D01*
X79400000Y-63371418D01*
X78600000Y-63371418D01*
X78547926Y-63375571D01*
X78459604Y-63402922D01*
X78382399Y-63453797D01*
X78322423Y-63524167D01*
X78298046Y-63578246D01*
X78250000Y-63571418D01*
X77350000Y-63571418D01*
X77297926Y-63575571D01*
X77209604Y-63602922D01*
X77132399Y-63653797D01*
X77072423Y-63724167D01*
X77034427Y-63808459D01*
X77021418Y-63900000D01*
X75088976Y-63900000D01*
X72987002Y-61798026D01*
X72987002Y-61160398D01*
X72983465Y-61124324D01*
X72980312Y-61088289D01*
X72979737Y-61086311D01*
X72979536Y-61084258D01*
X72969060Y-61049559D01*
X72958968Y-61014822D01*
X72958021Y-61012994D01*
X72957424Y-61011018D01*
X72940426Y-60979050D01*
X72923761Y-60946899D01*
X72922473Y-60945285D01*
X72921507Y-60943469D01*
X72898640Y-60915431D01*
X72876031Y-60887109D01*
X72873204Y-60884242D01*
X72873154Y-60884181D01*
X72873097Y-60884134D01*
X72872188Y-60883212D01*
X72602479Y-60613503D01*
X72612503Y-60612626D01*
X72614481Y-60612051D01*
X72616534Y-60611850D01*
X72651233Y-60601374D01*
X72685970Y-60591282D01*
X72687798Y-60590335D01*
X72689774Y-60589738D01*
X72721742Y-60572740D01*
X72753893Y-60556075D01*
X72755507Y-60554787D01*
X72757323Y-60553821D01*
X72785361Y-60530954D01*
X72813683Y-60508345D01*
X72816550Y-60505518D01*
X72816611Y-60505468D01*
X72816658Y-60505411D01*
X72817580Y-60504502D01*
X74372082Y-58950000D01*
X76911418Y-58950000D01*
X76911418Y-61350000D01*
X76915571Y-61402074D01*
X76942922Y-61490396D01*
X76993797Y-61567601D01*
X77064167Y-61627577D01*
X77148459Y-61665573D01*
X77218000Y-61675456D01*
X77218000Y-61798082D01*
X77185952Y-61844887D01*
X77145238Y-61939880D01*
X77123750Y-62040972D01*
X77122307Y-62144312D01*
X77140964Y-62245964D01*
X77179010Y-62342056D01*
X77234995Y-62428929D01*
X77306788Y-62503273D01*
X77391654Y-62562256D01*
X77486360Y-62603632D01*
X77587299Y-62625825D01*
X77690627Y-62627989D01*
X77792406Y-62610043D01*
X77888762Y-62572669D01*
X77976024Y-62517291D01*
X78050867Y-62446019D01*
X78110441Y-62361567D01*
X78152477Y-62267152D01*
X78175374Y-62166370D01*
X78177023Y-62048325D01*
X78156949Y-61946943D01*
X78117565Y-61851391D01*
X78060372Y-61765309D01*
X78002000Y-61706528D01*
X78002000Y-61676827D01*
X78032074Y-61674429D01*
X78120396Y-61647078D01*
X78197601Y-61596203D01*
X78257577Y-61525833D01*
X78295573Y-61441541D01*
X78308582Y-61350000D01*
X78308582Y-58950000D01*
X80721418Y-58950000D01*
X80721418Y-61350000D01*
X80725571Y-61402074D01*
X80752922Y-61490396D01*
X80803797Y-61567601D01*
X80874167Y-61627577D01*
X80958459Y-61665573D01*
X81050000Y-61678582D01*
X81790000Y-61678582D01*
X81842074Y-61674429D01*
X81930396Y-61647078D01*
X82007601Y-61596203D01*
X82067577Y-61525833D01*
X82105573Y-61441541D01*
X82118582Y-61350000D01*
X82118582Y-58950000D01*
X82114429Y-58897926D01*
X82087078Y-58809604D01*
X82036203Y-58732399D01*
X81965833Y-58672423D01*
X81881541Y-58634427D01*
X81790000Y-58621418D01*
X81050000Y-58621418D01*
X80997926Y-58625571D01*
X80909604Y-58652922D01*
X80832399Y-58703797D01*
X80772423Y-58774167D01*
X80734427Y-58858459D01*
X80721418Y-58950000D01*
X78308582Y-58950000D01*
X78304429Y-58897926D01*
X78277078Y-58809604D01*
X78226203Y-58732399D01*
X78155833Y-58672423D01*
X78071541Y-58634427D01*
X77980000Y-58621418D01*
X77240000Y-58621418D01*
X77187926Y-58625571D01*
X77099604Y-58652922D01*
X77022399Y-58703797D01*
X76962423Y-58774167D01*
X76924427Y-58858459D01*
X76911418Y-58950000D01*
X74372082Y-58950000D01*
X74780082Y-58542000D01*
X75210000Y-58542000D01*
X75246074Y-58538463D01*
X75282109Y-58535310D01*
X75284087Y-58534735D01*
X75286140Y-58534534D01*
X75320839Y-58524058D01*
X75355576Y-58513966D01*
X75357404Y-58513019D01*
X75359380Y-58512422D01*
X75391348Y-58495424D01*
X75423499Y-58478759D01*
X75425113Y-58477471D01*
X75426929Y-58476505D01*
X75454967Y-58453638D01*
X75483289Y-58431029D01*
X75486156Y-58428202D01*
X75486217Y-58428152D01*
X75486264Y-58428095D01*
X75487186Y-58427186D01*
X76911418Y-57002954D01*
X76911418Y-57450000D01*
X76915571Y-57502074D01*
X76942922Y-57590396D01*
X76993797Y-57667601D01*
X77064167Y-57727577D01*
X77148459Y-57765573D01*
X77240000Y-57778582D01*
X77980000Y-57778582D01*
X78032074Y-57774429D01*
X78120396Y-57747078D01*
X78197601Y-57696203D01*
X78245563Y-57639930D01*
X78263797Y-57667601D01*
X78334167Y-57727577D01*
X78418459Y-57765573D01*
X78510000Y-57778582D01*
X79250000Y-57778582D01*
X79302074Y-57774429D01*
X79390396Y-57747078D01*
X79467601Y-57696203D01*
X79515563Y-57639930D01*
X79533797Y-57667601D01*
X79604167Y-57727577D01*
X79688459Y-57765573D01*
X79780000Y-57778582D01*
X80520000Y-57778582D01*
X80572074Y-57774429D01*
X80660396Y-57747078D01*
X80737601Y-57696203D01*
X80785563Y-57639930D01*
X80803797Y-57667601D01*
X80874167Y-57727577D01*
X80958459Y-57765573D01*
X81050000Y-57778582D01*
X81790000Y-57778582D01*
X81842074Y-57774429D01*
X81930396Y-57747078D01*
X82007601Y-57696203D01*
X82055563Y-57639930D01*
X82073797Y-57667601D01*
X82144167Y-57727577D01*
X82228459Y-57765573D01*
X82320000Y-57778582D01*
X83060000Y-57778582D01*
X83112074Y-57774429D01*
X83200396Y-57747078D01*
X83277601Y-57696203D01*
X83337577Y-57625833D01*
X83375573Y-57541541D01*
X83388582Y-57450000D01*
X83388582Y-55050000D01*
X83384429Y-54997926D01*
X83357078Y-54909604D01*
X83306203Y-54832399D01*
X83271121Y-54802499D01*
X83274783Y-54776730D01*
X83336360Y-54803632D01*
X83437299Y-54825825D01*
X83540627Y-54827989D01*
X83628783Y-54812445D01*
X83652922Y-54890396D01*
X83703797Y-54967601D01*
X83774167Y-55027577D01*
X83858459Y-55065573D01*
X83950000Y-55078582D01*
X84450000Y-55078582D01*
X84502074Y-55074429D01*
X84590396Y-55047078D01*
X84667601Y-54996203D01*
X84727577Y-54925833D01*
X84765573Y-54841541D01*
X84778582Y-54750000D01*
X84778582Y-53850000D01*
X84774429Y-53797926D01*
X84747078Y-53709604D01*
X84696203Y-53632399D01*
X84625833Y-53572423D01*
X84541541Y-53534427D01*
X84450000Y-53521418D01*
X83950000Y-53521418D01*
X83897926Y-53525571D01*
X83809604Y-53552922D01*
X83732399Y-53603797D01*
X83672423Y-53674167D01*
X83634427Y-53758459D01*
X83630129Y-53788700D01*
X83555353Y-53773351D01*
X83452006Y-53772629D01*
X83350486Y-53791995D01*
X83276345Y-53821950D01*
X83274429Y-53797926D01*
X83247078Y-53709604D01*
X83196203Y-53632399D01*
X83125833Y-53572423D01*
X83041541Y-53534427D01*
X82950000Y-53521418D01*
X82450000Y-53521418D01*
X82397926Y-53525571D01*
X82309604Y-53552922D01*
X82232399Y-53603797D01*
X82172423Y-53674167D01*
X82134427Y-53758459D01*
X82121418Y-53850000D01*
X82121418Y-54297046D01*
X81947186Y-54122814D01*
X81919191Y-54099819D01*
X81891467Y-54076556D01*
X81889660Y-54075563D01*
X81888067Y-54074254D01*
X81856139Y-54057134D01*
X81824425Y-54039699D01*
X81822462Y-54039076D01*
X81820643Y-54038101D01*
X81786004Y-54027511D01*
X81751501Y-54016566D01*
X81749451Y-54016336D01*
X81747482Y-54015734D01*
X81711469Y-54012076D01*
X81675473Y-54008038D01*
X81671447Y-54008010D01*
X81671368Y-54008002D01*
X81671294Y-54008009D01*
X81670000Y-54008000D01*
X77653462Y-54008000D01*
X77637548Y-53991975D01*
X77551867Y-53934182D01*
X77456592Y-53894132D01*
X77355353Y-53873351D01*
X77252006Y-53872629D01*
X77150486Y-53891995D01*
X77054662Y-53930711D01*
X76968182Y-53987302D01*
X76894341Y-54059612D01*
X76835952Y-54144887D01*
X76795238Y-54239880D01*
X76773750Y-54340972D01*
X76772307Y-54444312D01*
X76790964Y-54545964D01*
X76804493Y-54580133D01*
X74922814Y-56461812D01*
X74899819Y-56489807D01*
X74876556Y-56517531D01*
X74875563Y-56519338D01*
X74874254Y-56520931D01*
X74857134Y-56552859D01*
X74839699Y-56584573D01*
X74839076Y-56586536D01*
X74838101Y-56588355D01*
X74827511Y-56622994D01*
X74816566Y-56657497D01*
X74816336Y-56659547D01*
X74815734Y-56661516D01*
X74812076Y-56697529D01*
X74808038Y-56733525D01*
X74808010Y-56737551D01*
X74808002Y-56737630D01*
X74808009Y-56737704D01*
X74808000Y-56738998D01*
X74808000Y-57037628D01*
X72658312Y-59187316D01*
X70470684Y-59187316D01*
X70434610Y-59190853D01*
X70398575Y-59194006D01*
X70396597Y-59194581D01*
X70394544Y-59194782D01*
X70359858Y-59205254D01*
X70325107Y-59215350D01*
X70323278Y-59216298D01*
X70321304Y-59216894D01*
X70289315Y-59233903D01*
X70257185Y-59250558D01*
X70255575Y-59251843D01*
X70254962Y-59252169D01*
X70222691Y-59251944D01*
X70121171Y-59271310D01*
X70025347Y-59310026D01*
X69938867Y-59366617D01*
X69865026Y-59438927D01*
X69806637Y-59524202D01*
X69765923Y-59619195D01*
X69744435Y-59720287D01*
X69744065Y-59746764D01*
X69323682Y-59326381D01*
X69343335Y-59282239D01*
X69366232Y-59181457D01*
X69367881Y-59063412D01*
X69347807Y-58962030D01*
X69308423Y-58866478D01*
X69251230Y-58780396D01*
X69178406Y-58707062D01*
X69092725Y-58649269D01*
X68997450Y-58609219D01*
X68896211Y-58588438D01*
X68792864Y-58587716D01*
X68691344Y-58607082D01*
X68595520Y-58645798D01*
X68509040Y-58702389D01*
X68435199Y-58774699D01*
X68376810Y-58859974D01*
X68336096Y-58954967D01*
X68314608Y-59056059D01*
X68313165Y-59159399D01*
X68331822Y-59261051D01*
X68369868Y-59357143D01*
X68425853Y-59444016D01*
X68456983Y-59476252D01*
X68466800Y-59508768D01*
X68476892Y-59543505D01*
X68477839Y-59545333D01*
X68478436Y-59547309D01*
X68495434Y-59579277D01*
X68512099Y-59611428D01*
X68513387Y-59613042D01*
X68514353Y-59614858D01*
X68537220Y-59642896D01*
X68559829Y-59671218D01*
X68562656Y-59674085D01*
X68562706Y-59674146D01*
X68562763Y-59674193D01*
X68563672Y-59675115D01*
X70048072Y-61159515D01*
X70076067Y-61182510D01*
X70103791Y-61205773D01*
X70105598Y-61206766D01*
X70107191Y-61208075D01*
X70139119Y-61225195D01*
X70170833Y-61242630D01*
X70172796Y-61243253D01*
X70174615Y-61244228D01*
X70209254Y-61254818D01*
X70243757Y-61265763D01*
X70245807Y-61265993D01*
X70247776Y-61266595D01*
X70283789Y-61270253D01*
X70319785Y-61274291D01*
X70323811Y-61274319D01*
X70323890Y-61274327D01*
X70323964Y-61274320D01*
X70325258Y-61274329D01*
X71651903Y-61274329D01*
X71645238Y-61289880D01*
X71623750Y-61390972D01*
X71623312Y-61422316D01*
X71022325Y-62023303D01*
X70991541Y-62009427D01*
X70900000Y-61996418D01*
X70587419Y-61996418D01*
X69814427Y-61223425D01*
X69810736Y-61210720D01*
X69809340Y-61208027D01*
X69808463Y-61205122D01*
X69783435Y-61158051D01*
X69758913Y-61110743D01*
X69757021Y-61108373D01*
X69755596Y-61105693D01*
X69721914Y-61064395D01*
X69688657Y-61022735D01*
X69684492Y-61018512D01*
X69684422Y-61018426D01*
X69684342Y-61018360D01*
X69683000Y-61016999D01*
X68277000Y-59610998D01*
X68277000Y-58739002D01*
X68839001Y-58177000D01*
X72650000Y-58177000D01*
X72703043Y-58171799D01*
X72756140Y-58167153D01*
X72759051Y-58166307D01*
X72762073Y-58166011D01*
X72813123Y-58150598D01*
X72864280Y-58135736D01*
X72866973Y-58134340D01*
X72869878Y-58133463D01*
X72916949Y-58108435D01*
X72964257Y-58083913D01*
X72966627Y-58082021D01*
X72969307Y-58080596D01*
X73010605Y-58046914D01*
X73052265Y-58013657D01*
X73056492Y-58009489D01*
X73056574Y-58009422D01*
X73056636Y-58009347D01*
X73058001Y-58008001D01*
X74057929Y-57008072D01*
X74058001Y-57008001D01*
X74508001Y-56558001D01*
X74579478Y-56470983D01*
X74632692Y-56371738D01*
X74665617Y-56264049D01*
X74676996Y-56152014D01*
X74666399Y-56039903D01*
X74634227Y-55931986D01*
X74581707Y-55832373D01*
X74510839Y-55744858D01*
X74424322Y-55672774D01*
X74325452Y-55618869D01*
X74217994Y-55585194D01*
X74106042Y-55573031D01*
X73993860Y-55582847D01*
X73885720Y-55614264D01*
X73785743Y-55666087D01*
X73697735Y-55736343D01*
X73691999Y-55741999D01*
X73241999Y-56191999D01*
X73241994Y-56192005D01*
X72410998Y-57023000D01*
X68600000Y-57023000D01*
X68546957Y-57028201D01*
X68493860Y-57032847D01*
X68490949Y-57033693D01*
X68487927Y-57033989D01*
X68436877Y-57049402D01*
X68385720Y-57064264D01*
X68383027Y-57065660D01*
X68380122Y-57066537D01*
X68333051Y-57091565D01*
X68285743Y-57116087D01*
X68283373Y-57117979D01*
X68280693Y-57119404D01*
X68239395Y-57153086D01*
X68197735Y-57186343D01*
X68193512Y-57190508D01*
X68193426Y-57190578D01*
X68193360Y-57190658D01*
X68191999Y-57192000D01*
X67291999Y-58091999D01*
X67258144Y-58133215D01*
X67223910Y-58174014D01*
X67222450Y-58176670D01*
X67220522Y-58179017D01*
X67195306Y-58226044D01*
X67169659Y-58272696D01*
X67168743Y-58275584D01*
X67167307Y-58278262D01*
X67151701Y-58329307D01*
X67135609Y-58380035D01*
X67135271Y-58383045D01*
X67134383Y-58385951D01*
X67128997Y-58438982D01*
X67123056Y-58491944D01*
X67123015Y-58497880D01*
X67123004Y-58497986D01*
X67123013Y-58498085D01*
X67123000Y-58500000D01*
X67123000Y-59850000D01*
X67128201Y-59903043D01*
X67132847Y-59956140D01*
X67133693Y-59959051D01*
X67133989Y-59962073D01*
X67149402Y-60013123D01*
X67164264Y-60064280D01*
X67165660Y-60066973D01*
X67166537Y-60069878D01*
X67191565Y-60116949D01*
X67216087Y-60164257D01*
X67217979Y-60166627D01*
X67219404Y-60169307D01*
X67253086Y-60210605D01*
X67286343Y-60252265D01*
X67290511Y-60256492D01*
X67290578Y-60256574D01*
X67290653Y-60256636D01*
X67291999Y-60258001D01*
X68735573Y-61701574D01*
X68739264Y-61714280D01*
X68740660Y-61716973D01*
X68741537Y-61719878D01*
X68766565Y-61766949D01*
X68791087Y-61814257D01*
X68792979Y-61816627D01*
X68794404Y-61819307D01*
X68828086Y-61860605D01*
X68861343Y-61902265D01*
X68865511Y-61906492D01*
X68865578Y-61906574D01*
X68865653Y-61906636D01*
X68866999Y-61908001D01*
X69224208Y-62265210D01*
X69197736Y-62286342D01*
X69193512Y-62290508D01*
X69193426Y-62290578D01*
X69193360Y-62290658D01*
X69192000Y-62291999D01*
X68991999Y-62491999D01*
X68958144Y-62533215D01*
X68923910Y-62574014D01*
X68922450Y-62576670D01*
X68920522Y-62579017D01*
X68895306Y-62626044D01*
X68869659Y-62672696D01*
X68868743Y-62675584D01*
X68867307Y-62678262D01*
X68851701Y-62729307D01*
X68835609Y-62780035D01*
X68835271Y-62783045D01*
X68834383Y-62785951D01*
X68828997Y-62838982D01*
X68823056Y-62891944D01*
X68823015Y-62897880D01*
X68823004Y-62897986D01*
X68823013Y-62898085D01*
X68823000Y-62900000D01*
X68823000Y-64000000D01*
X68833989Y-64112073D01*
X68866537Y-64219878D01*
X68919404Y-64319307D01*
X68942401Y-64347504D01*
X68932635Y-64352697D01*
X68883426Y-64392831D01*
X68767752Y-64045103D01*
X68422927Y-63438102D01*
X67966769Y-62909637D01*
X67416652Y-62479839D01*
X66793531Y-62165078D01*
X66121140Y-61977343D01*
X65425089Y-61923784D01*
X64731892Y-62006443D01*
X64067952Y-62222171D01*
X63458558Y-62562749D01*
X62926922Y-63015207D01*
X62493293Y-63562310D01*
X62174190Y-64183218D01*
X61981765Y-64854283D01*
X61923349Y-65549943D01*
X57227000Y-65549943D01*
X57227000Y-64877000D01*
X59000000Y-64877000D01*
X59035381Y-64871972D01*
X59067961Y-64857286D01*
X59095160Y-64834105D01*
X59114823Y-64804264D01*
X59125395Y-64770127D01*
X59127000Y-64750000D01*
X59127000Y-62750000D01*
X59121972Y-62714619D01*
X59107286Y-62682039D01*
X59084105Y-62654840D01*
X59054264Y-62635177D01*
X59020127Y-62624605D01*
X59000000Y-62623000D01*
X57202000Y-62623000D01*
X57202000Y-59227000D01*
X59006063Y-59227000D01*
X59041444Y-59221972D01*
X59074024Y-59207286D01*
X59101223Y-59184105D01*
X59120886Y-59154264D01*
X59131458Y-59120127D01*
X59133063Y-59100330D01*
X59148554Y-53142000D01*
X60361757Y-53142000D01*
X60374167Y-53152577D01*
X60458459Y-53190573D01*
X60550000Y-53203582D01*
X61096418Y-53203582D01*
X61096418Y-53750000D01*
X61100571Y-53802074D01*
X61127922Y-53890396D01*
X61158000Y-53936041D01*
X61158000Y-56099325D01*
X61161533Y-56135355D01*
X61164690Y-56171434D01*
X61165265Y-56173412D01*
X61165466Y-56175465D01*
X61175942Y-56210164D01*
X61186034Y-56244901D01*
X61186981Y-56246729D01*
X61187578Y-56248705D01*
X61204576Y-56280673D01*
X61221241Y-56312824D01*
X61222529Y-56314438D01*
X61223495Y-56316254D01*
X61246362Y-56344292D01*
X61268971Y-56372614D01*
X61271798Y-56375481D01*
X61271848Y-56375542D01*
X61271905Y-56375589D01*
X61272814Y-56376511D01*
X61627540Y-56731237D01*
X61627297Y-56748627D01*
X61645954Y-56850279D01*
X61684000Y-56946371D01*
X61739985Y-57033244D01*
X61811778Y-57107588D01*
X61896644Y-57166571D01*
X61991350Y-57207947D01*
X62092289Y-57230140D01*
X62158000Y-57231516D01*
X62158000Y-58058629D01*
X62161537Y-58094703D01*
X62164690Y-58130738D01*
X62165265Y-58132716D01*
X62165466Y-58134769D01*
X62175942Y-58169468D01*
X62186034Y-58204205D01*
X62186981Y-58206033D01*
X62187578Y-58208009D01*
X62204576Y-58239977D01*
X62221241Y-58272128D01*
X62222529Y-58273742D01*
X62223495Y-58275558D01*
X62246362Y-58303596D01*
X62268971Y-58331918D01*
X62271798Y-58334785D01*
X62271848Y-58334846D01*
X62271905Y-58334893D01*
X62272814Y-58335815D01*
X62616152Y-58679153D01*
X62615909Y-58696543D01*
X62634566Y-58798195D01*
X62672612Y-58894287D01*
X62728597Y-58981160D01*
X62800390Y-59055504D01*
X62885256Y-59114487D01*
X62979962Y-59155863D01*
X63080901Y-59178056D01*
X63184229Y-59180220D01*
X63286008Y-59162274D01*
X63382364Y-59124900D01*
X63469626Y-59069522D01*
X63544469Y-58998250D01*
X63604043Y-58913798D01*
X63646079Y-58819383D01*
X63668976Y-58718601D01*
X63670625Y-58600556D01*
X63650551Y-58499174D01*
X63611167Y-58403622D01*
X63553974Y-58317540D01*
X63481150Y-58244206D01*
X63395469Y-58186413D01*
X63300194Y-58146363D01*
X63198955Y-58125582D01*
X63171131Y-58125388D01*
X63003043Y-57957300D01*
X63087299Y-57975825D01*
X63190627Y-57977989D01*
X63292406Y-57960043D01*
X63388762Y-57922669D01*
X63476024Y-57867291D01*
X63550867Y-57796019D01*
X63610441Y-57711567D01*
X63652477Y-57617152D01*
X63675374Y-57516370D01*
X63677023Y-57398325D01*
X63656949Y-57296943D01*
X63617565Y-57201391D01*
X63560372Y-57115309D01*
X63542000Y-57096808D01*
X63542000Y-55050000D01*
X63538463Y-55013926D01*
X63535310Y-54977891D01*
X63534735Y-54975913D01*
X63534534Y-54973860D01*
X63524062Y-54939174D01*
X63513966Y-54904423D01*
X63513018Y-54902594D01*
X63512422Y-54900620D01*
X63495413Y-54868631D01*
X63478758Y-54836501D01*
X63477473Y-54834891D01*
X63476505Y-54833071D01*
X63453616Y-54805005D01*
X63442000Y-54790454D01*
X63442000Y-54078582D01*
X63675000Y-54078582D01*
X63727074Y-54074429D01*
X63801782Y-54051294D01*
X63833459Y-54065573D01*
X63925000Y-54078582D01*
X64175000Y-54078582D01*
X64227074Y-54074429D01*
X64301782Y-54051294D01*
X64333459Y-54065573D01*
X64425000Y-54078582D01*
X64675000Y-54078582D01*
X64727074Y-54074429D01*
X64815396Y-54047078D01*
X64892601Y-53996203D01*
X64952577Y-53925833D01*
X64990573Y-53841541D01*
X65003582Y-53750000D01*
X65003582Y-53050000D01*
X64999429Y-52997926D01*
X64972078Y-52909604D01*
X64921203Y-52832399D01*
X64850833Y-52772423D01*
X64766541Y-52734427D01*
X64675000Y-52721418D01*
X64425000Y-52721418D01*
X64372926Y-52725571D01*
X64298218Y-52748706D01*
X64266541Y-52734427D01*
X64175000Y-52721418D01*
X63925000Y-52721418D01*
X63872926Y-52725571D01*
X63798218Y-52748706D01*
X63766541Y-52734427D01*
X63675000Y-52721418D01*
X63425000Y-52721418D01*
X63372926Y-52725571D01*
X63298218Y-52748706D01*
X63266541Y-52734427D01*
X63175000Y-52721418D01*
X62925000Y-52721418D01*
X62872926Y-52725571D01*
X62798218Y-52748706D01*
X62766541Y-52734427D01*
X62675000Y-52721418D01*
X62674227Y-52721418D01*
X62675374Y-52716370D01*
X62677023Y-52598325D01*
X62671904Y-52572474D01*
X62742406Y-52560043D01*
X62838762Y-52522669D01*
X62926024Y-52467291D01*
X63000867Y-52396019D01*
X63060441Y-52311567D01*
X63102477Y-52217152D01*
X63125374Y-52116370D01*
X63125903Y-52078469D01*
X64527185Y-50677187D01*
X64550180Y-50649192D01*
X64573443Y-50621468D01*
X64574436Y-50619661D01*
X64575745Y-50618068D01*
X64592865Y-50586140D01*
X64610300Y-50554426D01*
X64610923Y-50552463D01*
X64611898Y-50550644D01*
X64622488Y-50516005D01*
X64633433Y-50481502D01*
X64633663Y-50479452D01*
X64634265Y-50477483D01*
X64637923Y-50441470D01*
X64641961Y-50405474D01*
X64641989Y-50401448D01*
X64641997Y-50401369D01*
X64641990Y-50401295D01*
X64641999Y-50400001D01*
X64641999Y-49865322D01*
X64862813Y-49644508D01*
X64884995Y-49678929D01*
X64956788Y-49753273D01*
X65041654Y-49812256D01*
X65136360Y-49853632D01*
X65237299Y-49875825D01*
X65340627Y-49877989D01*
X65442406Y-49860043D01*
X65538762Y-49822669D01*
X65626024Y-49767291D01*
X65700867Y-49696019D01*
X65760441Y-49611567D01*
X65802477Y-49517152D01*
X65825374Y-49416370D01*
X65827023Y-49298325D01*
X65806949Y-49196943D01*
X65769338Y-49105694D01*
X66128043Y-48746989D01*
X66142448Y-48746989D01*
X66178522Y-48743452D01*
X66214557Y-48740299D01*
X66216535Y-48739724D01*
X66218588Y-48739523D01*
X66253287Y-48729047D01*
X66288024Y-48718955D01*
X66289852Y-48718008D01*
X66291828Y-48717411D01*
X66323796Y-48700413D01*
X66355947Y-48683748D01*
X66357561Y-48682460D01*
X66359377Y-48681494D01*
X66387415Y-48658627D01*
X66415737Y-48636018D01*
X66418604Y-48633191D01*
X66418665Y-48633141D01*
X66418712Y-48633084D01*
X66419634Y-48632175D01*
X66729820Y-48321989D01*
X67021418Y-48321989D01*
X67021418Y-48375000D01*
X67025571Y-48427074D01*
X67048706Y-48501782D01*
X67034427Y-48533459D01*
X67024558Y-48602905D01*
X66966022Y-48584785D01*
X66854028Y-48573014D01*
X66741881Y-48583220D01*
X66633852Y-48615015D01*
X66534056Y-48667187D01*
X66446294Y-48737749D01*
X66373910Y-48824014D01*
X66319659Y-48922696D01*
X66285609Y-49030035D01*
X66273056Y-49141944D01*
X66273000Y-49150000D01*
X66273000Y-50450000D01*
X66283989Y-50562073D01*
X66316537Y-50669878D01*
X66369404Y-50769307D01*
X66440578Y-50856574D01*
X66527346Y-50928355D01*
X66626404Y-50981915D01*
X66733978Y-51015215D01*
X66845972Y-51026986D01*
X66958119Y-51016780D01*
X67045396Y-50991093D01*
X67048706Y-51001782D01*
X67034427Y-51033459D01*
X67021418Y-51125000D01*
X67021418Y-51375000D01*
X67025571Y-51427074D01*
X67048706Y-51501782D01*
X67034427Y-51533459D01*
X67021418Y-51625000D01*
X67021418Y-51875000D01*
X67025571Y-51927074D01*
X67048706Y-52001782D01*
X67034427Y-52033459D01*
X67021418Y-52125000D01*
X67021418Y-52375000D01*
X67025571Y-52427074D01*
X67048706Y-52501782D01*
X67034427Y-52533459D01*
X67021418Y-52625000D01*
X67021418Y-52721418D01*
X66925000Y-52721418D01*
X66872926Y-52725571D01*
X66798218Y-52748706D01*
X66766541Y-52734427D01*
X66675000Y-52721418D01*
X66425000Y-52721418D01*
X66372926Y-52725571D01*
X66298218Y-52748706D01*
X66266541Y-52734427D01*
X66175000Y-52721418D01*
X65925000Y-52721418D01*
X65872926Y-52725571D01*
X65798218Y-52748706D01*
X65766541Y-52734427D01*
X65675000Y-52721418D01*
X65425000Y-52721418D01*
X65372926Y-52725571D01*
X65284604Y-52752922D01*
X65207399Y-52803797D01*
X65147423Y-52874167D01*
X65109427Y-52958459D01*
X65096418Y-53050000D01*
X65096418Y-53750000D01*
X65100571Y-53802074D01*
X65127922Y-53890396D01*
X65178797Y-53967601D01*
X65249167Y-54027577D01*
X65333459Y-54065573D01*
X65425000Y-54078582D01*
X65675000Y-54078582D01*
X65727074Y-54074429D01*
X65801782Y-54051294D01*
X65833459Y-54065573D01*
X65925000Y-54078582D01*
X66175000Y-54078582D01*
X66227074Y-54074429D01*
X66301782Y-54051294D01*
X66333459Y-54065573D01*
X66425000Y-54078582D01*
X66675000Y-54078582D01*
X66727074Y-54074429D01*
X66733282Y-54072506D01*
X66837418Y-54176642D01*
X66840964Y-54195964D01*
X66879010Y-54292056D01*
X66934995Y-54378929D01*
X67006788Y-54453273D01*
X67030596Y-54469820D01*
X67137418Y-54576642D01*
X67140964Y-54595964D01*
X67179010Y-54692056D01*
X67234995Y-54778929D01*
X67306788Y-54853273D01*
X67391654Y-54912256D01*
X67486360Y-54953632D01*
X67587299Y-54975825D01*
X67690627Y-54977989D01*
X67792406Y-54960043D01*
X67888762Y-54922669D01*
X67976024Y-54867291D01*
X68050867Y-54796019D01*
X68110441Y-54711567D01*
X68152477Y-54617152D01*
X68175374Y-54516370D01*
X68177023Y-54398325D01*
X68156949Y-54296943D01*
X68117565Y-54201391D01*
X68060372Y-54115309D01*
X67987548Y-54041975D01*
X67901867Y-53984182D01*
X67871713Y-53971506D01*
X67856949Y-53896943D01*
X67817565Y-53801391D01*
X67760372Y-53715309D01*
X67687548Y-53641975D01*
X67601867Y-53584182D01*
X67506592Y-53544132D01*
X67503582Y-53543514D01*
X67503582Y-53203582D01*
X68050000Y-53203582D01*
X68102074Y-53199429D01*
X68190396Y-53172078D01*
X68267601Y-53121203D01*
X68327577Y-53050833D01*
X68365573Y-52966541D01*
X68378582Y-52875000D01*
X68378582Y-52625000D01*
X68374429Y-52572926D01*
X68351294Y-52498218D01*
X68365573Y-52466541D01*
X68378582Y-52375000D01*
X68378582Y-52125000D01*
X68374429Y-52072926D01*
X68351294Y-51998218D01*
X68358301Y-51982673D01*
X68712999Y-52337371D01*
X68712999Y-54754999D01*
X68716536Y-54791073D01*
X68719689Y-54827108D01*
X68720264Y-54829086D01*
X68720465Y-54831139D01*
X68730941Y-54865838D01*
X68741033Y-54900575D01*
X68741980Y-54902403D01*
X68742577Y-54904379D01*
X68759575Y-54936347D01*
X68776240Y-54968498D01*
X68777528Y-54970112D01*
X68778494Y-54971928D01*
X68801361Y-54999966D01*
X68823970Y-55028288D01*
X68826797Y-55031155D01*
X68826847Y-55031216D01*
X68826904Y-55031263D01*
X68827813Y-55032185D01*
X68971418Y-55175790D01*
X68971418Y-55350000D01*
X68975571Y-55402074D01*
X69002922Y-55490396D01*
X69053797Y-55567601D01*
X69124167Y-55627577D01*
X69208459Y-55665573D01*
X69300000Y-55678582D01*
X70700000Y-55678582D01*
X70752074Y-55674429D01*
X70840396Y-55647078D01*
X70917601Y-55596203D01*
X70977577Y-55525833D01*
X71015573Y-55441541D01*
X71028582Y-55350000D01*
X71028582Y-54950000D01*
X71024429Y-54897926D01*
X70997078Y-54809604D01*
X70946203Y-54732399D01*
X70875833Y-54672423D01*
X70791541Y-54634427D01*
X70700000Y-54621418D01*
X69525790Y-54621418D01*
X69496999Y-54592627D01*
X69496999Y-53278582D01*
X70700000Y-53278582D01*
X70752074Y-53274429D01*
X70840396Y-53247078D01*
X70917601Y-53196203D01*
X70977577Y-53125833D01*
X71015573Y-53041541D01*
X71028582Y-52950000D01*
X71028582Y-52550000D01*
X71024429Y-52497926D01*
X70997078Y-52409604D01*
X70946203Y-52332399D01*
X70875833Y-52272423D01*
X70791541Y-52234427D01*
X70700000Y-52221418D01*
X69892000Y-52221418D01*
X69892000Y-52070000D01*
X69888463Y-52033926D01*
X69885310Y-51997891D01*
X69884735Y-51995913D01*
X69884534Y-51993860D01*
X69874058Y-51959161D01*
X69863966Y-51924424D01*
X69863019Y-51922596D01*
X69862422Y-51920620D01*
X69845424Y-51888652D01*
X69828759Y-51856501D01*
X69827471Y-51854887D01*
X69826505Y-51853071D01*
X69803638Y-51825033D01*
X69781029Y-51796711D01*
X69778202Y-51793844D01*
X69778152Y-51793783D01*
X69778095Y-51793736D01*
X69777186Y-51792814D01*
X68686372Y-50702000D01*
X69000000Y-50702000D01*
X69041518Y-50697929D01*
X69083146Y-50694287D01*
X69085428Y-50693624D01*
X69087794Y-50693392D01*
X69127764Y-50681324D01*
X69167858Y-50669676D01*
X69169968Y-50668582D01*
X69172244Y-50667895D01*
X69209097Y-50648299D01*
X69246177Y-50629079D01*
X69248036Y-50627595D01*
X69250133Y-50626480D01*
X69282463Y-50600113D01*
X69315119Y-50574044D01*
X69318424Y-50570784D01*
X69318495Y-50570726D01*
X69318550Y-50570660D01*
X69319612Y-50569612D01*
X69760642Y-50128582D01*
X70775000Y-50128582D01*
X70827074Y-50124429D01*
X70915396Y-50097078D01*
X70992601Y-50046203D01*
X71052577Y-49975833D01*
X71090573Y-49891541D01*
X71103582Y-49800000D01*
X71103582Y-48996999D01*
X72680997Y-48996999D01*
X73105417Y-49421418D01*
X72500000Y-49421418D01*
X72447926Y-49425571D01*
X72359604Y-49452922D01*
X72282399Y-49503797D01*
X72222423Y-49574167D01*
X72184427Y-49658459D01*
X72171418Y-49750000D01*
X72171418Y-50650000D01*
X72175571Y-50702074D01*
X72202922Y-50790396D01*
X72253797Y-50867601D01*
X72324167Y-50927577D01*
X72408459Y-50965573D01*
X72500000Y-50978582D01*
X73373000Y-50978582D01*
X73373000Y-51638868D01*
X73371418Y-51650000D01*
X73371418Y-52150000D01*
X73375571Y-52202074D01*
X73402922Y-52290396D01*
X73453797Y-52367601D01*
X73524167Y-52427577D01*
X73608459Y-52465573D01*
X73700000Y-52478582D01*
X74200000Y-52478582D01*
X74252074Y-52474429D01*
X74340396Y-52447078D01*
X74417601Y-52396203D01*
X74477577Y-52325833D01*
X74515573Y-52241541D01*
X74528582Y-52150000D01*
X74528582Y-51650000D01*
X74527000Y-51630163D01*
X74527000Y-50978582D01*
X75000000Y-50978582D01*
X75052074Y-50974429D01*
X75140396Y-50947078D01*
X75217601Y-50896203D01*
X75277577Y-50825833D01*
X75315573Y-50741541D01*
X75328582Y-50650000D01*
X75328582Y-49750000D01*
X75324429Y-49697926D01*
X75297078Y-49609604D01*
X75246203Y-49532399D01*
X75175833Y-49472423D01*
X75091541Y-49434427D01*
X75000000Y-49421418D01*
X74327000Y-49421418D01*
X74327000Y-49250000D01*
X74321798Y-49196943D01*
X74317154Y-49143861D01*
X74316307Y-49140946D01*
X74316011Y-49137927D01*
X74300603Y-49086893D01*
X74285736Y-49035721D01*
X74284341Y-49033029D01*
X74283463Y-49030122D01*
X74258414Y-48983012D01*
X74233913Y-48935744D01*
X74232022Y-48933376D01*
X74230596Y-48930693D01*
X74196901Y-48889379D01*
X74163658Y-48847736D01*
X74159492Y-48843512D01*
X74159422Y-48843426D01*
X74159342Y-48843360D01*
X74158001Y-48842000D01*
X73394584Y-48078582D01*
X75000000Y-48078582D01*
X75052074Y-48074429D01*
X75140396Y-48047078D01*
X75217601Y-47996203D01*
X75277577Y-47925833D01*
X75315573Y-47841541D01*
X75328582Y-47750000D01*
X75328582Y-46850000D01*
X75324429Y-46797926D01*
X75297078Y-46709604D01*
X75246203Y-46632399D01*
X75175833Y-46572423D01*
X75091541Y-46534427D01*
X75000000Y-46521418D01*
X73037420Y-46521418D01*
X72578582Y-46062580D01*
X72578582Y-45425000D01*
X72574429Y-45372926D01*
X72547078Y-45284604D01*
X72496203Y-45207399D01*
X72425833Y-45147423D01*
X72341541Y-45109427D01*
X72250000Y-45096418D01*
X71250000Y-45096418D01*
X71197926Y-45100571D01*
X71109604Y-45127922D01*
X71032399Y-45178797D01*
X70972423Y-45249167D01*
X70934427Y-45333459D01*
X70921418Y-45425000D01*
X70921418Y-46675000D01*
X70925246Y-46723000D01*
X69200000Y-46723000D01*
X69146913Y-46728205D01*
X69093860Y-46732847D01*
X69090949Y-46733693D01*
X69087927Y-46733989D01*
X69036877Y-46749402D01*
X68985720Y-46764264D01*
X68983027Y-46765660D01*
X68980122Y-46766537D01*
X68933012Y-46791586D01*
X68885743Y-46816088D01*
X68883376Y-46817977D01*
X68880693Y-46819404D01*
X68839368Y-46853109D01*
X68797735Y-46886343D01*
X68793512Y-46890508D01*
X68793426Y-46890578D01*
X68793360Y-46890658D01*
X68791999Y-46892000D01*
X68391999Y-47291999D01*
X68378582Y-47308333D01*
X68378582Y-47125000D01*
X68374429Y-47072926D01*
X68347078Y-46984604D01*
X68296203Y-46907399D01*
X68225833Y-46847423D01*
X68141541Y-46809427D01*
X68050000Y-46796418D01*
X67503582Y-46796418D01*
X67503582Y-46250000D01*
X67499429Y-46197926D01*
X67472078Y-46109604D01*
X67421203Y-46032399D01*
X67350833Y-45972423D01*
X67266541Y-45934427D01*
X67175000Y-45921418D01*
X66925000Y-45921418D01*
X66872926Y-45925571D01*
X66798218Y-45948706D01*
X66766541Y-45934427D01*
X66675000Y-45921418D01*
X66425000Y-45921418D01*
X66372926Y-45925571D01*
X66298218Y-45948706D01*
X66266541Y-45934427D01*
X66175000Y-45921418D01*
X65925000Y-45921418D01*
X65872926Y-45925571D01*
X65798218Y-45948706D01*
X65766541Y-45934427D01*
X65675000Y-45921418D01*
X65425000Y-45921418D01*
X65372926Y-45925571D01*
X65298218Y-45948706D01*
X65266541Y-45934427D01*
X65175000Y-45921418D01*
X64925000Y-45921418D01*
X64872926Y-45925571D01*
X64798218Y-45948706D01*
X64766541Y-45934427D01*
X64675000Y-45921418D01*
X64425000Y-45921418D01*
X64372926Y-45925571D01*
X64298218Y-45948706D01*
X64266541Y-45934427D01*
X64175000Y-45921418D01*
X63925000Y-45921418D01*
X63872926Y-45925571D01*
X63784604Y-45952922D01*
X63707399Y-46003797D01*
X63647423Y-46074167D01*
X63609427Y-46158459D01*
X63596418Y-46250000D01*
X63596418Y-46950000D01*
X63597056Y-46958000D01*
X63502445Y-46958000D01*
X63503582Y-46950000D01*
X63503582Y-46250000D01*
X63499429Y-46197926D01*
X63472078Y-46109604D01*
X63421203Y-46032399D01*
X63350833Y-45972423D01*
X63304474Y-45951526D01*
X63328359Y-45922654D01*
X63381919Y-45823596D01*
X63415219Y-45716022D01*
X63426990Y-45604028D01*
X63416784Y-45491881D01*
X63384989Y-45383852D01*
X63332817Y-45284056D01*
X63262255Y-45196294D01*
X63175990Y-45123910D01*
X63077308Y-45069659D01*
X62969969Y-45035609D01*
X62858060Y-45023056D01*
X62850004Y-45023000D01*
X62250000Y-45023000D01*
X62249959Y-45023004D01*
X59169661Y-45023004D01*
X59173941Y-43377000D01*
X76981559Y-43377000D01*
X79063004Y-43581087D01*
X79063004Y-43581087D01*
G37*
X79063004Y-43581087D02*
X81047420Y-44180218D01*
X82877679Y-45153384D01*
X84484056Y-46463514D01*
X85805368Y-48060706D01*
X86791286Y-49884122D01*
X87404257Y-51864311D01*
X87622801Y-53943620D01*
X87623000Y-54000742D01*
X87623000Y-76981559D01*
X87418913Y-79063004D01*
X86819782Y-81047420D01*
X85875690Y-82823000D01*
X72942000Y-82823000D01*
X72942000Y-82525923D01*
X73040627Y-82527989D01*
X73142406Y-82510043D01*
X73238762Y-82472669D01*
X73326024Y-82417291D01*
X73400867Y-82346019D01*
X73460441Y-82261567D01*
X73502477Y-82167152D01*
X73525374Y-82066370D01*
X73527023Y-81948325D01*
X73506949Y-81846943D01*
X73467565Y-81751391D01*
X73410372Y-81665309D01*
X73382964Y-81637709D01*
X73420001Y-81613303D01*
X73479977Y-81542933D01*
X73517973Y-81458641D01*
X73529916Y-81374600D01*
X73787043Y-81374600D01*
X73790964Y-81395964D01*
X73829010Y-81492056D01*
X73884995Y-81578929D01*
X73956788Y-81653273D01*
X74041654Y-81712256D01*
X74136360Y-81753632D01*
X74237299Y-81775825D01*
X74340627Y-81777989D01*
X74442406Y-81760043D01*
X74538762Y-81722669D01*
X74626024Y-81667291D01*
X74700867Y-81596019D01*
X74760441Y-81511567D01*
X74802477Y-81417152D01*
X74825374Y-81316370D01*
X74827023Y-81198325D01*
X74806949Y-81096943D01*
X74788074Y-81051150D01*
X74910642Y-80928582D01*
X75375000Y-80928582D01*
X75427074Y-80924429D01*
X75515396Y-80897078D01*
X75592601Y-80846203D01*
X75652577Y-80775833D01*
X75690573Y-80691541D01*
X75703582Y-80600000D01*
X75703582Y-79800000D01*
X75699429Y-79747926D01*
X75672078Y-79659604D01*
X75621203Y-79582399D01*
X75550833Y-79522423D01*
X75466541Y-79484427D01*
X75375000Y-79471418D01*
X74625000Y-79471418D01*
X74572926Y-79475571D01*
X74484604Y-79502922D01*
X74407399Y-79553797D01*
X74347423Y-79624167D01*
X74309427Y-79708459D01*
X74296418Y-79800000D01*
X74296418Y-80264358D01*
X74090176Y-80470600D01*
X73530384Y-80470600D01*
X73526829Y-80426026D01*
X73499478Y-80337704D01*
X73448603Y-80260499D01*
X73378233Y-80200523D01*
X73293941Y-80162527D01*
X73202400Y-80149518D01*
X72897600Y-80149518D01*
X72845526Y-80153671D01*
X72803302Y-80166747D01*
X72793941Y-80162527D01*
X72702400Y-80149518D01*
X72397600Y-80149518D01*
X72345526Y-80153671D01*
X72303302Y-80166747D01*
X72293941Y-80162527D01*
X72202400Y-80149518D01*
X71897600Y-80149518D01*
X71845526Y-80153671D01*
X71757204Y-80181022D01*
X71679999Y-80231897D01*
X71620023Y-80302267D01*
X71582027Y-80386559D01*
X71569018Y-80478100D01*
X71569018Y-81208000D01*
X71253462Y-81208000D01*
X71237548Y-81191975D01*
X71151867Y-81134182D01*
X71056592Y-81094132D01*
X70955353Y-81073351D01*
X70852006Y-81072629D01*
X70750486Y-81091995D01*
X70654662Y-81130711D01*
X70568182Y-81187302D01*
X70494341Y-81259612D01*
X70435952Y-81344887D01*
X70395238Y-81439880D01*
X70373750Y-81540972D01*
X70372307Y-81644312D01*
X70390964Y-81745964D01*
X70429010Y-81842056D01*
X70484995Y-81928929D01*
X70556788Y-82003273D01*
X70641654Y-82062256D01*
X70736360Y-82103632D01*
X70837299Y-82125825D01*
X70940627Y-82127989D01*
X71042406Y-82110043D01*
X71138762Y-82072669D01*
X71226024Y-82017291D01*
X71252582Y-81992000D01*
X71658000Y-81992000D01*
X71658000Y-82823000D01*
X60600000Y-82823000D01*
X60564619Y-82828028D01*
X60532039Y-82842714D01*
X60504840Y-82865895D01*
X60485177Y-82895736D01*
X60474605Y-82929873D01*
X60473000Y-82950000D01*
X60473000Y-87623000D01*
X58427000Y-87623000D01*
X58427000Y-78350000D01*
X58421972Y-78314619D01*
X58407286Y-78282039D01*
X58394921Y-78265626D01*
X57662133Y-77441239D01*
X70838737Y-77441239D01*
X70857394Y-77542891D01*
X70895440Y-77638983D01*
X70951425Y-77725856D01*
X70978048Y-77753425D01*
X70981120Y-77788539D01*
X70981695Y-77790517D01*
X70981896Y-77792570D01*
X70992372Y-77827269D01*
X71002464Y-77862006D01*
X71003411Y-77863834D01*
X71004008Y-77865810D01*
X71021006Y-77897778D01*
X71037671Y-77929929D01*
X71038959Y-77931543D01*
X71039925Y-77933359D01*
X71062792Y-77961397D01*
X71069018Y-77969196D01*
X71069018Y-78344500D01*
X71073171Y-78396574D01*
X71100522Y-78484896D01*
X71151397Y-78562101D01*
X71221767Y-78622077D01*
X71306059Y-78660073D01*
X71397600Y-78673082D01*
X71702400Y-78673082D01*
X71754474Y-78668929D01*
X71796698Y-78655853D01*
X71806059Y-78660073D01*
X71897600Y-78673082D01*
X72202400Y-78673082D01*
X72254474Y-78668929D01*
X72296698Y-78655853D01*
X72306059Y-78660073D01*
X72397600Y-78673082D01*
X72702400Y-78673082D01*
X72754474Y-78668929D01*
X72796698Y-78655853D01*
X72806059Y-78660073D01*
X72897600Y-78673082D01*
X73202400Y-78673082D01*
X73254474Y-78668929D01*
X73342796Y-78641578D01*
X73420001Y-78590703D01*
X73479977Y-78520333D01*
X73517973Y-78436041D01*
X73530982Y-78344500D01*
X73530982Y-77455500D01*
X73526829Y-77403426D01*
X73501082Y-77320285D01*
X73502477Y-77317152D01*
X73525374Y-77216370D01*
X73527023Y-77098325D01*
X73506949Y-76996943D01*
X73467565Y-76901391D01*
X73410372Y-76815309D01*
X73337548Y-76741975D01*
X73251867Y-76684182D01*
X73156592Y-76644132D01*
X73055353Y-76623351D01*
X72952006Y-76622629D01*
X72850486Y-76641995D01*
X72754662Y-76680711D01*
X72668182Y-76737302D01*
X72594341Y-76809612D01*
X72535952Y-76894887D01*
X72495238Y-76989880D01*
X72473750Y-77090972D01*
X72473248Y-77126918D01*
X72442000Y-77126918D01*
X72442000Y-77050000D01*
X72438463Y-77013926D01*
X72435310Y-76977891D01*
X72434735Y-76975913D01*
X72434534Y-76973860D01*
X72425679Y-76944530D01*
X72427023Y-76848325D01*
X72406949Y-76746943D01*
X72367565Y-76651391D01*
X72310372Y-76565309D01*
X72237548Y-76491975D01*
X72151867Y-76434182D01*
X72056592Y-76394132D01*
X71955353Y-76373351D01*
X71852006Y-76372629D01*
X71750486Y-76391995D01*
X71654662Y-76430711D01*
X71568182Y-76487302D01*
X71494341Y-76559612D01*
X71435952Y-76644887D01*
X71395238Y-76739880D01*
X71373750Y-76840972D01*
X71373346Y-76869940D01*
X71318436Y-76869556D01*
X71216916Y-76888922D01*
X71121092Y-76927638D01*
X71034612Y-76984229D01*
X70960771Y-77056539D01*
X70902382Y-77141814D01*
X70861668Y-77236807D01*
X70840180Y-77337899D01*
X70838737Y-77441239D01*
X57662133Y-77441239D01*
X57227000Y-76951715D01*
X57227000Y-74950000D01*
X72421418Y-74950000D01*
X72421418Y-75750000D01*
X72425571Y-75802074D01*
X72452922Y-75890396D01*
X72503797Y-75967601D01*
X72574167Y-76027577D01*
X72658459Y-76065573D01*
X72750000Y-76078582D01*
X73550000Y-76078582D01*
X73602074Y-76074429D01*
X73690396Y-76047078D01*
X73767601Y-75996203D01*
X73827577Y-75925833D01*
X73865573Y-75841541D01*
X73878582Y-75750000D01*
X73878582Y-74950000D01*
X74021418Y-74950000D01*
X74021418Y-75750000D01*
X74025571Y-75802074D01*
X74052922Y-75890396D01*
X74103797Y-75967601D01*
X74174167Y-76027577D01*
X74258459Y-76065573D01*
X74350000Y-76078582D01*
X75150000Y-76078582D01*
X75202074Y-76074429D01*
X75290396Y-76047078D01*
X75367601Y-75996203D01*
X75427577Y-75925833D01*
X75465573Y-75841541D01*
X75478582Y-75750000D01*
X75478582Y-75742000D01*
X75650000Y-75742000D01*
X75686074Y-75738463D01*
X75722109Y-75735310D01*
X75724087Y-75734735D01*
X75726140Y-75734534D01*
X75760839Y-75724058D01*
X75795576Y-75713966D01*
X75797404Y-75713019D01*
X75799380Y-75712422D01*
X75831348Y-75695424D01*
X75863499Y-75678759D01*
X75865113Y-75677471D01*
X75866929Y-75676505D01*
X75894967Y-75653638D01*
X75923289Y-75631029D01*
X75926156Y-75628202D01*
X75926217Y-75628152D01*
X75926264Y-75628095D01*
X75927186Y-75627186D01*
X76177701Y-75376671D01*
X76240627Y-75377989D01*
X76342406Y-75360043D01*
X76438762Y-75322669D01*
X76526024Y-75267291D01*
X76600867Y-75196019D01*
X76660441Y-75111567D01*
X76702477Y-75017152D01*
X76725374Y-74916370D01*
X76727023Y-74798325D01*
X76706949Y-74696943D01*
X76667565Y-74601391D01*
X76610372Y-74515309D01*
X76537548Y-74441975D01*
X76451867Y-74384182D01*
X76356592Y-74344132D01*
X76255353Y-74323351D01*
X76152006Y-74322629D01*
X76050486Y-74341995D01*
X75954662Y-74380711D01*
X75868182Y-74437302D01*
X75794341Y-74509612D01*
X75735952Y-74594887D01*
X75695238Y-74689880D01*
X75678904Y-74766724D01*
X75487628Y-74958000D01*
X75478582Y-74958000D01*
X75478582Y-74950000D01*
X75474429Y-74897926D01*
X75447078Y-74809604D01*
X75396203Y-74732399D01*
X75325833Y-74672423D01*
X75241541Y-74634427D01*
X75150000Y-74621418D01*
X74350000Y-74621418D01*
X74297926Y-74625571D01*
X74209604Y-74652922D01*
X74132399Y-74703797D01*
X74072423Y-74774167D01*
X74034427Y-74858459D01*
X74021418Y-74950000D01*
X73878582Y-74950000D01*
X73874429Y-74897926D01*
X73847078Y-74809604D01*
X73796203Y-74732399D01*
X73728203Y-74674443D01*
X73765573Y-74591541D01*
X73778582Y-74500000D01*
X73778582Y-73600000D01*
X73774429Y-73547926D01*
X73747078Y-73459604D01*
X73704054Y-73394312D01*
X81672307Y-73394312D01*
X81690964Y-73495964D01*
X81729010Y-73592056D01*
X81784995Y-73678929D01*
X81856788Y-73753273D01*
X81941654Y-73812256D01*
X82036360Y-73853632D01*
X82137299Y-73875825D01*
X82240627Y-73877989D01*
X82342406Y-73860043D01*
X82438762Y-73822669D01*
X82526024Y-73767291D01*
X82552582Y-73742000D01*
X83121418Y-73742000D01*
X83121418Y-73800000D01*
X83125571Y-73852074D01*
X83152922Y-73940396D01*
X83203797Y-74017601D01*
X83274167Y-74077577D01*
X83358459Y-74115573D01*
X83450000Y-74128582D01*
X85150000Y-74128582D01*
X85202074Y-74124429D01*
X85290396Y-74097078D01*
X85367601Y-74046203D01*
X85427577Y-73975833D01*
X85465573Y-73891541D01*
X85478582Y-73800000D01*
X85478582Y-72900000D01*
X85474429Y-72847926D01*
X85447078Y-72759604D01*
X85396203Y-72682399D01*
X85325833Y-72622423D01*
X85241541Y-72584427D01*
X85150000Y-72571418D01*
X83450000Y-72571418D01*
X83397926Y-72575571D01*
X83309604Y-72602922D01*
X83232399Y-72653797D01*
X83172423Y-72724167D01*
X83134427Y-72808459D01*
X83121418Y-72900000D01*
X83121418Y-72958000D01*
X82553462Y-72958000D01*
X82537548Y-72941975D01*
X82451867Y-72884182D01*
X82356592Y-72844132D01*
X82255353Y-72823351D01*
X82152006Y-72822629D01*
X82050486Y-72841995D01*
X81954662Y-72880711D01*
X81868182Y-72937302D01*
X81794341Y-73009612D01*
X81735952Y-73094887D01*
X81695238Y-73189880D01*
X81673750Y-73290972D01*
X81672307Y-73394312D01*
X73704054Y-73394312D01*
X73696203Y-73382399D01*
X73625833Y-73322423D01*
X73541541Y-73284427D01*
X73450000Y-73271418D01*
X72950000Y-73271418D01*
X72897926Y-73275571D01*
X72809604Y-73302922D01*
X72732399Y-73353797D01*
X72672423Y-73424167D01*
X72634427Y-73508459D01*
X72621418Y-73600000D01*
X72621418Y-74500000D01*
X72625571Y-74552074D01*
X72652671Y-74639585D01*
X72609604Y-74652922D01*
X72532399Y-74703797D01*
X72472423Y-74774167D01*
X72434427Y-74858459D01*
X72421418Y-74950000D01*
X57227000Y-74950000D01*
X57227000Y-70250138D01*
X58999867Y-70252000D01*
X59035253Y-70247009D01*
X59067848Y-70232357D01*
X59095071Y-70209205D01*
X59114766Y-70179385D01*
X59125374Y-70145259D01*
X59127000Y-70125000D01*
X59127000Y-68400000D01*
X59121972Y-68364619D01*
X59107286Y-68332039D01*
X59084105Y-68304840D01*
X59054264Y-68285177D01*
X59020127Y-68274605D01*
X59000000Y-68273000D01*
X57227000Y-68273000D01*
X57227000Y-65549943D01*
X61923349Y-65549943D01*
X62001166Y-66243700D01*
X62212253Y-66909130D01*
X62548569Y-67520887D01*
X62997304Y-68055669D01*
X63541366Y-68493106D01*
X64073727Y-68771418D01*
X63310000Y-68771418D01*
X63257926Y-68775571D01*
X63169604Y-68802922D01*
X63092399Y-68853797D01*
X63032423Y-68924167D01*
X62994427Y-69008459D01*
X62981418Y-69100000D01*
X62981418Y-72100000D01*
X62985571Y-72152074D01*
X63012922Y-72240396D01*
X63063797Y-72317601D01*
X63134167Y-72377577D01*
X63218459Y-72415573D01*
X63310000Y-72428582D01*
X63723509Y-72428582D01*
X63731241Y-72443499D01*
X63732529Y-72445113D01*
X63733495Y-72446929D01*
X63756362Y-72474967D01*
X63778971Y-72503289D01*
X63781798Y-72506156D01*
X63781848Y-72506217D01*
X63781905Y-72506264D01*
X63782814Y-72507186D01*
X64284079Y-73008451D01*
X64290964Y-73045964D01*
X64329010Y-73142056D01*
X64384995Y-73228929D01*
X64456788Y-73303273D01*
X64541654Y-73362256D01*
X64636360Y-73403632D01*
X64737299Y-73425825D01*
X64840627Y-73427989D01*
X64942406Y-73410043D01*
X65038762Y-73372669D01*
X65126024Y-73317291D01*
X65200867Y-73246019D01*
X65260441Y-73161567D01*
X65302477Y-73067152D01*
X65325374Y-72966370D01*
X65327023Y-72848325D01*
X65306949Y-72746943D01*
X65267565Y-72651391D01*
X65210372Y-72565309D01*
X65137548Y-72491975D01*
X65051867Y-72434182D01*
X64956592Y-72394132D01*
X64955276Y-72393862D01*
X65027601Y-72346203D01*
X65087577Y-72275833D01*
X65125573Y-72191541D01*
X65138582Y-72100000D01*
X65138582Y-69100000D01*
X65134429Y-69047926D01*
X65132340Y-69041180D01*
X65524702Y-69076888D01*
X65521418Y-69100000D01*
X65521418Y-72100000D01*
X65525571Y-72152074D01*
X65552922Y-72240396D01*
X65603797Y-72317601D01*
X65674167Y-72377577D01*
X65758459Y-72415573D01*
X65850000Y-72428582D01*
X66208000Y-72428582D01*
X66208000Y-72446236D01*
X66194341Y-72459612D01*
X66135952Y-72544887D01*
X66095238Y-72639880D01*
X66073750Y-72740972D01*
X66072307Y-72844312D01*
X66090964Y-72945964D01*
X66129010Y-73042056D01*
X66184995Y-73128929D01*
X66256788Y-73203273D01*
X66341654Y-73262256D01*
X66436360Y-73303632D01*
X66537299Y-73325825D01*
X66640627Y-73327989D01*
X66742406Y-73310043D01*
X66838762Y-73272669D01*
X66926024Y-73217291D01*
X67000867Y-73146019D01*
X67060441Y-73061567D01*
X67102477Y-72967152D01*
X67125374Y-72866370D01*
X67127023Y-72748325D01*
X67106949Y-72646943D01*
X67085256Y-72594312D01*
X76072307Y-72594312D01*
X76090964Y-72695964D01*
X76129010Y-72792056D01*
X76184995Y-72878929D01*
X76256788Y-72953273D01*
X76341654Y-73012256D01*
X76436360Y-73053632D01*
X76537299Y-73075825D01*
X76640627Y-73077989D01*
X76647509Y-73076776D01*
X76668499Y-73083434D01*
X76670549Y-73083664D01*
X76672518Y-73084266D01*
X76708531Y-73087924D01*
X76744527Y-73091962D01*
X76748553Y-73091990D01*
X76748632Y-73091998D01*
X76748706Y-73091991D01*
X76750000Y-73092000D01*
X77053979Y-73092000D01*
X77103797Y-73167601D01*
X77174167Y-73227577D01*
X77258459Y-73265573D01*
X77350000Y-73278582D01*
X78250000Y-73278582D01*
X78302074Y-73274429D01*
X78390396Y-73247078D01*
X78467601Y-73196203D01*
X78527577Y-73125833D01*
X78565573Y-73041541D01*
X78578582Y-72950000D01*
X78578582Y-72450000D01*
X78574429Y-72397926D01*
X78547078Y-72309604D01*
X78496203Y-72232399D01*
X78425833Y-72172423D01*
X78341541Y-72134427D01*
X78250000Y-72121418D01*
X77350000Y-72121418D01*
X77297926Y-72125571D01*
X77209604Y-72152922D01*
X77132399Y-72203797D01*
X77072423Y-72274167D01*
X77063148Y-72294743D01*
X77010372Y-72215309D01*
X76937548Y-72141975D01*
X76851867Y-72084182D01*
X76756592Y-72044132D01*
X76655353Y-72023351D01*
X76552006Y-72022629D01*
X76450486Y-72041995D01*
X76354662Y-72080711D01*
X76268182Y-72137302D01*
X76194341Y-72209612D01*
X76135952Y-72294887D01*
X76095238Y-72389880D01*
X76073750Y-72490972D01*
X76072307Y-72594312D01*
X67085256Y-72594312D01*
X67067565Y-72551391D01*
X67010372Y-72465309D01*
X66992000Y-72446808D01*
X66992000Y-72428582D01*
X67350000Y-72428582D01*
X67402074Y-72424429D01*
X67490396Y-72397078D01*
X67567601Y-72346203D01*
X67627577Y-72275833D01*
X67665573Y-72191541D01*
X67678582Y-72100000D01*
X67678582Y-70950000D01*
X77021418Y-70950000D01*
X77021418Y-71450000D01*
X77025571Y-71502074D01*
X77052922Y-71590396D01*
X77103797Y-71667601D01*
X77174167Y-71727577D01*
X77258459Y-71765573D01*
X77350000Y-71778582D01*
X78250000Y-71778582D01*
X78302074Y-71774429D01*
X78348768Y-71759969D01*
X78353797Y-71767601D01*
X78424167Y-71827577D01*
X78508459Y-71865573D01*
X78600000Y-71878582D01*
X79400000Y-71878582D01*
X79452074Y-71874429D01*
X79540396Y-71847078D01*
X79617601Y-71796203D01*
X79677577Y-71725833D01*
X79715573Y-71641541D01*
X79728582Y-71550000D01*
X79728582Y-70750000D01*
X79724429Y-70697926D01*
X79697078Y-70609604D01*
X79646203Y-70532399D01*
X79575833Y-70472423D01*
X79491541Y-70434427D01*
X79400000Y-70421418D01*
X78600000Y-70421418D01*
X78547926Y-70425571D01*
X78459604Y-70452922D01*
X78382399Y-70503797D01*
X78322423Y-70574167D01*
X78298046Y-70628246D01*
X78250000Y-70621418D01*
X77350000Y-70621418D01*
X77297926Y-70625571D01*
X77209604Y-70652922D01*
X77132399Y-70703797D01*
X77072423Y-70774167D01*
X77034427Y-70858459D01*
X77021418Y-70950000D01*
X67678582Y-70950000D01*
X67678582Y-70344312D01*
X82022307Y-70344312D01*
X82040964Y-70445964D01*
X82079010Y-70542056D01*
X82134995Y-70628929D01*
X82206788Y-70703273D01*
X82291654Y-70762256D01*
X82386360Y-70803632D01*
X82434128Y-70814134D01*
X82444635Y-70822951D01*
X82446715Y-70824095D01*
X82448554Y-70825605D01*
X82485382Y-70845352D01*
X82521938Y-70865449D01*
X82524202Y-70866167D01*
X82526298Y-70867291D01*
X82566200Y-70879490D01*
X82606024Y-70892123D01*
X82608390Y-70892388D01*
X82610659Y-70893082D01*
X82652142Y-70897296D01*
X82693689Y-70901956D01*
X82698337Y-70901988D01*
X82698422Y-70901997D01*
X82698501Y-70901990D01*
X82700000Y-70902000D01*
X83121578Y-70902000D01*
X83125571Y-70952074D01*
X83152922Y-71040396D01*
X83203797Y-71117601D01*
X83274167Y-71177577D01*
X83358459Y-71215573D01*
X83450000Y-71228582D01*
X85150000Y-71228582D01*
X85202074Y-71224429D01*
X85290396Y-71197078D01*
X85367601Y-71146203D01*
X85427577Y-71075833D01*
X85465573Y-70991541D01*
X85478582Y-70900000D01*
X85478582Y-70000000D01*
X85474429Y-69947926D01*
X85447078Y-69859604D01*
X85396203Y-69782399D01*
X85325833Y-69722423D01*
X85241541Y-69684427D01*
X85150000Y-69671418D01*
X83450000Y-69671418D01*
X83397926Y-69675571D01*
X83309604Y-69702922D01*
X83232399Y-69753797D01*
X83172423Y-69824167D01*
X83134427Y-69908459D01*
X83121702Y-69998000D01*
X82982092Y-69998000D01*
X82960372Y-69965309D01*
X82887548Y-69891975D01*
X82801867Y-69834182D01*
X82706592Y-69794132D01*
X82605353Y-69773351D01*
X82502006Y-69772629D01*
X82400486Y-69791995D01*
X82304662Y-69830711D01*
X82218182Y-69887302D01*
X82144341Y-69959612D01*
X82085952Y-70044887D01*
X82045238Y-70139880D01*
X82023750Y-70240972D01*
X82022307Y-70344312D01*
X67678582Y-70344312D01*
X67678582Y-69100000D01*
X67674429Y-69047926D01*
X67647078Y-68959604D01*
X67596203Y-68882399D01*
X67525833Y-68822423D01*
X67441541Y-68784427D01*
X67350000Y-68771418D01*
X66934388Y-68771418D01*
X67500233Y-68465467D01*
X68038135Y-68020477D01*
X68479359Y-67479482D01*
X68807101Y-66863089D01*
X68884238Y-66607601D01*
X68927114Y-66643579D01*
X69008693Y-66688428D01*
X69097429Y-66716576D01*
X69189943Y-66726954D01*
X69196603Y-66727000D01*
X69653397Y-66727000D01*
X69674733Y-66724908D01*
X69673046Y-66739943D01*
X69673000Y-66746603D01*
X69673000Y-67203397D01*
X69682084Y-67296047D01*
X69708992Y-67385168D01*
X69752697Y-67467365D01*
X69811535Y-67539508D01*
X69883265Y-67598848D01*
X69965155Y-67643126D01*
X70054086Y-67670654D01*
X70146670Y-67680385D01*
X70239381Y-67671948D01*
X70328687Y-67645664D01*
X70400457Y-67608144D01*
X70465155Y-67643126D01*
X70554086Y-67670654D01*
X70646670Y-67680385D01*
X70739381Y-67671948D01*
X70828687Y-67645664D01*
X70900457Y-67608144D01*
X70965155Y-67643126D01*
X71054086Y-67670654D01*
X71146670Y-67680385D01*
X71239381Y-67671948D01*
X71328687Y-67645664D01*
X71400457Y-67608144D01*
X71465155Y-67643126D01*
X71554086Y-67670654D01*
X71567714Y-67672086D01*
X72273325Y-68377697D01*
X72279010Y-68392056D01*
X72334995Y-68478929D01*
X72406788Y-68553273D01*
X72491654Y-68612256D01*
X72586360Y-68653632D01*
X72687299Y-68675825D01*
X72790627Y-68677989D01*
X72892406Y-68660043D01*
X72988762Y-68622669D01*
X73076024Y-68567291D01*
X73150867Y-68496019D01*
X73210441Y-68411567D01*
X73252477Y-68317152D01*
X73275374Y-68216370D01*
X73277023Y-68098325D01*
X73256949Y-67996943D01*
X73217565Y-67901391D01*
X73160372Y-67815309D01*
X73087548Y-67741975D01*
X73001867Y-67684182D01*
X72906592Y-67644132D01*
X72805353Y-67623351D01*
X72702006Y-67622629D01*
X72639017Y-67634645D01*
X72127000Y-67122628D01*
X72127000Y-66746603D01*
X72124908Y-66725267D01*
X72139943Y-66726954D01*
X72146603Y-66727000D01*
X72603397Y-66727000D01*
X72696047Y-66717916D01*
X72785168Y-66691008D01*
X72867365Y-66647303D01*
X72873867Y-66642000D01*
X73007628Y-66642000D01*
X73292814Y-66927186D01*
X73320804Y-66950177D01*
X73348533Y-66973444D01*
X73350340Y-66974438D01*
X73351932Y-66975745D01*
X73383827Y-66992847D01*
X73415575Y-67010301D01*
X73417540Y-67010924D01*
X73419356Y-67011898D01*
X73453964Y-67022479D01*
X73488499Y-67033434D01*
X73490549Y-67033664D01*
X73492518Y-67034266D01*
X73528536Y-67037925D01*
X73564527Y-67041962D01*
X73568552Y-67041990D01*
X73568631Y-67041998D01*
X73568705Y-67041991D01*
X73570000Y-67042000D01*
X74295902Y-67042000D01*
X74306788Y-67053273D01*
X74391654Y-67112256D01*
X74486360Y-67153632D01*
X74587299Y-67175825D01*
X74690627Y-67177989D01*
X74792406Y-67160043D01*
X74888762Y-67122669D01*
X74976024Y-67067291D01*
X75050867Y-66996019D01*
X75110441Y-66911567D01*
X75152477Y-66817152D01*
X75175374Y-66716370D01*
X75177023Y-66598325D01*
X75156949Y-66496943D01*
X75117565Y-66401391D01*
X75060372Y-66315309D01*
X74987548Y-66241975D01*
X74901867Y-66184182D01*
X74806592Y-66144132D01*
X74705353Y-66123351D01*
X74602006Y-66122629D01*
X74500486Y-66141995D01*
X74404662Y-66180711D01*
X74318182Y-66237302D01*
X74297046Y-66258000D01*
X73732372Y-66258000D01*
X73447186Y-65972814D01*
X73419191Y-65949819D01*
X73391467Y-65926556D01*
X73389660Y-65925563D01*
X73388067Y-65924254D01*
X73356139Y-65907134D01*
X73324425Y-65889699D01*
X73322462Y-65889076D01*
X73320643Y-65888101D01*
X73286004Y-65877511D01*
X73251501Y-65866566D01*
X73249451Y-65866336D01*
X73247482Y-65865734D01*
X73211469Y-65862076D01*
X73175473Y-65858038D01*
X73171447Y-65858010D01*
X73171368Y-65858002D01*
X73171294Y-65858009D01*
X73170000Y-65858000D01*
X73066913Y-65858000D01*
X73070654Y-65845914D01*
X73080385Y-65753330D01*
X73071948Y-65660619D01*
X73066468Y-65642000D01*
X73945655Y-65642000D01*
X73964881Y-65661909D01*
X74049747Y-65720892D01*
X74144453Y-65762268D01*
X74245392Y-65784461D01*
X74348720Y-65786625D01*
X74450499Y-65768679D01*
X74546855Y-65731305D01*
X74634117Y-65675927D01*
X74708960Y-65604655D01*
X74768534Y-65520203D01*
X74810570Y-65425788D01*
X74833467Y-65325006D01*
X74835116Y-65206961D01*
X74815042Y-65105579D01*
X74775658Y-65010027D01*
X74718465Y-64923945D01*
X74645641Y-64850611D01*
X74559960Y-64792818D01*
X74464685Y-64752768D01*
X74363446Y-64731987D01*
X74260099Y-64731265D01*
X74158579Y-64750631D01*
X74062755Y-64789347D01*
X73976275Y-64845938D01*
X73963958Y-64858000D01*
X72874768Y-64858000D01*
X72872886Y-64856421D01*
X72791307Y-64811572D01*
X72702571Y-64783424D01*
X72610057Y-64773046D01*
X72603397Y-64773000D01*
X72146603Y-64773000D01*
X72053953Y-64782084D01*
X71964832Y-64808992D01*
X71882635Y-64852697D01*
X71810492Y-64911535D01*
X71751152Y-64983265D01*
X71706874Y-65065155D01*
X71679346Y-65154086D01*
X71669615Y-65246670D01*
X71678052Y-65339381D01*
X71704336Y-65428687D01*
X71741856Y-65500457D01*
X71706874Y-65565155D01*
X71679346Y-65654086D01*
X71669615Y-65746670D01*
X71678052Y-65839381D01*
X71704336Y-65928687D01*
X71741856Y-66000457D01*
X71706874Y-66065155D01*
X71679346Y-66154086D01*
X71669615Y-66246670D01*
X71671881Y-66271565D01*
X71653330Y-66269615D01*
X71560619Y-66278052D01*
X71471313Y-66304336D01*
X71399543Y-66341856D01*
X71334845Y-66306874D01*
X71245914Y-66279346D01*
X71153330Y-66269615D01*
X71060619Y-66278052D01*
X70971313Y-66304336D01*
X70899543Y-66341856D01*
X70834845Y-66306874D01*
X70745914Y-66279346D01*
X70653330Y-66269615D01*
X70560619Y-66278052D01*
X70471313Y-66304336D01*
X70399543Y-66341856D01*
X70334845Y-66306874D01*
X70245914Y-66279346D01*
X70153330Y-66269615D01*
X70128435Y-66271881D01*
X70130385Y-66253330D01*
X70121948Y-66160619D01*
X70095664Y-66071313D01*
X70058144Y-65999543D01*
X70093126Y-65934845D01*
X70120654Y-65845914D01*
X70130385Y-65753330D01*
X70121948Y-65660619D01*
X70095664Y-65571313D01*
X70058144Y-65499543D01*
X70093126Y-65434845D01*
X70120654Y-65345914D01*
X70130385Y-65253330D01*
X70121948Y-65160619D01*
X70095664Y-65071313D01*
X70058144Y-64999543D01*
X70093126Y-64934845D01*
X70120654Y-64845914D01*
X70130385Y-64753330D01*
X70128119Y-64728435D01*
X70146670Y-64730385D01*
X70239381Y-64721948D01*
X70328687Y-64695664D01*
X70400457Y-64658144D01*
X70465155Y-64693126D01*
X70554086Y-64720654D01*
X70646670Y-64730385D01*
X70739381Y-64721948D01*
X70828687Y-64695664D01*
X70900457Y-64658144D01*
X70965155Y-64693126D01*
X71054086Y-64720654D01*
X71146670Y-64730385D01*
X71239381Y-64721948D01*
X71328687Y-64695664D01*
X71400457Y-64658144D01*
X71465155Y-64693126D01*
X71554086Y-64720654D01*
X71646670Y-64730385D01*
X71739381Y-64721948D01*
X71828687Y-64695664D01*
X71911188Y-64652534D01*
X71983739Y-64594200D01*
X72043579Y-64522886D01*
X72088428Y-64441307D01*
X72116576Y-64352571D01*
X72126954Y-64260057D01*
X72127000Y-64253397D01*
X72127000Y-63796603D01*
X72117916Y-63703953D01*
X72091008Y-63614832D01*
X72047303Y-63532635D01*
X71988465Y-63460492D01*
X71916735Y-63401152D01*
X71834845Y-63356874D01*
X71745914Y-63329346D01*
X71653330Y-63319615D01*
X71560619Y-63328052D01*
X71538230Y-63334641D01*
X71548444Y-63322469D01*
X71549438Y-63320662D01*
X71550745Y-63319070D01*
X71567847Y-63287175D01*
X71585301Y-63255427D01*
X71585924Y-63253462D01*
X71586898Y-63251646D01*
X71597483Y-63217025D01*
X71608434Y-63182503D01*
X71608664Y-63180455D01*
X71609266Y-63178485D01*
X71612925Y-63142461D01*
X71616962Y-63106475D01*
X71616990Y-63102450D01*
X71616998Y-63102371D01*
X71616991Y-63102297D01*
X71617000Y-63101002D01*
X71617000Y-62537372D01*
X72176675Y-61977697D01*
X72190627Y-61977989D01*
X72204487Y-61975545D01*
X72206539Y-61996472D01*
X72209692Y-62032507D01*
X72210267Y-62034485D01*
X72210468Y-62036538D01*
X72220944Y-62071237D01*
X72231036Y-62105974D01*
X72231983Y-62107802D01*
X72232580Y-62109778D01*
X72249578Y-62141746D01*
X72266243Y-62173897D01*
X72267531Y-62175511D01*
X72268497Y-62177327D01*
X72291364Y-62205365D01*
X72313973Y-62233687D01*
X72316800Y-62236554D01*
X72316850Y-62236615D01*
X72316907Y-62236662D01*
X72317816Y-62237584D01*
X76757418Y-66677186D01*
X76785408Y-66700177D01*
X76813137Y-66723444D01*
X76814944Y-66724438D01*
X76816536Y-66725745D01*
X76848431Y-66742847D01*
X76880179Y-66760301D01*
X76882144Y-66760924D01*
X76883960Y-66761898D01*
X76918568Y-66772479D01*
X76953103Y-66783434D01*
X76955153Y-66783664D01*
X76957122Y-66784266D01*
X76993140Y-66787925D01*
X77029131Y-66791962D01*
X77033156Y-66791990D01*
X77033235Y-66791998D01*
X77033309Y-66791991D01*
X77034604Y-66792000D01*
X83121418Y-66792000D01*
X83121418Y-66850000D01*
X83125571Y-66902074D01*
X83152922Y-66990396D01*
X83203797Y-67067601D01*
X83274167Y-67127577D01*
X83358459Y-67165573D01*
X83450000Y-67178582D01*
X85150000Y-67178582D01*
X85202074Y-67174429D01*
X85290396Y-67147078D01*
X85367601Y-67096203D01*
X85427577Y-67025833D01*
X85465573Y-66941541D01*
X85478582Y-66850000D01*
X85478582Y-65950000D01*
X85474429Y-65897926D01*
X85447078Y-65809604D01*
X85396203Y-65732399D01*
X85325833Y-65672423D01*
X85241541Y-65634427D01*
X85150000Y-65621418D01*
X83450000Y-65621418D01*
X83397926Y-65625571D01*
X83309604Y-65652922D01*
X83232399Y-65703797D01*
X83172423Y-65774167D01*
X83134427Y-65858459D01*
X83121418Y-65950000D01*
X83121418Y-66008000D01*
X78558154Y-66008000D01*
X78565573Y-65991541D01*
X78578582Y-65900000D01*
X78578582Y-65400000D01*
X78574429Y-65347926D01*
X78547078Y-65259604D01*
X78496203Y-65182399D01*
X78425833Y-65122423D01*
X78341541Y-65084427D01*
X78250000Y-65071418D01*
X77350000Y-65071418D01*
X77297926Y-65075571D01*
X77209604Y-65102922D01*
X77132399Y-65153797D01*
X77104810Y-65186167D01*
X77101867Y-65184182D01*
X77006592Y-65144132D01*
X76905353Y-65123351D01*
X76802006Y-65122629D01*
X76700486Y-65141995D01*
X76604662Y-65180711D01*
X76518182Y-65237302D01*
X76471749Y-65282773D01*
X75088976Y-63900000D01*
X77021418Y-63900000D01*
X77021418Y-64400000D01*
X77025571Y-64452074D01*
X77052922Y-64540396D01*
X77103797Y-64617601D01*
X77174167Y-64677577D01*
X77258459Y-64715573D01*
X77350000Y-64728582D01*
X78250000Y-64728582D01*
X78302074Y-64724429D01*
X78348768Y-64709969D01*
X78353797Y-64717601D01*
X78424167Y-64777577D01*
X78508459Y-64815573D01*
X78600000Y-64828582D01*
X79400000Y-64828582D01*
X79452074Y-64824429D01*
X79540396Y-64797078D01*
X79617601Y-64746203D01*
X79677577Y-64675833D01*
X79715573Y-64591541D01*
X79728582Y-64500000D01*
X79728582Y-63700000D01*
X79724429Y-63647926D01*
X79697078Y-63559604D01*
X79687002Y-63544312D01*
X82072307Y-63544312D01*
X82090964Y-63645964D01*
X82129010Y-63742056D01*
X82184995Y-63828929D01*
X82256788Y-63903273D01*
X82341654Y-63962256D01*
X82436360Y-64003632D01*
X82537299Y-64025825D01*
X82640627Y-64027989D01*
X82742406Y-64010043D01*
X82838762Y-63972669D01*
X82871331Y-63952000D01*
X83121578Y-63952000D01*
X83125571Y-64002074D01*
X83152922Y-64090396D01*
X83203797Y-64167601D01*
X83274167Y-64227577D01*
X83358459Y-64265573D01*
X83450000Y-64278582D01*
X85150000Y-64278582D01*
X85202074Y-64274429D01*
X85290396Y-64247078D01*
X85367601Y-64196203D01*
X85427577Y-64125833D01*
X85465573Y-64041541D01*
X85478582Y-63950000D01*
X85478582Y-63050000D01*
X85474429Y-62997926D01*
X85447078Y-62909604D01*
X85396203Y-62832399D01*
X85325833Y-62772423D01*
X85241541Y-62734427D01*
X85150000Y-62721418D01*
X83450000Y-62721418D01*
X83397926Y-62725571D01*
X83309604Y-62752922D01*
X83232399Y-62803797D01*
X83172423Y-62874167D01*
X83134427Y-62958459D01*
X83121702Y-63048000D01*
X82872353Y-63048000D01*
X82851867Y-63034182D01*
X82756592Y-62994132D01*
X82655353Y-62973351D01*
X82552006Y-62972629D01*
X82450486Y-62991995D01*
X82354662Y-63030711D01*
X82268182Y-63087302D01*
X82194341Y-63159612D01*
X82135952Y-63244887D01*
X82095238Y-63339880D01*
X82073750Y-63440972D01*
X82072307Y-63544312D01*
X79687002Y-63544312D01*
X79646203Y-63482399D01*
X79575833Y-63422423D01*
X79491541Y-63384427D01*
X79400000Y-63371418D01*
X78600000Y-63371418D01*
X78547926Y-63375571D01*
X78459604Y-63402922D01*
X78382399Y-63453797D01*
X78322423Y-63524167D01*
X78298046Y-63578246D01*
X78250000Y-63571418D01*
X77350000Y-63571418D01*
X77297926Y-63575571D01*
X77209604Y-63602922D01*
X77132399Y-63653797D01*
X77072423Y-63724167D01*
X77034427Y-63808459D01*
X77021418Y-63900000D01*
X75088976Y-63900000D01*
X72987002Y-61798026D01*
X72987002Y-61160398D01*
X72983465Y-61124324D01*
X72980312Y-61088289D01*
X72979737Y-61086311D01*
X72979536Y-61084258D01*
X72969060Y-61049559D01*
X72958968Y-61014822D01*
X72958021Y-61012994D01*
X72957424Y-61011018D01*
X72940426Y-60979050D01*
X72923761Y-60946899D01*
X72922473Y-60945285D01*
X72921507Y-60943469D01*
X72898640Y-60915431D01*
X72876031Y-60887109D01*
X72873204Y-60884242D01*
X72873154Y-60884181D01*
X72873097Y-60884134D01*
X72872188Y-60883212D01*
X72602479Y-60613503D01*
X72612503Y-60612626D01*
X72614481Y-60612051D01*
X72616534Y-60611850D01*
X72651233Y-60601374D01*
X72685970Y-60591282D01*
X72687798Y-60590335D01*
X72689774Y-60589738D01*
X72721742Y-60572740D01*
X72753893Y-60556075D01*
X72755507Y-60554787D01*
X72757323Y-60553821D01*
X72785361Y-60530954D01*
X72813683Y-60508345D01*
X72816550Y-60505518D01*
X72816611Y-60505468D01*
X72816658Y-60505411D01*
X72817580Y-60504502D01*
X74372082Y-58950000D01*
X76911418Y-58950000D01*
X76911418Y-61350000D01*
X76915571Y-61402074D01*
X76942922Y-61490396D01*
X76993797Y-61567601D01*
X77064167Y-61627577D01*
X77148459Y-61665573D01*
X77218000Y-61675456D01*
X77218000Y-61798082D01*
X77185952Y-61844887D01*
X77145238Y-61939880D01*
X77123750Y-62040972D01*
X77122307Y-62144312D01*
X77140964Y-62245964D01*
X77179010Y-62342056D01*
X77234995Y-62428929D01*
X77306788Y-62503273D01*
X77391654Y-62562256D01*
X77486360Y-62603632D01*
X77587299Y-62625825D01*
X77690627Y-62627989D01*
X77792406Y-62610043D01*
X77888762Y-62572669D01*
X77976024Y-62517291D01*
X78050867Y-62446019D01*
X78110441Y-62361567D01*
X78152477Y-62267152D01*
X78175374Y-62166370D01*
X78177023Y-62048325D01*
X78156949Y-61946943D01*
X78117565Y-61851391D01*
X78060372Y-61765309D01*
X78002000Y-61706528D01*
X78002000Y-61676827D01*
X78032074Y-61674429D01*
X78120396Y-61647078D01*
X78197601Y-61596203D01*
X78257577Y-61525833D01*
X78295573Y-61441541D01*
X78308582Y-61350000D01*
X78308582Y-58950000D01*
X80721418Y-58950000D01*
X80721418Y-61350000D01*
X80725571Y-61402074D01*
X80752922Y-61490396D01*
X80803797Y-61567601D01*
X80874167Y-61627577D01*
X80958459Y-61665573D01*
X81050000Y-61678582D01*
X81790000Y-61678582D01*
X81842074Y-61674429D01*
X81930396Y-61647078D01*
X82007601Y-61596203D01*
X82067577Y-61525833D01*
X82105573Y-61441541D01*
X82118582Y-61350000D01*
X82118582Y-58950000D01*
X82114429Y-58897926D01*
X82087078Y-58809604D01*
X82036203Y-58732399D01*
X81965833Y-58672423D01*
X81881541Y-58634427D01*
X81790000Y-58621418D01*
X81050000Y-58621418D01*
X80997926Y-58625571D01*
X80909604Y-58652922D01*
X80832399Y-58703797D01*
X80772423Y-58774167D01*
X80734427Y-58858459D01*
X80721418Y-58950000D01*
X78308582Y-58950000D01*
X78304429Y-58897926D01*
X78277078Y-58809604D01*
X78226203Y-58732399D01*
X78155833Y-58672423D01*
X78071541Y-58634427D01*
X77980000Y-58621418D01*
X77240000Y-58621418D01*
X77187926Y-58625571D01*
X77099604Y-58652922D01*
X77022399Y-58703797D01*
X76962423Y-58774167D01*
X76924427Y-58858459D01*
X76911418Y-58950000D01*
X74372082Y-58950000D01*
X74780082Y-58542000D01*
X75210000Y-58542000D01*
X75246074Y-58538463D01*
X75282109Y-58535310D01*
X75284087Y-58534735D01*
X75286140Y-58534534D01*
X75320839Y-58524058D01*
X75355576Y-58513966D01*
X75357404Y-58513019D01*
X75359380Y-58512422D01*
X75391348Y-58495424D01*
X75423499Y-58478759D01*
X75425113Y-58477471D01*
X75426929Y-58476505D01*
X75454967Y-58453638D01*
X75483289Y-58431029D01*
X75486156Y-58428202D01*
X75486217Y-58428152D01*
X75486264Y-58428095D01*
X75487186Y-58427186D01*
X76911418Y-57002954D01*
X76911418Y-57450000D01*
X76915571Y-57502074D01*
X76942922Y-57590396D01*
X76993797Y-57667601D01*
X77064167Y-57727577D01*
X77148459Y-57765573D01*
X77240000Y-57778582D01*
X77980000Y-57778582D01*
X78032074Y-57774429D01*
X78120396Y-57747078D01*
X78197601Y-57696203D01*
X78245563Y-57639930D01*
X78263797Y-57667601D01*
X78334167Y-57727577D01*
X78418459Y-57765573D01*
X78510000Y-57778582D01*
X79250000Y-57778582D01*
X79302074Y-57774429D01*
X79390396Y-57747078D01*
X79467601Y-57696203D01*
X79515563Y-57639930D01*
X79533797Y-57667601D01*
X79604167Y-57727577D01*
X79688459Y-57765573D01*
X79780000Y-57778582D01*
X80520000Y-57778582D01*
X80572074Y-57774429D01*
X80660396Y-57747078D01*
X80737601Y-57696203D01*
X80785563Y-57639930D01*
X80803797Y-57667601D01*
X80874167Y-57727577D01*
X80958459Y-57765573D01*
X81050000Y-57778582D01*
X81790000Y-57778582D01*
X81842074Y-57774429D01*
X81930396Y-57747078D01*
X82007601Y-57696203D01*
X82055563Y-57639930D01*
X82073797Y-57667601D01*
X82144167Y-57727577D01*
X82228459Y-57765573D01*
X82320000Y-57778582D01*
X83060000Y-57778582D01*
X83112074Y-57774429D01*
X83200396Y-57747078D01*
X83277601Y-57696203D01*
X83337577Y-57625833D01*
X83375573Y-57541541D01*
X83388582Y-57450000D01*
X83388582Y-55050000D01*
X83384429Y-54997926D01*
X83357078Y-54909604D01*
X83306203Y-54832399D01*
X83271121Y-54802499D01*
X83274783Y-54776730D01*
X83336360Y-54803632D01*
X83437299Y-54825825D01*
X83540627Y-54827989D01*
X83628783Y-54812445D01*
X83652922Y-54890396D01*
X83703797Y-54967601D01*
X83774167Y-55027577D01*
X83858459Y-55065573D01*
X83950000Y-55078582D01*
X84450000Y-55078582D01*
X84502074Y-55074429D01*
X84590396Y-55047078D01*
X84667601Y-54996203D01*
X84727577Y-54925833D01*
X84765573Y-54841541D01*
X84778582Y-54750000D01*
X84778582Y-53850000D01*
X84774429Y-53797926D01*
X84747078Y-53709604D01*
X84696203Y-53632399D01*
X84625833Y-53572423D01*
X84541541Y-53534427D01*
X84450000Y-53521418D01*
X83950000Y-53521418D01*
X83897926Y-53525571D01*
X83809604Y-53552922D01*
X83732399Y-53603797D01*
X83672423Y-53674167D01*
X83634427Y-53758459D01*
X83630129Y-53788700D01*
X83555353Y-53773351D01*
X83452006Y-53772629D01*
X83350486Y-53791995D01*
X83276345Y-53821950D01*
X83274429Y-53797926D01*
X83247078Y-53709604D01*
X83196203Y-53632399D01*
X83125833Y-53572423D01*
X83041541Y-53534427D01*
X82950000Y-53521418D01*
X82450000Y-53521418D01*
X82397926Y-53525571D01*
X82309604Y-53552922D01*
X82232399Y-53603797D01*
X82172423Y-53674167D01*
X82134427Y-53758459D01*
X82121418Y-53850000D01*
X82121418Y-54297046D01*
X81947186Y-54122814D01*
X81919191Y-54099819D01*
X81891467Y-54076556D01*
X81889660Y-54075563D01*
X81888067Y-54074254D01*
X81856139Y-54057134D01*
X81824425Y-54039699D01*
X81822462Y-54039076D01*
X81820643Y-54038101D01*
X81786004Y-54027511D01*
X81751501Y-54016566D01*
X81749451Y-54016336D01*
X81747482Y-54015734D01*
X81711469Y-54012076D01*
X81675473Y-54008038D01*
X81671447Y-54008010D01*
X81671368Y-54008002D01*
X81671294Y-54008009D01*
X81670000Y-54008000D01*
X77653462Y-54008000D01*
X77637548Y-53991975D01*
X77551867Y-53934182D01*
X77456592Y-53894132D01*
X77355353Y-53873351D01*
X77252006Y-53872629D01*
X77150486Y-53891995D01*
X77054662Y-53930711D01*
X76968182Y-53987302D01*
X76894341Y-54059612D01*
X76835952Y-54144887D01*
X76795238Y-54239880D01*
X76773750Y-54340972D01*
X76772307Y-54444312D01*
X76790964Y-54545964D01*
X76804493Y-54580133D01*
X74922814Y-56461812D01*
X74899819Y-56489807D01*
X74876556Y-56517531D01*
X74875563Y-56519338D01*
X74874254Y-56520931D01*
X74857134Y-56552859D01*
X74839699Y-56584573D01*
X74839076Y-56586536D01*
X74838101Y-56588355D01*
X74827511Y-56622994D01*
X74816566Y-56657497D01*
X74816336Y-56659547D01*
X74815734Y-56661516D01*
X74812076Y-56697529D01*
X74808038Y-56733525D01*
X74808010Y-56737551D01*
X74808002Y-56737630D01*
X74808009Y-56737704D01*
X74808000Y-56738998D01*
X74808000Y-57037628D01*
X72658312Y-59187316D01*
X70470684Y-59187316D01*
X70434610Y-59190853D01*
X70398575Y-59194006D01*
X70396597Y-59194581D01*
X70394544Y-59194782D01*
X70359858Y-59205254D01*
X70325107Y-59215350D01*
X70323278Y-59216298D01*
X70321304Y-59216894D01*
X70289315Y-59233903D01*
X70257185Y-59250558D01*
X70255575Y-59251843D01*
X70254962Y-59252169D01*
X70222691Y-59251944D01*
X70121171Y-59271310D01*
X70025347Y-59310026D01*
X69938867Y-59366617D01*
X69865026Y-59438927D01*
X69806637Y-59524202D01*
X69765923Y-59619195D01*
X69744435Y-59720287D01*
X69744065Y-59746764D01*
X69323682Y-59326381D01*
X69343335Y-59282239D01*
X69366232Y-59181457D01*
X69367881Y-59063412D01*
X69347807Y-58962030D01*
X69308423Y-58866478D01*
X69251230Y-58780396D01*
X69178406Y-58707062D01*
X69092725Y-58649269D01*
X68997450Y-58609219D01*
X68896211Y-58588438D01*
X68792864Y-58587716D01*
X68691344Y-58607082D01*
X68595520Y-58645798D01*
X68509040Y-58702389D01*
X68435199Y-58774699D01*
X68376810Y-58859974D01*
X68336096Y-58954967D01*
X68314608Y-59056059D01*
X68313165Y-59159399D01*
X68331822Y-59261051D01*
X68369868Y-59357143D01*
X68425853Y-59444016D01*
X68456983Y-59476252D01*
X68466800Y-59508768D01*
X68476892Y-59543505D01*
X68477839Y-59545333D01*
X68478436Y-59547309D01*
X68495434Y-59579277D01*
X68512099Y-59611428D01*
X68513387Y-59613042D01*
X68514353Y-59614858D01*
X68537220Y-59642896D01*
X68559829Y-59671218D01*
X68562656Y-59674085D01*
X68562706Y-59674146D01*
X68562763Y-59674193D01*
X68563672Y-59675115D01*
X70048072Y-61159515D01*
X70076067Y-61182510D01*
X70103791Y-61205773D01*
X70105598Y-61206766D01*
X70107191Y-61208075D01*
X70139119Y-61225195D01*
X70170833Y-61242630D01*
X70172796Y-61243253D01*
X70174615Y-61244228D01*
X70209254Y-61254818D01*
X70243757Y-61265763D01*
X70245807Y-61265993D01*
X70247776Y-61266595D01*
X70283789Y-61270253D01*
X70319785Y-61274291D01*
X70323811Y-61274319D01*
X70323890Y-61274327D01*
X70323964Y-61274320D01*
X70325258Y-61274329D01*
X71651903Y-61274329D01*
X71645238Y-61289880D01*
X71623750Y-61390972D01*
X71623312Y-61422316D01*
X71022325Y-62023303D01*
X70991541Y-62009427D01*
X70900000Y-61996418D01*
X70587419Y-61996418D01*
X69814427Y-61223425D01*
X69810736Y-61210720D01*
X69809340Y-61208027D01*
X69808463Y-61205122D01*
X69783435Y-61158051D01*
X69758913Y-61110743D01*
X69757021Y-61108373D01*
X69755596Y-61105693D01*
X69721914Y-61064395D01*
X69688657Y-61022735D01*
X69684492Y-61018512D01*
X69684422Y-61018426D01*
X69684342Y-61018360D01*
X69683000Y-61016999D01*
X68277000Y-59610998D01*
X68277000Y-58739002D01*
X68839001Y-58177000D01*
X72650000Y-58177000D01*
X72703043Y-58171799D01*
X72756140Y-58167153D01*
X72759051Y-58166307D01*
X72762073Y-58166011D01*
X72813123Y-58150598D01*
X72864280Y-58135736D01*
X72866973Y-58134340D01*
X72869878Y-58133463D01*
X72916949Y-58108435D01*
X72964257Y-58083913D01*
X72966627Y-58082021D01*
X72969307Y-58080596D01*
X73010605Y-58046914D01*
X73052265Y-58013657D01*
X73056492Y-58009489D01*
X73056574Y-58009422D01*
X73056636Y-58009347D01*
X73058001Y-58008001D01*
X74057929Y-57008072D01*
X74058001Y-57008001D01*
X74508001Y-56558001D01*
X74579478Y-56470983D01*
X74632692Y-56371738D01*
X74665617Y-56264049D01*
X74676996Y-56152014D01*
X74666399Y-56039903D01*
X74634227Y-55931986D01*
X74581707Y-55832373D01*
X74510839Y-55744858D01*
X74424322Y-55672774D01*
X74325452Y-55618869D01*
X74217994Y-55585194D01*
X74106042Y-55573031D01*
X73993860Y-55582847D01*
X73885720Y-55614264D01*
X73785743Y-55666087D01*
X73697735Y-55736343D01*
X73691999Y-55741999D01*
X73241999Y-56191999D01*
X73241994Y-56192005D01*
X72410998Y-57023000D01*
X68600000Y-57023000D01*
X68546957Y-57028201D01*
X68493860Y-57032847D01*
X68490949Y-57033693D01*
X68487927Y-57033989D01*
X68436877Y-57049402D01*
X68385720Y-57064264D01*
X68383027Y-57065660D01*
X68380122Y-57066537D01*
X68333051Y-57091565D01*
X68285743Y-57116087D01*
X68283373Y-57117979D01*
X68280693Y-57119404D01*
X68239395Y-57153086D01*
X68197735Y-57186343D01*
X68193512Y-57190508D01*
X68193426Y-57190578D01*
X68193360Y-57190658D01*
X68191999Y-57192000D01*
X67291999Y-58091999D01*
X67258144Y-58133215D01*
X67223910Y-58174014D01*
X67222450Y-58176670D01*
X67220522Y-58179017D01*
X67195306Y-58226044D01*
X67169659Y-58272696D01*
X67168743Y-58275584D01*
X67167307Y-58278262D01*
X67151701Y-58329307D01*
X67135609Y-58380035D01*
X67135271Y-58383045D01*
X67134383Y-58385951D01*
X67128997Y-58438982D01*
X67123056Y-58491944D01*
X67123015Y-58497880D01*
X67123004Y-58497986D01*
X67123013Y-58498085D01*
X67123000Y-58500000D01*
X67123000Y-59850000D01*
X67128201Y-59903043D01*
X67132847Y-59956140D01*
X67133693Y-59959051D01*
X67133989Y-59962073D01*
X67149402Y-60013123D01*
X67164264Y-60064280D01*
X67165660Y-60066973D01*
X67166537Y-60069878D01*
X67191565Y-60116949D01*
X67216087Y-60164257D01*
X67217979Y-60166627D01*
X67219404Y-60169307D01*
X67253086Y-60210605D01*
X67286343Y-60252265D01*
X67290511Y-60256492D01*
X67290578Y-60256574D01*
X67290653Y-60256636D01*
X67291999Y-60258001D01*
X68735573Y-61701574D01*
X68739264Y-61714280D01*
X68740660Y-61716973D01*
X68741537Y-61719878D01*
X68766565Y-61766949D01*
X68791087Y-61814257D01*
X68792979Y-61816627D01*
X68794404Y-61819307D01*
X68828086Y-61860605D01*
X68861343Y-61902265D01*
X68865511Y-61906492D01*
X68865578Y-61906574D01*
X68865653Y-61906636D01*
X68866999Y-61908001D01*
X69224208Y-62265210D01*
X69197736Y-62286342D01*
X69193512Y-62290508D01*
X69193426Y-62290578D01*
X69193360Y-62290658D01*
X69192000Y-62291999D01*
X68991999Y-62491999D01*
X68958144Y-62533215D01*
X68923910Y-62574014D01*
X68922450Y-62576670D01*
X68920522Y-62579017D01*
X68895306Y-62626044D01*
X68869659Y-62672696D01*
X68868743Y-62675584D01*
X68867307Y-62678262D01*
X68851701Y-62729307D01*
X68835609Y-62780035D01*
X68835271Y-62783045D01*
X68834383Y-62785951D01*
X68828997Y-62838982D01*
X68823056Y-62891944D01*
X68823015Y-62897880D01*
X68823004Y-62897986D01*
X68823013Y-62898085D01*
X68823000Y-62900000D01*
X68823000Y-64000000D01*
X68833989Y-64112073D01*
X68866537Y-64219878D01*
X68919404Y-64319307D01*
X68942401Y-64347504D01*
X68932635Y-64352697D01*
X68883426Y-64392831D01*
X68767752Y-64045103D01*
X68422927Y-63438102D01*
X67966769Y-62909637D01*
X67416652Y-62479839D01*
X66793531Y-62165078D01*
X66121140Y-61977343D01*
X65425089Y-61923784D01*
X64731892Y-62006443D01*
X64067952Y-62222171D01*
X63458558Y-62562749D01*
X62926922Y-63015207D01*
X62493293Y-63562310D01*
X62174190Y-64183218D01*
X61981765Y-64854283D01*
X61923349Y-65549943D01*
X57227000Y-65549943D01*
X57227000Y-64877000D01*
X59000000Y-64877000D01*
X59035381Y-64871972D01*
X59067961Y-64857286D01*
X59095160Y-64834105D01*
X59114823Y-64804264D01*
X59125395Y-64770127D01*
X59127000Y-64750000D01*
X59127000Y-62750000D01*
X59121972Y-62714619D01*
X59107286Y-62682039D01*
X59084105Y-62654840D01*
X59054264Y-62635177D01*
X59020127Y-62624605D01*
X59000000Y-62623000D01*
X57202000Y-62623000D01*
X57202000Y-59227000D01*
X59006063Y-59227000D01*
X59041444Y-59221972D01*
X59074024Y-59207286D01*
X59101223Y-59184105D01*
X59120886Y-59154264D01*
X59131458Y-59120127D01*
X59133063Y-59100330D01*
X59148554Y-53142000D01*
X60361757Y-53142000D01*
X60374167Y-53152577D01*
X60458459Y-53190573D01*
X60550000Y-53203582D01*
X61096418Y-53203582D01*
X61096418Y-53750000D01*
X61100571Y-53802074D01*
X61127922Y-53890396D01*
X61158000Y-53936041D01*
X61158000Y-56099325D01*
X61161533Y-56135355D01*
X61164690Y-56171434D01*
X61165265Y-56173412D01*
X61165466Y-56175465D01*
X61175942Y-56210164D01*
X61186034Y-56244901D01*
X61186981Y-56246729D01*
X61187578Y-56248705D01*
X61204576Y-56280673D01*
X61221241Y-56312824D01*
X61222529Y-56314438D01*
X61223495Y-56316254D01*
X61246362Y-56344292D01*
X61268971Y-56372614D01*
X61271798Y-56375481D01*
X61271848Y-56375542D01*
X61271905Y-56375589D01*
X61272814Y-56376511D01*
X61627540Y-56731237D01*
X61627297Y-56748627D01*
X61645954Y-56850279D01*
X61684000Y-56946371D01*
X61739985Y-57033244D01*
X61811778Y-57107588D01*
X61896644Y-57166571D01*
X61991350Y-57207947D01*
X62092289Y-57230140D01*
X62158000Y-57231516D01*
X62158000Y-58058629D01*
X62161537Y-58094703D01*
X62164690Y-58130738D01*
X62165265Y-58132716D01*
X62165466Y-58134769D01*
X62175942Y-58169468D01*
X62186034Y-58204205D01*
X62186981Y-58206033D01*
X62187578Y-58208009D01*
X62204576Y-58239977D01*
X62221241Y-58272128D01*
X62222529Y-58273742D01*
X62223495Y-58275558D01*
X62246362Y-58303596D01*
X62268971Y-58331918D01*
X62271798Y-58334785D01*
X62271848Y-58334846D01*
X62271905Y-58334893D01*
X62272814Y-58335815D01*
X62616152Y-58679153D01*
X62615909Y-58696543D01*
X62634566Y-58798195D01*
X62672612Y-58894287D01*
X62728597Y-58981160D01*
X62800390Y-59055504D01*
X62885256Y-59114487D01*
X62979962Y-59155863D01*
X63080901Y-59178056D01*
X63184229Y-59180220D01*
X63286008Y-59162274D01*
X63382364Y-59124900D01*
X63469626Y-59069522D01*
X63544469Y-58998250D01*
X63604043Y-58913798D01*
X63646079Y-58819383D01*
X63668976Y-58718601D01*
X63670625Y-58600556D01*
X63650551Y-58499174D01*
X63611167Y-58403622D01*
X63553974Y-58317540D01*
X63481150Y-58244206D01*
X63395469Y-58186413D01*
X63300194Y-58146363D01*
X63198955Y-58125582D01*
X63171131Y-58125388D01*
X63003043Y-57957300D01*
X63087299Y-57975825D01*
X63190627Y-57977989D01*
X63292406Y-57960043D01*
X63388762Y-57922669D01*
X63476024Y-57867291D01*
X63550867Y-57796019D01*
X63610441Y-57711567D01*
X63652477Y-57617152D01*
X63675374Y-57516370D01*
X63677023Y-57398325D01*
X63656949Y-57296943D01*
X63617565Y-57201391D01*
X63560372Y-57115309D01*
X63542000Y-57096808D01*
X63542000Y-55050000D01*
X63538463Y-55013926D01*
X63535310Y-54977891D01*
X63534735Y-54975913D01*
X63534534Y-54973860D01*
X63524062Y-54939174D01*
X63513966Y-54904423D01*
X63513018Y-54902594D01*
X63512422Y-54900620D01*
X63495413Y-54868631D01*
X63478758Y-54836501D01*
X63477473Y-54834891D01*
X63476505Y-54833071D01*
X63453616Y-54805005D01*
X63442000Y-54790454D01*
X63442000Y-54078582D01*
X63675000Y-54078582D01*
X63727074Y-54074429D01*
X63801782Y-54051294D01*
X63833459Y-54065573D01*
X63925000Y-54078582D01*
X64175000Y-54078582D01*
X64227074Y-54074429D01*
X64301782Y-54051294D01*
X64333459Y-54065573D01*
X64425000Y-54078582D01*
X64675000Y-54078582D01*
X64727074Y-54074429D01*
X64815396Y-54047078D01*
X64892601Y-53996203D01*
X64952577Y-53925833D01*
X64990573Y-53841541D01*
X65003582Y-53750000D01*
X65003582Y-53050000D01*
X64999429Y-52997926D01*
X64972078Y-52909604D01*
X64921203Y-52832399D01*
X64850833Y-52772423D01*
X64766541Y-52734427D01*
X64675000Y-52721418D01*
X64425000Y-52721418D01*
X64372926Y-52725571D01*
X64298218Y-52748706D01*
X64266541Y-52734427D01*
X64175000Y-52721418D01*
X63925000Y-52721418D01*
X63872926Y-52725571D01*
X63798218Y-52748706D01*
X63766541Y-52734427D01*
X63675000Y-52721418D01*
X63425000Y-52721418D01*
X63372926Y-52725571D01*
X63298218Y-52748706D01*
X63266541Y-52734427D01*
X63175000Y-52721418D01*
X62925000Y-52721418D01*
X62872926Y-52725571D01*
X62798218Y-52748706D01*
X62766541Y-52734427D01*
X62675000Y-52721418D01*
X62674227Y-52721418D01*
X62675374Y-52716370D01*
X62677023Y-52598325D01*
X62671904Y-52572474D01*
X62742406Y-52560043D01*
X62838762Y-52522669D01*
X62926024Y-52467291D01*
X63000867Y-52396019D01*
X63060441Y-52311567D01*
X63102477Y-52217152D01*
X63125374Y-52116370D01*
X63125903Y-52078469D01*
X64527185Y-50677187D01*
X64550180Y-50649192D01*
X64573443Y-50621468D01*
X64574436Y-50619661D01*
X64575745Y-50618068D01*
X64592865Y-50586140D01*
X64610300Y-50554426D01*
X64610923Y-50552463D01*
X64611898Y-50550644D01*
X64622488Y-50516005D01*
X64633433Y-50481502D01*
X64633663Y-50479452D01*
X64634265Y-50477483D01*
X64637923Y-50441470D01*
X64641961Y-50405474D01*
X64641989Y-50401448D01*
X64641997Y-50401369D01*
X64641990Y-50401295D01*
X64641999Y-50400001D01*
X64641999Y-49865322D01*
X64862813Y-49644508D01*
X64884995Y-49678929D01*
X64956788Y-49753273D01*
X65041654Y-49812256D01*
X65136360Y-49853632D01*
X65237299Y-49875825D01*
X65340627Y-49877989D01*
X65442406Y-49860043D01*
X65538762Y-49822669D01*
X65626024Y-49767291D01*
X65700867Y-49696019D01*
X65760441Y-49611567D01*
X65802477Y-49517152D01*
X65825374Y-49416370D01*
X65827023Y-49298325D01*
X65806949Y-49196943D01*
X65769338Y-49105694D01*
X66128043Y-48746989D01*
X66142448Y-48746989D01*
X66178522Y-48743452D01*
X66214557Y-48740299D01*
X66216535Y-48739724D01*
X66218588Y-48739523D01*
X66253287Y-48729047D01*
X66288024Y-48718955D01*
X66289852Y-48718008D01*
X66291828Y-48717411D01*
X66323796Y-48700413D01*
X66355947Y-48683748D01*
X66357561Y-48682460D01*
X66359377Y-48681494D01*
X66387415Y-48658627D01*
X66415737Y-48636018D01*
X66418604Y-48633191D01*
X66418665Y-48633141D01*
X66418712Y-48633084D01*
X66419634Y-48632175D01*
X66729820Y-48321989D01*
X67021418Y-48321989D01*
X67021418Y-48375000D01*
X67025571Y-48427074D01*
X67048706Y-48501782D01*
X67034427Y-48533459D01*
X67024558Y-48602905D01*
X66966022Y-48584785D01*
X66854028Y-48573014D01*
X66741881Y-48583220D01*
X66633852Y-48615015D01*
X66534056Y-48667187D01*
X66446294Y-48737749D01*
X66373910Y-48824014D01*
X66319659Y-48922696D01*
X66285609Y-49030035D01*
X66273056Y-49141944D01*
X66273000Y-49150000D01*
X66273000Y-50450000D01*
X66283989Y-50562073D01*
X66316537Y-50669878D01*
X66369404Y-50769307D01*
X66440578Y-50856574D01*
X66527346Y-50928355D01*
X66626404Y-50981915D01*
X66733978Y-51015215D01*
X66845972Y-51026986D01*
X66958119Y-51016780D01*
X67045396Y-50991093D01*
X67048706Y-51001782D01*
X67034427Y-51033459D01*
X67021418Y-51125000D01*
X67021418Y-51375000D01*
X67025571Y-51427074D01*
X67048706Y-51501782D01*
X67034427Y-51533459D01*
X67021418Y-51625000D01*
X67021418Y-51875000D01*
X67025571Y-51927074D01*
X67048706Y-52001782D01*
X67034427Y-52033459D01*
X67021418Y-52125000D01*
X67021418Y-52375000D01*
X67025571Y-52427074D01*
X67048706Y-52501782D01*
X67034427Y-52533459D01*
X67021418Y-52625000D01*
X67021418Y-52721418D01*
X66925000Y-52721418D01*
X66872926Y-52725571D01*
X66798218Y-52748706D01*
X66766541Y-52734427D01*
X66675000Y-52721418D01*
X66425000Y-52721418D01*
X66372926Y-52725571D01*
X66298218Y-52748706D01*
X66266541Y-52734427D01*
X66175000Y-52721418D01*
X65925000Y-52721418D01*
X65872926Y-52725571D01*
X65798218Y-52748706D01*
X65766541Y-52734427D01*
X65675000Y-52721418D01*
X65425000Y-52721418D01*
X65372926Y-52725571D01*
X65284604Y-52752922D01*
X65207399Y-52803797D01*
X65147423Y-52874167D01*
X65109427Y-52958459D01*
X65096418Y-53050000D01*
X65096418Y-53750000D01*
X65100571Y-53802074D01*
X65127922Y-53890396D01*
X65178797Y-53967601D01*
X65249167Y-54027577D01*
X65333459Y-54065573D01*
X65425000Y-54078582D01*
X65675000Y-54078582D01*
X65727074Y-54074429D01*
X65801782Y-54051294D01*
X65833459Y-54065573D01*
X65925000Y-54078582D01*
X66175000Y-54078582D01*
X66227074Y-54074429D01*
X66301782Y-54051294D01*
X66333459Y-54065573D01*
X66425000Y-54078582D01*
X66675000Y-54078582D01*
X66727074Y-54074429D01*
X66733282Y-54072506D01*
X66837418Y-54176642D01*
X66840964Y-54195964D01*
X66879010Y-54292056D01*
X66934995Y-54378929D01*
X67006788Y-54453273D01*
X67030596Y-54469820D01*
X67137418Y-54576642D01*
X67140964Y-54595964D01*
X67179010Y-54692056D01*
X67234995Y-54778929D01*
X67306788Y-54853273D01*
X67391654Y-54912256D01*
X67486360Y-54953632D01*
X67587299Y-54975825D01*
X67690627Y-54977989D01*
X67792406Y-54960043D01*
X67888762Y-54922669D01*
X67976024Y-54867291D01*
X68050867Y-54796019D01*
X68110441Y-54711567D01*
X68152477Y-54617152D01*
X68175374Y-54516370D01*
X68177023Y-54398325D01*
X68156949Y-54296943D01*
X68117565Y-54201391D01*
X68060372Y-54115309D01*
X67987548Y-54041975D01*
X67901867Y-53984182D01*
X67871713Y-53971506D01*
X67856949Y-53896943D01*
X67817565Y-53801391D01*
X67760372Y-53715309D01*
X67687548Y-53641975D01*
X67601867Y-53584182D01*
X67506592Y-53544132D01*
X67503582Y-53543514D01*
X67503582Y-53203582D01*
X68050000Y-53203582D01*
X68102074Y-53199429D01*
X68190396Y-53172078D01*
X68267601Y-53121203D01*
X68327577Y-53050833D01*
X68365573Y-52966541D01*
X68378582Y-52875000D01*
X68378582Y-52625000D01*
X68374429Y-52572926D01*
X68351294Y-52498218D01*
X68365573Y-52466541D01*
X68378582Y-52375000D01*
X68378582Y-52125000D01*
X68374429Y-52072926D01*
X68351294Y-51998218D01*
X68358301Y-51982673D01*
X68712999Y-52337371D01*
X68712999Y-54754999D01*
X68716536Y-54791073D01*
X68719689Y-54827108D01*
X68720264Y-54829086D01*
X68720465Y-54831139D01*
X68730941Y-54865838D01*
X68741033Y-54900575D01*
X68741980Y-54902403D01*
X68742577Y-54904379D01*
X68759575Y-54936347D01*
X68776240Y-54968498D01*
X68777528Y-54970112D01*
X68778494Y-54971928D01*
X68801361Y-54999966D01*
X68823970Y-55028288D01*
X68826797Y-55031155D01*
X68826847Y-55031216D01*
X68826904Y-55031263D01*
X68827813Y-55032185D01*
X68971418Y-55175790D01*
X68971418Y-55350000D01*
X68975571Y-55402074D01*
X69002922Y-55490396D01*
X69053797Y-55567601D01*
X69124167Y-55627577D01*
X69208459Y-55665573D01*
X69300000Y-55678582D01*
X70700000Y-55678582D01*
X70752074Y-55674429D01*
X70840396Y-55647078D01*
X70917601Y-55596203D01*
X70977577Y-55525833D01*
X71015573Y-55441541D01*
X71028582Y-55350000D01*
X71028582Y-54950000D01*
X71024429Y-54897926D01*
X70997078Y-54809604D01*
X70946203Y-54732399D01*
X70875833Y-54672423D01*
X70791541Y-54634427D01*
X70700000Y-54621418D01*
X69525790Y-54621418D01*
X69496999Y-54592627D01*
X69496999Y-53278582D01*
X70700000Y-53278582D01*
X70752074Y-53274429D01*
X70840396Y-53247078D01*
X70917601Y-53196203D01*
X70977577Y-53125833D01*
X71015573Y-53041541D01*
X71028582Y-52950000D01*
X71028582Y-52550000D01*
X71024429Y-52497926D01*
X70997078Y-52409604D01*
X70946203Y-52332399D01*
X70875833Y-52272423D01*
X70791541Y-52234427D01*
X70700000Y-52221418D01*
X69892000Y-52221418D01*
X69892000Y-52070000D01*
X69888463Y-52033926D01*
X69885310Y-51997891D01*
X69884735Y-51995913D01*
X69884534Y-51993860D01*
X69874058Y-51959161D01*
X69863966Y-51924424D01*
X69863019Y-51922596D01*
X69862422Y-51920620D01*
X69845424Y-51888652D01*
X69828759Y-51856501D01*
X69827471Y-51854887D01*
X69826505Y-51853071D01*
X69803638Y-51825033D01*
X69781029Y-51796711D01*
X69778202Y-51793844D01*
X69778152Y-51793783D01*
X69778095Y-51793736D01*
X69777186Y-51792814D01*
X68686372Y-50702000D01*
X69000000Y-50702000D01*
X69041518Y-50697929D01*
X69083146Y-50694287D01*
X69085428Y-50693624D01*
X69087794Y-50693392D01*
X69127764Y-50681324D01*
X69167858Y-50669676D01*
X69169968Y-50668582D01*
X69172244Y-50667895D01*
X69209097Y-50648299D01*
X69246177Y-50629079D01*
X69248036Y-50627595D01*
X69250133Y-50626480D01*
X69282463Y-50600113D01*
X69315119Y-50574044D01*
X69318424Y-50570784D01*
X69318495Y-50570726D01*
X69318550Y-50570660D01*
X69319612Y-50569612D01*
X69760642Y-50128582D01*
X70775000Y-50128582D01*
X70827074Y-50124429D01*
X70915396Y-50097078D01*
X70992601Y-50046203D01*
X71052577Y-49975833D01*
X71090573Y-49891541D01*
X71103582Y-49800000D01*
X71103582Y-48996999D01*
X72680997Y-48996999D01*
X73105417Y-49421418D01*
X72500000Y-49421418D01*
X72447926Y-49425571D01*
X72359604Y-49452922D01*
X72282399Y-49503797D01*
X72222423Y-49574167D01*
X72184427Y-49658459D01*
X72171418Y-49750000D01*
X72171418Y-50650000D01*
X72175571Y-50702074D01*
X72202922Y-50790396D01*
X72253797Y-50867601D01*
X72324167Y-50927577D01*
X72408459Y-50965573D01*
X72500000Y-50978582D01*
X73373000Y-50978582D01*
X73373000Y-51638868D01*
X73371418Y-51650000D01*
X73371418Y-52150000D01*
X73375571Y-52202074D01*
X73402922Y-52290396D01*
X73453797Y-52367601D01*
X73524167Y-52427577D01*
X73608459Y-52465573D01*
X73700000Y-52478582D01*
X74200000Y-52478582D01*
X74252074Y-52474429D01*
X74340396Y-52447078D01*
X74417601Y-52396203D01*
X74477577Y-52325833D01*
X74515573Y-52241541D01*
X74528582Y-52150000D01*
X74528582Y-51650000D01*
X74527000Y-51630163D01*
X74527000Y-50978582D01*
X75000000Y-50978582D01*
X75052074Y-50974429D01*
X75140396Y-50947078D01*
X75217601Y-50896203D01*
X75277577Y-50825833D01*
X75315573Y-50741541D01*
X75328582Y-50650000D01*
X75328582Y-49750000D01*
X75324429Y-49697926D01*
X75297078Y-49609604D01*
X75246203Y-49532399D01*
X75175833Y-49472423D01*
X75091541Y-49434427D01*
X75000000Y-49421418D01*
X74327000Y-49421418D01*
X74327000Y-49250000D01*
X74321798Y-49196943D01*
X74317154Y-49143861D01*
X74316307Y-49140946D01*
X74316011Y-49137927D01*
X74300603Y-49086893D01*
X74285736Y-49035721D01*
X74284341Y-49033029D01*
X74283463Y-49030122D01*
X74258414Y-48983012D01*
X74233913Y-48935744D01*
X74232022Y-48933376D01*
X74230596Y-48930693D01*
X74196901Y-48889379D01*
X74163658Y-48847736D01*
X74159492Y-48843512D01*
X74159422Y-48843426D01*
X74159342Y-48843360D01*
X74158001Y-48842000D01*
X73394584Y-48078582D01*
X75000000Y-48078582D01*
X75052074Y-48074429D01*
X75140396Y-48047078D01*
X75217601Y-47996203D01*
X75277577Y-47925833D01*
X75315573Y-47841541D01*
X75328582Y-47750000D01*
X75328582Y-46850000D01*
X75324429Y-46797926D01*
X75297078Y-46709604D01*
X75246203Y-46632399D01*
X75175833Y-46572423D01*
X75091541Y-46534427D01*
X75000000Y-46521418D01*
X73037420Y-46521418D01*
X72578582Y-46062580D01*
X72578582Y-45425000D01*
X72574429Y-45372926D01*
X72547078Y-45284604D01*
X72496203Y-45207399D01*
X72425833Y-45147423D01*
X72341541Y-45109427D01*
X72250000Y-45096418D01*
X71250000Y-45096418D01*
X71197926Y-45100571D01*
X71109604Y-45127922D01*
X71032399Y-45178797D01*
X70972423Y-45249167D01*
X70934427Y-45333459D01*
X70921418Y-45425000D01*
X70921418Y-46675000D01*
X70925246Y-46723000D01*
X69200000Y-46723000D01*
X69146913Y-46728205D01*
X69093860Y-46732847D01*
X69090949Y-46733693D01*
X69087927Y-46733989D01*
X69036877Y-46749402D01*
X68985720Y-46764264D01*
X68983027Y-46765660D01*
X68980122Y-46766537D01*
X68933012Y-46791586D01*
X68885743Y-46816088D01*
X68883376Y-46817977D01*
X68880693Y-46819404D01*
X68839368Y-46853109D01*
X68797735Y-46886343D01*
X68793512Y-46890508D01*
X68793426Y-46890578D01*
X68793360Y-46890658D01*
X68791999Y-46892000D01*
X68391999Y-47291999D01*
X68378582Y-47308333D01*
X68378582Y-47125000D01*
X68374429Y-47072926D01*
X68347078Y-46984604D01*
X68296203Y-46907399D01*
X68225833Y-46847423D01*
X68141541Y-46809427D01*
X68050000Y-46796418D01*
X67503582Y-46796418D01*
X67503582Y-46250000D01*
X67499429Y-46197926D01*
X67472078Y-46109604D01*
X67421203Y-46032399D01*
X67350833Y-45972423D01*
X67266541Y-45934427D01*
X67175000Y-45921418D01*
X66925000Y-45921418D01*
X66872926Y-45925571D01*
X66798218Y-45948706D01*
X66766541Y-45934427D01*
X66675000Y-45921418D01*
X66425000Y-45921418D01*
X66372926Y-45925571D01*
X66298218Y-45948706D01*
X66266541Y-45934427D01*
X66175000Y-45921418D01*
X65925000Y-45921418D01*
X65872926Y-45925571D01*
X65798218Y-45948706D01*
X65766541Y-45934427D01*
X65675000Y-45921418D01*
X65425000Y-45921418D01*
X65372926Y-45925571D01*
X65298218Y-45948706D01*
X65266541Y-45934427D01*
X65175000Y-45921418D01*
X64925000Y-45921418D01*
X64872926Y-45925571D01*
X64798218Y-45948706D01*
X64766541Y-45934427D01*
X64675000Y-45921418D01*
X64425000Y-45921418D01*
X64372926Y-45925571D01*
X64298218Y-45948706D01*
X64266541Y-45934427D01*
X64175000Y-45921418D01*
X63925000Y-45921418D01*
X63872926Y-45925571D01*
X63784604Y-45952922D01*
X63707399Y-46003797D01*
X63647423Y-46074167D01*
X63609427Y-46158459D01*
X63596418Y-46250000D01*
X63596418Y-46950000D01*
X63597056Y-46958000D01*
X63502445Y-46958000D01*
X63503582Y-46950000D01*
X63503582Y-46250000D01*
X63499429Y-46197926D01*
X63472078Y-46109604D01*
X63421203Y-46032399D01*
X63350833Y-45972423D01*
X63304474Y-45951526D01*
X63328359Y-45922654D01*
X63381919Y-45823596D01*
X63415219Y-45716022D01*
X63426990Y-45604028D01*
X63416784Y-45491881D01*
X63384989Y-45383852D01*
X63332817Y-45284056D01*
X63262255Y-45196294D01*
X63175990Y-45123910D01*
X63077308Y-45069659D01*
X62969969Y-45035609D01*
X62858060Y-45023056D01*
X62850004Y-45023000D01*
X62250000Y-45023000D01*
X62249959Y-45023004D01*
X59169661Y-45023004D01*
X59173941Y-43377000D01*
X76981559Y-43377000D01*
X79063004Y-43581087D01*
G36*
X56048000Y-73448000D02*
X49527000Y-73448000D01*
X49527000Y-70477000D01*
X51850000Y-70477000D01*
X51885381Y-70471972D01*
X51917961Y-70457286D01*
X51945160Y-70434105D01*
X51964823Y-70404264D01*
X51975395Y-70370127D01*
X51977000Y-70350000D01*
X51977000Y-69227000D01*
X56048000Y-69227000D01*
X56048000Y-73448000D01*
X56048000Y-73448000D01*
G37*
X56048000Y-73448000D02*
X49527000Y-73448000D01*
X49527000Y-70477000D01*
X51850000Y-70477000D01*
X51885381Y-70471972D01*
X51917961Y-70457286D01*
X51945160Y-70434105D01*
X51964823Y-70404264D01*
X51975395Y-70370127D01*
X51977000Y-70350000D01*
X51977000Y-69227000D01*
X56048000Y-69227000D01*
X56048000Y-73448000D01*
G36*
X56023000Y-67823000D02*
X49527372Y-67823000D01*
X49527000Y-67822628D01*
X49527000Y-64827000D01*
X51850000Y-64827000D01*
X51885381Y-64821972D01*
X51917961Y-64807286D01*
X51945160Y-64784105D01*
X51964823Y-64754264D01*
X51975395Y-64720127D01*
X51977000Y-64700000D01*
X51977000Y-63627000D01*
X56023000Y-63627000D01*
X56023000Y-67823000D01*
X56023000Y-67823000D01*
G37*
X56023000Y-67823000D02*
X49527372Y-67823000D01*
X49527000Y-67822628D01*
X49527000Y-64827000D01*
X51850000Y-64827000D01*
X51885381Y-64821972D01*
X51917961Y-64807286D01*
X51945160Y-64784105D01*
X51964823Y-64754264D01*
X51975395Y-64720127D01*
X51977000Y-64700000D01*
X51977000Y-63627000D01*
X56023000Y-63627000D01*
X56023000Y-67823000D01*
G36*
X53436360Y-58033634D02*
X53537299Y-58055827D01*
X53640627Y-58057991D01*
X53742406Y-58040045D01*
X53776038Y-58027000D01*
X56023000Y-58027000D01*
X56023000Y-62173923D01*
X49427000Y-62222069D01*
X49427000Y-59227000D01*
X51850000Y-59227000D01*
X51885381Y-59221972D01*
X51917961Y-59207286D01*
X51945160Y-59184105D01*
X51964823Y-59154264D01*
X51975395Y-59120127D01*
X51977000Y-59100000D01*
X51977000Y-58027000D01*
X53421175Y-58027000D01*
X53436360Y-58033634D01*
X53436360Y-58033634D01*
G37*
X53436360Y-58033634D02*
X53537299Y-58055827D01*
X53640627Y-58057991D01*
X53742406Y-58040045D01*
X53776038Y-58027000D01*
X56023000Y-58027000D01*
X56023000Y-62173923D01*
X49427000Y-62222069D01*
X49427000Y-59227000D01*
X51850000Y-59227000D01*
X51885381Y-59221972D01*
X51917961Y-59207286D01*
X51945160Y-59184105D01*
X51964823Y-59154264D01*
X51975395Y-59120127D01*
X51977000Y-59100000D01*
X51977000Y-58027000D01*
X53421175Y-58027000D01*
X53436360Y-58033634D01*
G36*
X71373000Y-87623000D02*
X69927000Y-87623000D01*
X69927000Y-84227000D01*
X71373000Y-84227000D01*
X71373000Y-87623000D01*
X71373000Y-87623000D01*
G37*
X71373000Y-87623000D02*
X69927000Y-87623000D01*
X69927000Y-84227000D01*
X71373000Y-84227000D01*
X71373000Y-87623000D01*
G36*
X73973000Y-87623000D02*
X72477000Y-87623000D01*
X72477000Y-84227000D01*
X73973000Y-84227000D01*
X73973000Y-87623000D01*
X73973000Y-87623000D01*
G37*
X73973000Y-87623000D02*
X72477000Y-87623000D01*
X72477000Y-84227000D01*
X73973000Y-84227000D01*
X73973000Y-87623000D01*
G36*
X63223000Y-87623000D02*
X61777000Y-87623000D01*
X61777000Y-84177000D01*
X63223000Y-84177000D01*
X63223000Y-87623000D01*
X63223000Y-87623000D01*
G37*
X63223000Y-87623000D02*
X61777000Y-87623000D01*
X61777000Y-84177000D01*
X63223000Y-84177000D01*
X63223000Y-87623000D01*
G36*
X65773000Y-87623000D02*
X64277000Y-87623000D01*
X64277000Y-84177000D01*
X65773000Y-84177000D01*
X65773000Y-87623000D01*
X65773000Y-87623000D01*
G37*
X65773000Y-87623000D02*
X64277000Y-87623000D01*
X64277000Y-84177000D01*
X65773000Y-84177000D01*
X65773000Y-87623000D01*
G36*
X68373000Y-87623000D02*
X66827000Y-87623000D01*
X66827000Y-84177000D01*
X68373000Y-84177000D01*
X68373000Y-87623000D01*
X68373000Y-87623000D01*
G37*
X68373000Y-87623000D02*
X66827000Y-87623000D01*
X66827000Y-84177000D01*
X68373000Y-84177000D01*
X68373000Y-87623000D01*
M02*
