G04 #@! TF.FileFunction,Copper,L2,Bot,Signal*
%FSLAX46Y46*%
G04 Gerber Fmt 4.6, Leading zero omitted, Abs format (unit mm)*
G04 Created by KiCad (PCBNEW 4.0.6) date 10/14/18 11:43:10*
%MOMM*%
%LPD*%
G01*
G04 APERTURE LIST*
%ADD10C,0.100000*%
%ADD11R,1.700000X1.700000*%
%ADD12O,1.700000X1.700000*%
%ADD13R,2.150000X2.200000*%
%ADD14C,0.400000*%
%ADD15C,0.500000*%
%ADD16C,0.130000*%
%ADD17C,0.254000*%
G04 APERTURE END LIST*
D10*
D11*
X73200000Y-85900000D03*
D12*
X70660000Y-85900000D03*
D11*
X56600000Y-85900000D03*
X59200000Y-85900000D03*
X62500000Y-85900000D03*
X65040000Y-85900000D03*
X67580000Y-85900000D03*
D13*
X52958935Y-72400000D03*
X52958935Y-70200000D03*
X55108935Y-72400000D03*
X55108935Y-70200000D03*
X52945000Y-66800000D03*
X52945000Y-64600000D03*
X55095000Y-66800000D03*
X55095000Y-64600000D03*
X52958935Y-61195000D03*
X52958935Y-58995000D03*
X55108935Y-61195000D03*
X55108935Y-58995000D03*
D14*
X83500000Y-54300000D03*
X77650000Y-62100000D03*
X74300000Y-81250000D03*
X76200000Y-74850000D03*
X82600000Y-63500000D03*
X82550000Y-70300000D03*
X67650000Y-54450000D03*
X67350000Y-54050000D03*
X72200000Y-47300000D03*
X71550000Y-47300000D03*
X70900000Y-47300000D03*
X70250000Y-47300000D03*
X73750000Y-47300000D03*
X73650000Y-56600000D03*
X74100000Y-56150000D03*
X62850004Y-45600000D03*
X62250000Y-45600000D03*
X61550000Y-45600004D03*
X66850000Y-49150000D03*
X66850000Y-49750000D03*
X66850000Y-50450000D03*
X58550000Y-51800000D03*
X58550000Y-49750000D03*
X58550000Y-47750000D03*
X77300000Y-54400000D03*
X68650000Y-49500000D03*
X62154990Y-55900000D03*
X70270685Y-59779315D03*
X70718687Y-60227316D03*
X62154990Y-56704315D03*
X61950000Y-49900000D03*
X72750000Y-68150000D03*
X62665825Y-49217677D03*
X74308093Y-65258636D03*
X62050000Y-50850000D03*
X72150000Y-61450000D03*
X63371481Y-49651262D03*
X74650000Y-66650000D03*
X66600000Y-72800000D03*
X73000000Y-82000000D03*
X64800000Y-72900000D03*
X70900000Y-81600000D03*
X58200000Y-57100000D03*
X53600000Y-57530002D03*
X71900000Y-76900000D03*
X62600000Y-52050000D03*
X71366430Y-77396927D03*
X63143602Y-58652231D03*
X63150000Y-57450000D03*
X73000000Y-77150000D03*
X62150000Y-52650000D03*
X68840858Y-59115087D03*
X64099999Y-49250000D03*
X82200000Y-73350000D03*
X62900000Y-47350000D03*
X76600000Y-72550000D03*
X65300000Y-49350000D03*
X76850000Y-65650000D03*
D15*
X63132846Y-45600000D02*
X62850004Y-45600000D01*
X66850000Y-49150000D02*
X63300000Y-45600000D01*
X63300000Y-45600000D02*
X63132846Y-45600000D01*
X62250000Y-45600000D02*
X62850004Y-45600000D01*
X62249996Y-45600004D02*
X62250000Y-45600000D01*
X61550000Y-45600004D02*
X62249996Y-45600004D01*
X66850000Y-49750000D02*
X66850000Y-50450000D01*
X66850000Y-49150000D02*
X66850000Y-49750000D01*
D16*
X58020000Y-51800000D02*
X58550000Y-51800000D01*
X50839989Y-62837700D02*
X50839989Y-57630011D01*
X56670000Y-51800000D02*
X58020000Y-51800000D01*
X50850000Y-62847711D02*
X50839989Y-62837700D01*
X50839989Y-57630011D02*
X56670000Y-51800000D01*
X52958935Y-70175000D02*
X50850000Y-68066065D01*
X52958935Y-70200000D02*
X52958935Y-70175000D01*
X50850000Y-68066065D02*
X50850000Y-62847711D01*
X58550000Y-49750000D02*
X58575000Y-49750000D01*
X51100000Y-57800000D02*
X51100000Y-62730000D01*
X58700000Y-52950000D02*
X55950000Y-52950000D01*
X59080000Y-52570000D02*
X58700000Y-52950000D01*
X58575000Y-49750000D02*
X59080000Y-50255000D01*
X59080000Y-50255000D02*
X59080000Y-52570000D01*
X55950000Y-52950000D02*
X51100000Y-57800000D01*
X51100000Y-62730000D02*
X52945000Y-64575000D01*
X52945000Y-64575000D02*
X52945000Y-64600000D01*
X55108935Y-58970000D02*
X55108935Y-58995000D01*
X59350000Y-49055000D02*
X58550000Y-48255000D01*
X59350000Y-52717711D02*
X59350000Y-49055000D01*
X56057699Y-53210011D02*
X58857700Y-53210011D01*
X52958935Y-58995000D02*
X52958935Y-56308775D01*
X58857700Y-53210011D02*
X59350000Y-52717711D01*
X58550000Y-48255000D02*
X58550000Y-47750000D01*
X52958935Y-56308775D02*
X56057699Y-53210011D01*
X68650000Y-49500000D02*
X72490000Y-49500000D01*
X72490000Y-49500000D02*
X77300000Y-54310000D01*
X77300000Y-54310000D02*
X77300000Y-54400000D01*
X68650000Y-49500000D02*
X68550000Y-49500000D01*
X62437832Y-55900000D02*
X62154990Y-55900000D01*
X64264502Y-57612187D02*
X62552315Y-55900000D01*
X65483031Y-57612187D02*
X64264502Y-57612187D01*
X70270685Y-59779315D02*
X68764737Y-59779315D01*
X68764737Y-59779315D02*
X68115400Y-59129978D01*
X67000818Y-59129978D02*
X65483031Y-57612187D01*
X62552315Y-55900000D02*
X62437832Y-55900000D01*
X68115400Y-59129978D02*
X67000818Y-59129978D01*
X65375331Y-57872198D02*
X64156802Y-57872198D01*
X68845027Y-60227316D02*
X68007700Y-59389989D01*
X70718687Y-60227316D02*
X68845027Y-60227316D01*
X68007700Y-59389989D02*
X66893119Y-59389989D01*
X66893119Y-59389989D02*
X65375331Y-57872198D01*
X62988919Y-56704315D02*
X62437832Y-56704315D01*
X62437832Y-56704315D02*
X62154990Y-56704315D01*
X64156802Y-57872198D02*
X62988919Y-56704315D01*
X62149999Y-50099999D02*
X61950000Y-49900000D01*
X68548621Y-58460066D02*
X68438500Y-58349945D01*
X63349945Y-51299945D02*
X62149999Y-50099999D01*
X67543679Y-58349945D02*
X63349945Y-54156211D01*
X69877776Y-58460066D02*
X68548621Y-58460066D01*
X72750000Y-68150000D02*
X72750000Y-61332291D01*
X68438500Y-58349945D02*
X67543679Y-58349945D01*
X63349945Y-54156211D02*
X63349945Y-51299945D01*
X72750000Y-61332291D02*
X69877776Y-58460066D01*
X70117766Y-58200055D02*
X68656321Y-58200055D01*
X62665825Y-49530208D02*
X62665825Y-49500519D01*
X67651379Y-58089934D02*
X63609956Y-54048511D01*
X68546200Y-58089934D02*
X67651379Y-58089934D01*
X68656321Y-58200055D02*
X68546200Y-58089934D01*
X62665825Y-49500519D02*
X62665825Y-49217677D01*
X74308093Y-65258636D02*
X73010011Y-63960554D01*
X73010011Y-63960554D02*
X73010011Y-61092300D01*
X73010011Y-61092300D02*
X70117766Y-58200055D01*
X63609956Y-50474339D02*
X62665825Y-49530208D01*
X63609956Y-54048511D02*
X63609956Y-50474339D01*
X63010011Y-54183988D02*
X67435979Y-58609956D01*
X68330800Y-58609956D02*
X68440921Y-58720077D01*
X69770076Y-58720077D02*
X72150000Y-61100001D01*
X62050000Y-50850000D02*
X63010011Y-51810011D01*
X72150000Y-61167158D02*
X72150000Y-61450000D01*
X67435979Y-58609956D02*
X68330800Y-58609956D01*
X63010011Y-51810011D02*
X63010011Y-54183988D01*
X72150000Y-61100001D02*
X72150000Y-61167158D01*
X68440921Y-58720077D02*
X69770076Y-58720077D01*
X74849999Y-66450001D02*
X74849999Y-62635421D01*
X67759079Y-57829923D02*
X63869967Y-53940811D01*
X73270022Y-61055444D02*
X73270022Y-60984600D01*
X63869967Y-50149748D02*
X63571480Y-49851261D01*
X63571480Y-49851261D02*
X63371481Y-49651262D01*
X73270022Y-60984600D02*
X70225466Y-57940044D01*
X74650000Y-66650000D02*
X74849999Y-66450001D01*
X63869967Y-53940811D02*
X63869967Y-50149748D01*
X74849999Y-62635421D02*
X73270022Y-61055444D01*
X70225466Y-57940044D02*
X68764021Y-57940044D01*
X68764021Y-57940044D02*
X68653900Y-57829923D01*
X68653900Y-57829923D02*
X67759079Y-57829923D01*
X73000000Y-82000000D02*
X72717158Y-82000000D01*
X72717158Y-82000000D02*
X67700000Y-76982842D01*
X67700000Y-76982842D02*
X67682842Y-76982842D01*
X67682842Y-76982842D02*
X66600000Y-75900000D01*
X66600000Y-75900000D02*
X66600000Y-72800000D01*
X70900000Y-81600000D02*
X70900000Y-80900000D01*
X70900000Y-80900000D02*
X64800000Y-74800000D01*
X64800000Y-74800000D02*
X64800000Y-73182842D01*
X64800000Y-73182842D02*
X64800000Y-72900000D01*
X53600000Y-57530002D02*
X54030002Y-57100000D01*
X54030002Y-57100000D02*
X58200000Y-57100000D01*
X71400001Y-76400001D02*
X71700001Y-76700001D01*
X71400001Y-74500001D02*
X71400001Y-76400001D01*
X70860011Y-63442300D02*
X70860011Y-73960011D01*
X66917710Y-60150000D02*
X67567711Y-60150000D01*
X71700001Y-76700001D02*
X71900000Y-76900000D01*
X67567711Y-60150000D02*
X70860011Y-63442300D01*
X65159931Y-58392220D02*
X66917710Y-60150000D01*
X63509930Y-58392220D02*
X65159931Y-58392220D01*
X62467710Y-57350000D02*
X63509930Y-58392220D01*
X62050000Y-57350000D02*
X62467710Y-57350000D01*
X70860011Y-73960011D02*
X71400001Y-74500001D01*
X61392978Y-56692978D02*
X62050000Y-57350000D01*
X61650000Y-52050000D02*
X61392978Y-52307022D01*
X62600000Y-52050000D02*
X61650000Y-52050000D01*
X61392978Y-52307022D02*
X61392978Y-56692978D01*
X63143602Y-58652231D02*
X65052231Y-58652231D01*
X70600000Y-67800000D02*
X70600000Y-74700000D01*
X65052231Y-58652231D02*
X66810011Y-60410011D01*
X70900000Y-77213339D02*
X71083588Y-77396927D01*
X66810011Y-60410011D02*
X67460011Y-60410011D01*
X67460011Y-60410011D02*
X70250000Y-63200000D01*
X70900000Y-75000000D02*
X70900000Y-77213339D01*
X70250000Y-63200000D02*
X70250000Y-67450000D01*
X70250000Y-67450000D02*
X70600000Y-67800000D01*
X70600000Y-74700000D02*
X70900000Y-75000000D01*
X71083588Y-77396927D02*
X71366430Y-77396927D01*
X73000000Y-77150000D02*
X71700000Y-75850000D01*
X71700000Y-75850000D02*
X71700000Y-73800000D01*
X71700000Y-73800000D02*
X71200000Y-73300000D01*
X71200000Y-73300000D02*
X71200000Y-62950000D01*
X71200000Y-62950000D02*
X67900000Y-59650000D01*
X67900000Y-59650000D02*
X66785420Y-59650000D01*
X66785420Y-59650000D02*
X65267631Y-58132209D01*
X65267631Y-58132209D02*
X63832209Y-58132209D01*
X63832209Y-58132209D02*
X63349999Y-57649999D01*
X63349999Y-57649999D02*
X63150000Y-57450000D01*
X62150000Y-52932842D02*
X62150000Y-52650000D01*
X62150000Y-54490429D02*
X62150000Y-52932842D01*
X65011747Y-57352176D02*
X62150000Y-54490429D01*
X65590731Y-57352176D02*
X65011747Y-57352176D01*
X68223100Y-58869967D02*
X67108517Y-58869967D01*
X68468220Y-59115087D02*
X68223100Y-58869967D01*
X68840858Y-59115087D02*
X68468220Y-59115087D01*
X67108517Y-58869967D02*
X65590731Y-57352176D01*
X68979421Y-57420022D02*
X68869300Y-57309901D01*
X70440866Y-57420022D02*
X68979421Y-57420022D01*
X64299998Y-49449999D02*
X64099999Y-49250000D01*
X64389989Y-53725411D02*
X64389989Y-49539990D01*
X75660011Y-62639168D02*
X70440866Y-57420022D01*
X75660011Y-66810011D02*
X75660011Y-62639168D01*
X82200000Y-73350000D02*
X75660011Y-66810011D01*
X67974479Y-57309901D02*
X64389989Y-53725411D01*
X64389989Y-49539990D02*
X64299998Y-49449999D01*
X68869300Y-57309901D02*
X67974479Y-57309901D01*
X63099999Y-47549999D02*
X62900000Y-47350000D01*
X73530033Y-60876900D02*
X70333166Y-57680033D01*
X73530033Y-60930033D02*
X73530033Y-60876900D01*
X64129978Y-53833111D02*
X64129978Y-49864583D01*
X63704997Y-49439602D02*
X63704997Y-48154997D01*
X67866779Y-57569912D02*
X64129978Y-53833111D01*
X68761600Y-57569912D02*
X67866779Y-57569912D01*
X75400000Y-62800000D02*
X73530033Y-60930033D01*
X64129978Y-49864583D02*
X63704997Y-49439602D01*
X75400000Y-71350000D02*
X75400000Y-62800000D01*
X76600000Y-72550000D02*
X75400000Y-71350000D01*
X70333166Y-57680033D02*
X68871721Y-57680033D01*
X63704997Y-48154997D02*
X63099999Y-47549999D01*
X68871721Y-57680033D02*
X68761600Y-57569912D01*
X69087121Y-57160011D02*
X68977000Y-57049890D01*
X70548566Y-57160011D02*
X69087121Y-57160011D01*
X68082179Y-57049890D02*
X64650000Y-53617711D01*
X64650000Y-53617711D02*
X64650000Y-50282842D01*
X76850000Y-65650000D02*
X76850000Y-63461446D01*
X76850000Y-63461446D02*
X70548566Y-57160011D01*
X68977000Y-57049890D02*
X68082179Y-57049890D01*
X64650000Y-50282842D02*
X65300000Y-49632842D01*
X65300000Y-49632842D02*
X65300000Y-49350000D01*
D17*
G36*
X63223000Y-84078807D02*
X63223000Y-87623000D01*
X61777000Y-87623000D01*
X61777000Y-84350000D01*
X61771972Y-84314619D01*
X61757389Y-84282202D01*
X54907389Y-73432202D01*
X54884249Y-73404968D01*
X54854438Y-73385259D01*
X54820317Y-73374636D01*
X54800000Y-73373000D01*
X51978452Y-73373000D01*
X52025565Y-69227000D01*
X56119962Y-69227000D01*
X63223000Y-84078807D01*
X63223000Y-84078807D01*
G37*
X63223000Y-84078807D02*
X63223000Y-87623000D01*
X61777000Y-87623000D01*
X61777000Y-84350000D01*
X61771972Y-84314619D01*
X61757389Y-84282202D01*
X54907389Y-73432202D01*
X54884249Y-73404968D01*
X54854438Y-73385259D01*
X54820317Y-73374636D01*
X54800000Y-73373000D01*
X51978452Y-73373000D01*
X52025565Y-69227000D01*
X56119962Y-69227000D01*
X63223000Y-84078807D01*
G36*
X65773000Y-84028531D02*
X65773000Y-87623000D01*
X64277000Y-87623000D01*
X64277000Y-84050000D01*
X64271972Y-84014619D01*
X64264014Y-83994055D01*
X56364014Y-67894055D01*
X56343914Y-67864507D01*
X56316378Y-67841727D01*
X56283586Y-67827522D01*
X56250000Y-67823000D01*
X52025581Y-67823000D01*
X51978435Y-63627000D01*
X56119593Y-63627000D01*
X65773000Y-84028531D01*
X65773000Y-84028531D01*
G37*
X65773000Y-84028531D02*
X65773000Y-87623000D01*
X64277000Y-87623000D01*
X64277000Y-84050000D01*
X64271972Y-84014619D01*
X64264014Y-83994055D01*
X56364014Y-67894055D01*
X56343914Y-67864507D01*
X56316378Y-67841727D01*
X56283586Y-67827522D01*
X56250000Y-67823000D01*
X52025581Y-67823000D01*
X51978435Y-63627000D01*
X56119593Y-63627000D01*
X65773000Y-84028531D01*
G36*
X53436360Y-58033634D02*
X53537299Y-58055827D01*
X53640627Y-58057991D01*
X53742406Y-58040045D01*
X53776038Y-58027000D01*
X56368753Y-58027000D01*
X68373000Y-84027901D01*
X68373000Y-87623000D01*
X66827000Y-87623000D01*
X66827000Y-84000000D01*
X66821972Y-83964619D01*
X66814423Y-83944897D01*
X56364423Y-62244897D01*
X56344542Y-62215201D01*
X56317175Y-62192220D01*
X56284488Y-62177773D01*
X56250000Y-62173000D01*
X52027000Y-62173000D01*
X52027000Y-58027000D01*
X53421175Y-58027000D01*
X53436360Y-58033634D01*
X53436360Y-58033634D01*
G37*
X53436360Y-58033634D02*
X53537299Y-58055827D01*
X53640627Y-58057991D01*
X53742406Y-58040045D01*
X53776038Y-58027000D01*
X56368753Y-58027000D01*
X68373000Y-84027901D01*
X68373000Y-87623000D01*
X66827000Y-87623000D01*
X66827000Y-84000000D01*
X66821972Y-83964619D01*
X66814423Y-83944897D01*
X56364423Y-62244897D01*
X56344542Y-62215201D01*
X56317175Y-62192220D01*
X56284488Y-62177773D01*
X56250000Y-62173000D01*
X52027000Y-62173000D01*
X52027000Y-58027000D01*
X53421175Y-58027000D01*
X53436360Y-58033634D01*
G36*
X79063004Y-43581087D02*
X81047420Y-44180218D01*
X82877679Y-45153384D01*
X84484056Y-46463514D01*
X85805368Y-48060706D01*
X86791286Y-49884122D01*
X87404257Y-51864311D01*
X87622801Y-53943620D01*
X87623000Y-54000742D01*
X87623000Y-76981559D01*
X87418913Y-79063004D01*
X86819782Y-81047420D01*
X85875690Y-82823000D01*
X70085199Y-82823000D01*
X68739701Y-79294073D01*
X70508000Y-81062372D01*
X70508000Y-81246236D01*
X70494341Y-81259612D01*
X70435952Y-81344887D01*
X70395238Y-81439880D01*
X70373750Y-81540972D01*
X70372307Y-81644312D01*
X70390964Y-81745964D01*
X70429010Y-81842056D01*
X70484995Y-81928929D01*
X70556788Y-82003273D01*
X70641654Y-82062256D01*
X70736360Y-82103632D01*
X70837299Y-82125825D01*
X70940627Y-82127989D01*
X71042406Y-82110043D01*
X71138762Y-82072669D01*
X71226024Y-82017291D01*
X71300867Y-81946019D01*
X71360441Y-81861567D01*
X71402477Y-81767152D01*
X71425374Y-81666370D01*
X71427023Y-81548325D01*
X71406949Y-81446943D01*
X71367565Y-81351391D01*
X71310372Y-81265309D01*
X71292000Y-81246808D01*
X71292000Y-81129214D01*
X72439972Y-82277186D01*
X72467967Y-82300181D01*
X72495691Y-82323444D01*
X72497498Y-82324437D01*
X72499091Y-82325746D01*
X72531019Y-82342866D01*
X72562733Y-82360301D01*
X72564696Y-82360924D01*
X72566515Y-82361899D01*
X72601154Y-82372489D01*
X72635657Y-82383434D01*
X72637707Y-82383664D01*
X72637913Y-82383727D01*
X72656788Y-82403273D01*
X72741654Y-82462256D01*
X72836360Y-82503632D01*
X72937299Y-82525825D01*
X73040627Y-82527989D01*
X73142406Y-82510043D01*
X73238762Y-82472669D01*
X73326024Y-82417291D01*
X73400867Y-82346019D01*
X73460441Y-82261567D01*
X73502477Y-82167152D01*
X73525374Y-82066370D01*
X73527023Y-81948325D01*
X73506949Y-81846943D01*
X73467565Y-81751391D01*
X73410372Y-81665309D01*
X73337548Y-81591975D01*
X73251867Y-81534182D01*
X73156592Y-81494132D01*
X73055353Y-81473351D01*
X72952006Y-81472629D01*
X72850486Y-81491995D01*
X72788549Y-81517019D01*
X67977186Y-76705656D01*
X67949191Y-76682661D01*
X67921467Y-76659398D01*
X67919660Y-76658405D01*
X67918067Y-76657096D01*
X67903839Y-76649467D01*
X67625095Y-76370723D01*
X66992000Y-74710263D01*
X66992000Y-73154463D01*
X67000867Y-73146019D01*
X67060441Y-73061567D01*
X67102477Y-72967152D01*
X67125374Y-72866370D01*
X67127023Y-72748325D01*
X67106949Y-72646943D01*
X67067565Y-72551391D01*
X67010372Y-72465309D01*
X66937548Y-72391975D01*
X66851867Y-72334182D01*
X66756592Y-72294132D01*
X66655353Y-72273351D01*
X66552006Y-72272629D01*
X66450486Y-72291995D01*
X66354662Y-72330711D01*
X66268182Y-72387302D01*
X66194341Y-72459612D01*
X66155505Y-72516331D01*
X65934138Y-71935738D01*
X65940778Y-69033210D01*
X66219256Y-69003941D01*
X66886143Y-68797504D01*
X67500233Y-68465467D01*
X68038135Y-68020477D01*
X68479359Y-67479482D01*
X68807101Y-66863089D01*
X69008877Y-66194776D01*
X69077000Y-65500000D01*
X69075605Y-65400124D01*
X68988109Y-64707521D01*
X68767752Y-64045103D01*
X68422927Y-63438102D01*
X67966769Y-62909637D01*
X67416652Y-62479839D01*
X66793531Y-62165078D01*
X66121140Y-61977343D01*
X65956949Y-61964709D01*
X65961180Y-60115552D01*
X66532825Y-60687197D01*
X66560815Y-60710188D01*
X66588544Y-60733455D01*
X66590351Y-60734449D01*
X66591943Y-60735756D01*
X66623838Y-60752858D01*
X66655586Y-60770312D01*
X66657551Y-60770935D01*
X66659367Y-60771909D01*
X66693975Y-60782490D01*
X66728510Y-60793445D01*
X66730560Y-60793675D01*
X66732529Y-60794277D01*
X66768542Y-60797935D01*
X66804538Y-60801973D01*
X66808564Y-60802001D01*
X66808643Y-60802009D01*
X66808717Y-60802002D01*
X66810011Y-60802011D01*
X67297639Y-60802011D01*
X69858000Y-63362372D01*
X69858000Y-67450000D01*
X69861537Y-67486074D01*
X69864690Y-67522109D01*
X69865265Y-67524087D01*
X69865466Y-67526140D01*
X69875942Y-67560839D01*
X69886034Y-67595576D01*
X69886981Y-67597404D01*
X69887578Y-67599380D01*
X69904576Y-67631348D01*
X69921241Y-67663499D01*
X69922529Y-67665113D01*
X69923495Y-67666929D01*
X69946362Y-67694967D01*
X69968971Y-67723289D01*
X69971798Y-67726156D01*
X69971848Y-67726217D01*
X69971905Y-67726264D01*
X69972814Y-67727186D01*
X70208000Y-67962372D01*
X70208000Y-74700000D01*
X70211537Y-74736074D01*
X70214690Y-74772109D01*
X70215265Y-74774087D01*
X70215466Y-74776140D01*
X70225942Y-74810839D01*
X70236034Y-74845576D01*
X70236981Y-74847404D01*
X70237578Y-74849380D01*
X70254576Y-74881348D01*
X70271241Y-74913499D01*
X70272529Y-74915113D01*
X70273495Y-74916929D01*
X70296362Y-74944967D01*
X70318971Y-74973289D01*
X70321798Y-74976156D01*
X70321848Y-74976217D01*
X70321905Y-74976264D01*
X70322814Y-74977186D01*
X70508000Y-75162372D01*
X70508000Y-77213339D01*
X70511537Y-77249413D01*
X70514690Y-77285448D01*
X70515265Y-77287426D01*
X70515466Y-77289479D01*
X70525942Y-77324178D01*
X70536034Y-77358915D01*
X70536981Y-77360743D01*
X70537578Y-77362719D01*
X70554576Y-77394687D01*
X70571241Y-77426838D01*
X70572529Y-77428452D01*
X70573495Y-77430268D01*
X70596362Y-77458306D01*
X70618971Y-77486628D01*
X70621798Y-77489495D01*
X70621848Y-77489556D01*
X70621905Y-77489603D01*
X70622814Y-77490525D01*
X70806402Y-77674113D01*
X70834397Y-77697108D01*
X70862121Y-77720371D01*
X70863928Y-77721364D01*
X70865521Y-77722673D01*
X70897449Y-77739793D01*
X70929163Y-77757228D01*
X70931126Y-77757851D01*
X70932945Y-77758826D01*
X70967584Y-77769416D01*
X71002087Y-77780361D01*
X71004137Y-77780591D01*
X71004343Y-77780654D01*
X71023218Y-77800200D01*
X71108084Y-77859183D01*
X71202790Y-77900559D01*
X71303729Y-77922752D01*
X71407057Y-77924916D01*
X71508836Y-77906970D01*
X71605192Y-77869596D01*
X71692454Y-77814218D01*
X71767297Y-77742946D01*
X71826871Y-77658494D01*
X71868907Y-77564079D01*
X71891804Y-77463297D01*
X71892311Y-77426977D01*
X71940627Y-77427989D01*
X72042406Y-77410043D01*
X72138762Y-77372669D01*
X72226024Y-77317291D01*
X72300867Y-77246019D01*
X72360441Y-77161567D01*
X72390248Y-77094620D01*
X72472550Y-77176922D01*
X72472307Y-77194312D01*
X72490964Y-77295964D01*
X72529010Y-77392056D01*
X72584995Y-77478929D01*
X72656788Y-77553273D01*
X72741654Y-77612256D01*
X72836360Y-77653632D01*
X72937299Y-77675825D01*
X73040627Y-77677989D01*
X73142406Y-77660043D01*
X73238762Y-77622669D01*
X73326024Y-77567291D01*
X73400867Y-77496019D01*
X73460441Y-77411567D01*
X73502477Y-77317152D01*
X73525374Y-77216370D01*
X73527023Y-77098325D01*
X73506949Y-76996943D01*
X73467565Y-76901391D01*
X73410372Y-76815309D01*
X73337548Y-76741975D01*
X73251867Y-76684182D01*
X73156592Y-76644132D01*
X73055353Y-76623351D01*
X73027529Y-76623157D01*
X72092000Y-75687628D01*
X72092000Y-73800000D01*
X72088462Y-73763922D01*
X72085310Y-73727892D01*
X72084735Y-73725914D01*
X72084534Y-73723860D01*
X72074054Y-73689148D01*
X72063966Y-73654424D01*
X72063019Y-73652596D01*
X72062422Y-73650620D01*
X72045424Y-73618652D01*
X72028759Y-73586501D01*
X72027471Y-73584887D01*
X72026505Y-73583071D01*
X72003638Y-73555033D01*
X71981029Y-73526711D01*
X71978202Y-73523844D01*
X71978152Y-73523783D01*
X71978095Y-73523736D01*
X71977186Y-73522814D01*
X71592000Y-73137628D01*
X71592000Y-62950000D01*
X71588462Y-62913922D01*
X71585310Y-62877892D01*
X71584735Y-62875914D01*
X71584534Y-62873860D01*
X71574054Y-62839148D01*
X71563966Y-62804424D01*
X71563019Y-62802596D01*
X71562422Y-62800620D01*
X71545424Y-62768652D01*
X71528759Y-62736501D01*
X71527471Y-62734887D01*
X71526505Y-62733071D01*
X71503638Y-62705033D01*
X71481029Y-62676711D01*
X71478202Y-62673844D01*
X71478152Y-62673783D01*
X71478095Y-62673736D01*
X71477186Y-62672814D01*
X69423688Y-60619316D01*
X70364589Y-60619316D01*
X70375475Y-60630589D01*
X70460341Y-60689572D01*
X70555047Y-60730948D01*
X70655986Y-60753141D01*
X70759314Y-60755305D01*
X70861093Y-60737359D01*
X70957449Y-60699985D01*
X71044711Y-60644607D01*
X71093640Y-60598013D01*
X71687806Y-61192179D01*
X71685952Y-61194887D01*
X71645238Y-61289880D01*
X71623750Y-61390972D01*
X71622307Y-61494312D01*
X71640964Y-61595964D01*
X71679010Y-61692056D01*
X71734995Y-61778929D01*
X71806788Y-61853273D01*
X71891654Y-61912256D01*
X71986360Y-61953632D01*
X72087299Y-61975825D01*
X72190627Y-61977989D01*
X72292406Y-61960043D01*
X72358000Y-61934601D01*
X72358000Y-67796236D01*
X72344341Y-67809612D01*
X72285952Y-67894887D01*
X72245238Y-67989880D01*
X72223750Y-68090972D01*
X72222307Y-68194312D01*
X72240964Y-68295964D01*
X72279010Y-68392056D01*
X72334995Y-68478929D01*
X72406788Y-68553273D01*
X72491654Y-68612256D01*
X72586360Y-68653632D01*
X72687299Y-68675825D01*
X72790627Y-68677989D01*
X72892406Y-68660043D01*
X72988762Y-68622669D01*
X73076024Y-68567291D01*
X73150867Y-68496019D01*
X73210441Y-68411567D01*
X73252477Y-68317152D01*
X73275374Y-68216370D01*
X73277023Y-68098325D01*
X73256949Y-67996943D01*
X73217565Y-67901391D01*
X73160372Y-67815309D01*
X73142000Y-67796808D01*
X73142000Y-64646915D01*
X73780643Y-65285558D01*
X73780400Y-65302948D01*
X73799057Y-65404600D01*
X73837103Y-65500692D01*
X73893088Y-65587565D01*
X73964881Y-65661909D01*
X74049747Y-65720892D01*
X74144453Y-65762268D01*
X74245392Y-65784461D01*
X74348720Y-65786625D01*
X74450499Y-65768679D01*
X74457999Y-65765770D01*
X74457999Y-66159161D01*
X74404662Y-66180711D01*
X74318182Y-66237302D01*
X74244341Y-66309612D01*
X74185952Y-66394887D01*
X74145238Y-66489880D01*
X74123750Y-66590972D01*
X74122307Y-66694312D01*
X74140964Y-66795964D01*
X74179010Y-66892056D01*
X74234995Y-66978929D01*
X74306788Y-67053273D01*
X74391654Y-67112256D01*
X74486360Y-67153632D01*
X74587299Y-67175825D01*
X74690627Y-67177989D01*
X74792406Y-67160043D01*
X74888762Y-67122669D01*
X74976024Y-67067291D01*
X75008000Y-67036841D01*
X75008000Y-71350000D01*
X75011537Y-71386074D01*
X75014690Y-71422109D01*
X75015265Y-71424087D01*
X75015466Y-71426140D01*
X75025942Y-71460839D01*
X75036034Y-71495576D01*
X75036981Y-71497404D01*
X75037578Y-71499380D01*
X75054576Y-71531348D01*
X75071241Y-71563499D01*
X75072529Y-71565113D01*
X75073495Y-71566929D01*
X75096362Y-71594967D01*
X75118971Y-71623289D01*
X75121798Y-71626156D01*
X75121848Y-71626217D01*
X75121905Y-71626264D01*
X75122814Y-71627186D01*
X76072550Y-72576922D01*
X76072307Y-72594312D01*
X76090964Y-72695964D01*
X76129010Y-72792056D01*
X76184995Y-72878929D01*
X76256788Y-72953273D01*
X76341654Y-73012256D01*
X76436360Y-73053632D01*
X76537299Y-73075825D01*
X76640627Y-73077989D01*
X76742406Y-73060043D01*
X76838762Y-73022669D01*
X76926024Y-72967291D01*
X77000867Y-72896019D01*
X77060441Y-72811567D01*
X77102477Y-72717152D01*
X77125374Y-72616370D01*
X77127023Y-72498325D01*
X77106949Y-72396943D01*
X77067565Y-72301391D01*
X77010372Y-72215309D01*
X76937548Y-72141975D01*
X76851867Y-72084182D01*
X76756592Y-72044132D01*
X76655353Y-72023351D01*
X76627529Y-72023157D01*
X75792000Y-71187628D01*
X75792000Y-67496372D01*
X81672550Y-73376922D01*
X81672307Y-73394312D01*
X81690964Y-73495964D01*
X81729010Y-73592056D01*
X81784995Y-73678929D01*
X81856788Y-73753273D01*
X81941654Y-73812256D01*
X82036360Y-73853632D01*
X82137299Y-73875825D01*
X82240627Y-73877989D01*
X82342406Y-73860043D01*
X82438762Y-73822669D01*
X82526024Y-73767291D01*
X82600867Y-73696019D01*
X82660441Y-73611567D01*
X82702477Y-73517152D01*
X82725374Y-73416370D01*
X82727023Y-73298325D01*
X82706949Y-73196943D01*
X82667565Y-73101391D01*
X82610372Y-73015309D01*
X82537548Y-72941975D01*
X82451867Y-72884182D01*
X82356592Y-72844132D01*
X82255353Y-72823351D01*
X82227529Y-72823157D01*
X76052011Y-66647639D01*
X76052011Y-63217829D01*
X76458000Y-63623818D01*
X76458000Y-65296236D01*
X76444341Y-65309612D01*
X76385952Y-65394887D01*
X76345238Y-65489880D01*
X76323750Y-65590972D01*
X76322307Y-65694312D01*
X76340964Y-65795964D01*
X76379010Y-65892056D01*
X76434995Y-65978929D01*
X76506788Y-66053273D01*
X76591654Y-66112256D01*
X76686360Y-66153632D01*
X76787299Y-66175825D01*
X76890627Y-66177989D01*
X76992406Y-66160043D01*
X77088762Y-66122669D01*
X77176024Y-66067291D01*
X77250867Y-65996019D01*
X77310441Y-65911567D01*
X77352477Y-65817152D01*
X77375374Y-65716370D01*
X77377023Y-65598325D01*
X77356949Y-65496943D01*
X77317565Y-65401391D01*
X77260372Y-65315309D01*
X77242000Y-65296808D01*
X77242000Y-63461446D01*
X77238463Y-63425372D01*
X77235310Y-63389337D01*
X77234735Y-63387359D01*
X77234534Y-63385306D01*
X77224058Y-63350607D01*
X77213966Y-63315870D01*
X77213019Y-63314042D01*
X77212422Y-63312066D01*
X77195424Y-63280098D01*
X77178759Y-63247947D01*
X77177471Y-63246333D01*
X77176505Y-63244517D01*
X77153638Y-63216479D01*
X77131029Y-63188157D01*
X77128202Y-63185290D01*
X77128152Y-63185229D01*
X77128095Y-63185182D01*
X77127186Y-63184260D01*
X70825752Y-56882825D01*
X70797735Y-56859812D01*
X70770033Y-56836567D01*
X70768229Y-56835575D01*
X70766634Y-56834265D01*
X70734684Y-56817134D01*
X70702991Y-56799710D01*
X70701028Y-56799087D01*
X70699209Y-56798112D01*
X70664570Y-56787522D01*
X70630067Y-56776577D01*
X70628017Y-56776347D01*
X70626048Y-56775745D01*
X70590035Y-56772087D01*
X70554039Y-56768049D01*
X70550013Y-56768021D01*
X70549934Y-56768013D01*
X70549860Y-56768020D01*
X70548566Y-56768011D01*
X69248473Y-56768011D01*
X69226191Y-56749709D01*
X69198467Y-56726446D01*
X69196660Y-56725453D01*
X69195067Y-56724144D01*
X69163139Y-56707024D01*
X69131425Y-56689589D01*
X69129462Y-56688966D01*
X69127643Y-56687991D01*
X69093004Y-56677401D01*
X69058501Y-56666456D01*
X69056451Y-56666226D01*
X69054482Y-56665624D01*
X69018469Y-56661966D01*
X68982473Y-56657928D01*
X68978447Y-56657900D01*
X68978368Y-56657892D01*
X68978294Y-56657899D01*
X68977000Y-56657890D01*
X68244551Y-56657890D01*
X65974284Y-54387623D01*
X65986375Y-49102377D01*
X66273000Y-49389002D01*
X66273000Y-50450000D01*
X66283989Y-50562073D01*
X66316537Y-50669878D01*
X66369404Y-50769307D01*
X66440578Y-50856574D01*
X66527346Y-50928355D01*
X66626404Y-50981915D01*
X66733978Y-51015215D01*
X66845972Y-51026986D01*
X66958119Y-51016780D01*
X67066148Y-50984985D01*
X67165944Y-50932813D01*
X67253706Y-50862251D01*
X67326090Y-50775986D01*
X67380341Y-50677304D01*
X67414391Y-50569965D01*
X67426944Y-50458056D01*
X67427000Y-50450000D01*
X67427000Y-49544312D01*
X68122307Y-49544312D01*
X68140964Y-49645964D01*
X68179010Y-49742056D01*
X68234995Y-49828929D01*
X68306788Y-49903273D01*
X68391654Y-49962256D01*
X68486360Y-50003632D01*
X68587299Y-50025825D01*
X68690627Y-50027989D01*
X68792406Y-50010043D01*
X68888762Y-49972669D01*
X68976024Y-49917291D01*
X69002582Y-49892000D01*
X72327628Y-49892000D01*
X76774250Y-54338622D01*
X76773750Y-54340972D01*
X76772307Y-54444312D01*
X76790964Y-54545964D01*
X76829010Y-54642056D01*
X76884995Y-54728929D01*
X76956788Y-54803273D01*
X77041654Y-54862256D01*
X77136360Y-54903632D01*
X77237299Y-54925825D01*
X77340627Y-54927989D01*
X77442406Y-54910043D01*
X77538762Y-54872669D01*
X77626024Y-54817291D01*
X77700867Y-54746019D01*
X77760441Y-54661567D01*
X77802477Y-54567152D01*
X77825374Y-54466370D01*
X77827023Y-54348325D01*
X77806949Y-54246943D01*
X77767565Y-54151391D01*
X77710372Y-54065309D01*
X77637548Y-53991975D01*
X77551867Y-53934182D01*
X77456592Y-53894132D01*
X77433832Y-53889460D01*
X72767186Y-49222814D01*
X72739191Y-49199819D01*
X72711467Y-49176556D01*
X72709660Y-49175563D01*
X72708067Y-49174254D01*
X72676139Y-49157134D01*
X72644425Y-49139699D01*
X72642462Y-49139076D01*
X72640643Y-49138101D01*
X72606004Y-49127511D01*
X72571501Y-49116566D01*
X72569451Y-49116336D01*
X72567482Y-49115734D01*
X72531469Y-49112076D01*
X72495473Y-49108038D01*
X72491447Y-49108010D01*
X72491368Y-49108002D01*
X72491294Y-49108009D01*
X72490000Y-49108000D01*
X69003462Y-49108000D01*
X68987548Y-49091975D01*
X68901867Y-49034182D01*
X68806592Y-48994132D01*
X68705353Y-48973351D01*
X68602006Y-48972629D01*
X68500486Y-48991995D01*
X68404662Y-49030711D01*
X68318182Y-49087302D01*
X68244341Y-49159612D01*
X68185952Y-49244887D01*
X68145238Y-49339880D01*
X68123750Y-49440972D01*
X68122307Y-49544312D01*
X67427000Y-49544312D01*
X67427000Y-49150000D01*
X67421799Y-49096957D01*
X67417153Y-49043860D01*
X67416307Y-49040949D01*
X67416011Y-49037927D01*
X67400598Y-48986877D01*
X67385736Y-48935720D01*
X67384340Y-48933027D01*
X67383463Y-48930122D01*
X67358435Y-48883051D01*
X67333913Y-48835743D01*
X67332021Y-48833373D01*
X67330596Y-48830693D01*
X67296914Y-48789395D01*
X67263657Y-48747735D01*
X67259489Y-48743508D01*
X67259422Y-48743426D01*
X67259347Y-48743364D01*
X67258001Y-48741999D01*
X65990101Y-47474099D01*
X65999474Y-43377000D01*
X76981559Y-43377000D01*
X79063004Y-43581087D01*
X79063004Y-43581087D01*
G37*
X79063004Y-43581087D02*
X81047420Y-44180218D01*
X82877679Y-45153384D01*
X84484056Y-46463514D01*
X85805368Y-48060706D01*
X86791286Y-49884122D01*
X87404257Y-51864311D01*
X87622801Y-53943620D01*
X87623000Y-54000742D01*
X87623000Y-76981559D01*
X87418913Y-79063004D01*
X86819782Y-81047420D01*
X85875690Y-82823000D01*
X70085199Y-82823000D01*
X68739701Y-79294073D01*
X70508000Y-81062372D01*
X70508000Y-81246236D01*
X70494341Y-81259612D01*
X70435952Y-81344887D01*
X70395238Y-81439880D01*
X70373750Y-81540972D01*
X70372307Y-81644312D01*
X70390964Y-81745964D01*
X70429010Y-81842056D01*
X70484995Y-81928929D01*
X70556788Y-82003273D01*
X70641654Y-82062256D01*
X70736360Y-82103632D01*
X70837299Y-82125825D01*
X70940627Y-82127989D01*
X71042406Y-82110043D01*
X71138762Y-82072669D01*
X71226024Y-82017291D01*
X71300867Y-81946019D01*
X71360441Y-81861567D01*
X71402477Y-81767152D01*
X71425374Y-81666370D01*
X71427023Y-81548325D01*
X71406949Y-81446943D01*
X71367565Y-81351391D01*
X71310372Y-81265309D01*
X71292000Y-81246808D01*
X71292000Y-81129214D01*
X72439972Y-82277186D01*
X72467967Y-82300181D01*
X72495691Y-82323444D01*
X72497498Y-82324437D01*
X72499091Y-82325746D01*
X72531019Y-82342866D01*
X72562733Y-82360301D01*
X72564696Y-82360924D01*
X72566515Y-82361899D01*
X72601154Y-82372489D01*
X72635657Y-82383434D01*
X72637707Y-82383664D01*
X72637913Y-82383727D01*
X72656788Y-82403273D01*
X72741654Y-82462256D01*
X72836360Y-82503632D01*
X72937299Y-82525825D01*
X73040627Y-82527989D01*
X73142406Y-82510043D01*
X73238762Y-82472669D01*
X73326024Y-82417291D01*
X73400867Y-82346019D01*
X73460441Y-82261567D01*
X73502477Y-82167152D01*
X73525374Y-82066370D01*
X73527023Y-81948325D01*
X73506949Y-81846943D01*
X73467565Y-81751391D01*
X73410372Y-81665309D01*
X73337548Y-81591975D01*
X73251867Y-81534182D01*
X73156592Y-81494132D01*
X73055353Y-81473351D01*
X72952006Y-81472629D01*
X72850486Y-81491995D01*
X72788549Y-81517019D01*
X67977186Y-76705656D01*
X67949191Y-76682661D01*
X67921467Y-76659398D01*
X67919660Y-76658405D01*
X67918067Y-76657096D01*
X67903839Y-76649467D01*
X67625095Y-76370723D01*
X66992000Y-74710263D01*
X66992000Y-73154463D01*
X67000867Y-73146019D01*
X67060441Y-73061567D01*
X67102477Y-72967152D01*
X67125374Y-72866370D01*
X67127023Y-72748325D01*
X67106949Y-72646943D01*
X67067565Y-72551391D01*
X67010372Y-72465309D01*
X66937548Y-72391975D01*
X66851867Y-72334182D01*
X66756592Y-72294132D01*
X66655353Y-72273351D01*
X66552006Y-72272629D01*
X66450486Y-72291995D01*
X66354662Y-72330711D01*
X66268182Y-72387302D01*
X66194341Y-72459612D01*
X66155505Y-72516331D01*
X65934138Y-71935738D01*
X65940778Y-69033210D01*
X66219256Y-69003941D01*
X66886143Y-68797504D01*
X67500233Y-68465467D01*
X68038135Y-68020477D01*
X68479359Y-67479482D01*
X68807101Y-66863089D01*
X69008877Y-66194776D01*
X69077000Y-65500000D01*
X69075605Y-65400124D01*
X68988109Y-64707521D01*
X68767752Y-64045103D01*
X68422927Y-63438102D01*
X67966769Y-62909637D01*
X67416652Y-62479839D01*
X66793531Y-62165078D01*
X66121140Y-61977343D01*
X65956949Y-61964709D01*
X65961180Y-60115552D01*
X66532825Y-60687197D01*
X66560815Y-60710188D01*
X66588544Y-60733455D01*
X66590351Y-60734449D01*
X66591943Y-60735756D01*
X66623838Y-60752858D01*
X66655586Y-60770312D01*
X66657551Y-60770935D01*
X66659367Y-60771909D01*
X66693975Y-60782490D01*
X66728510Y-60793445D01*
X66730560Y-60793675D01*
X66732529Y-60794277D01*
X66768542Y-60797935D01*
X66804538Y-60801973D01*
X66808564Y-60802001D01*
X66808643Y-60802009D01*
X66808717Y-60802002D01*
X66810011Y-60802011D01*
X67297639Y-60802011D01*
X69858000Y-63362372D01*
X69858000Y-67450000D01*
X69861537Y-67486074D01*
X69864690Y-67522109D01*
X69865265Y-67524087D01*
X69865466Y-67526140D01*
X69875942Y-67560839D01*
X69886034Y-67595576D01*
X69886981Y-67597404D01*
X69887578Y-67599380D01*
X69904576Y-67631348D01*
X69921241Y-67663499D01*
X69922529Y-67665113D01*
X69923495Y-67666929D01*
X69946362Y-67694967D01*
X69968971Y-67723289D01*
X69971798Y-67726156D01*
X69971848Y-67726217D01*
X69971905Y-67726264D01*
X69972814Y-67727186D01*
X70208000Y-67962372D01*
X70208000Y-74700000D01*
X70211537Y-74736074D01*
X70214690Y-74772109D01*
X70215265Y-74774087D01*
X70215466Y-74776140D01*
X70225942Y-74810839D01*
X70236034Y-74845576D01*
X70236981Y-74847404D01*
X70237578Y-74849380D01*
X70254576Y-74881348D01*
X70271241Y-74913499D01*
X70272529Y-74915113D01*
X70273495Y-74916929D01*
X70296362Y-74944967D01*
X70318971Y-74973289D01*
X70321798Y-74976156D01*
X70321848Y-74976217D01*
X70321905Y-74976264D01*
X70322814Y-74977186D01*
X70508000Y-75162372D01*
X70508000Y-77213339D01*
X70511537Y-77249413D01*
X70514690Y-77285448D01*
X70515265Y-77287426D01*
X70515466Y-77289479D01*
X70525942Y-77324178D01*
X70536034Y-77358915D01*
X70536981Y-77360743D01*
X70537578Y-77362719D01*
X70554576Y-77394687D01*
X70571241Y-77426838D01*
X70572529Y-77428452D01*
X70573495Y-77430268D01*
X70596362Y-77458306D01*
X70618971Y-77486628D01*
X70621798Y-77489495D01*
X70621848Y-77489556D01*
X70621905Y-77489603D01*
X70622814Y-77490525D01*
X70806402Y-77674113D01*
X70834397Y-77697108D01*
X70862121Y-77720371D01*
X70863928Y-77721364D01*
X70865521Y-77722673D01*
X70897449Y-77739793D01*
X70929163Y-77757228D01*
X70931126Y-77757851D01*
X70932945Y-77758826D01*
X70967584Y-77769416D01*
X71002087Y-77780361D01*
X71004137Y-77780591D01*
X71004343Y-77780654D01*
X71023218Y-77800200D01*
X71108084Y-77859183D01*
X71202790Y-77900559D01*
X71303729Y-77922752D01*
X71407057Y-77924916D01*
X71508836Y-77906970D01*
X71605192Y-77869596D01*
X71692454Y-77814218D01*
X71767297Y-77742946D01*
X71826871Y-77658494D01*
X71868907Y-77564079D01*
X71891804Y-77463297D01*
X71892311Y-77426977D01*
X71940627Y-77427989D01*
X72042406Y-77410043D01*
X72138762Y-77372669D01*
X72226024Y-77317291D01*
X72300867Y-77246019D01*
X72360441Y-77161567D01*
X72390248Y-77094620D01*
X72472550Y-77176922D01*
X72472307Y-77194312D01*
X72490964Y-77295964D01*
X72529010Y-77392056D01*
X72584995Y-77478929D01*
X72656788Y-77553273D01*
X72741654Y-77612256D01*
X72836360Y-77653632D01*
X72937299Y-77675825D01*
X73040627Y-77677989D01*
X73142406Y-77660043D01*
X73238762Y-77622669D01*
X73326024Y-77567291D01*
X73400867Y-77496019D01*
X73460441Y-77411567D01*
X73502477Y-77317152D01*
X73525374Y-77216370D01*
X73527023Y-77098325D01*
X73506949Y-76996943D01*
X73467565Y-76901391D01*
X73410372Y-76815309D01*
X73337548Y-76741975D01*
X73251867Y-76684182D01*
X73156592Y-76644132D01*
X73055353Y-76623351D01*
X73027529Y-76623157D01*
X72092000Y-75687628D01*
X72092000Y-73800000D01*
X72088462Y-73763922D01*
X72085310Y-73727892D01*
X72084735Y-73725914D01*
X72084534Y-73723860D01*
X72074054Y-73689148D01*
X72063966Y-73654424D01*
X72063019Y-73652596D01*
X72062422Y-73650620D01*
X72045424Y-73618652D01*
X72028759Y-73586501D01*
X72027471Y-73584887D01*
X72026505Y-73583071D01*
X72003638Y-73555033D01*
X71981029Y-73526711D01*
X71978202Y-73523844D01*
X71978152Y-73523783D01*
X71978095Y-73523736D01*
X71977186Y-73522814D01*
X71592000Y-73137628D01*
X71592000Y-62950000D01*
X71588462Y-62913922D01*
X71585310Y-62877892D01*
X71584735Y-62875914D01*
X71584534Y-62873860D01*
X71574054Y-62839148D01*
X71563966Y-62804424D01*
X71563019Y-62802596D01*
X71562422Y-62800620D01*
X71545424Y-62768652D01*
X71528759Y-62736501D01*
X71527471Y-62734887D01*
X71526505Y-62733071D01*
X71503638Y-62705033D01*
X71481029Y-62676711D01*
X71478202Y-62673844D01*
X71478152Y-62673783D01*
X71478095Y-62673736D01*
X71477186Y-62672814D01*
X69423688Y-60619316D01*
X70364589Y-60619316D01*
X70375475Y-60630589D01*
X70460341Y-60689572D01*
X70555047Y-60730948D01*
X70655986Y-60753141D01*
X70759314Y-60755305D01*
X70861093Y-60737359D01*
X70957449Y-60699985D01*
X71044711Y-60644607D01*
X71093640Y-60598013D01*
X71687806Y-61192179D01*
X71685952Y-61194887D01*
X71645238Y-61289880D01*
X71623750Y-61390972D01*
X71622307Y-61494312D01*
X71640964Y-61595964D01*
X71679010Y-61692056D01*
X71734995Y-61778929D01*
X71806788Y-61853273D01*
X71891654Y-61912256D01*
X71986360Y-61953632D01*
X72087299Y-61975825D01*
X72190627Y-61977989D01*
X72292406Y-61960043D01*
X72358000Y-61934601D01*
X72358000Y-67796236D01*
X72344341Y-67809612D01*
X72285952Y-67894887D01*
X72245238Y-67989880D01*
X72223750Y-68090972D01*
X72222307Y-68194312D01*
X72240964Y-68295964D01*
X72279010Y-68392056D01*
X72334995Y-68478929D01*
X72406788Y-68553273D01*
X72491654Y-68612256D01*
X72586360Y-68653632D01*
X72687299Y-68675825D01*
X72790627Y-68677989D01*
X72892406Y-68660043D01*
X72988762Y-68622669D01*
X73076024Y-68567291D01*
X73150867Y-68496019D01*
X73210441Y-68411567D01*
X73252477Y-68317152D01*
X73275374Y-68216370D01*
X73277023Y-68098325D01*
X73256949Y-67996943D01*
X73217565Y-67901391D01*
X73160372Y-67815309D01*
X73142000Y-67796808D01*
X73142000Y-64646915D01*
X73780643Y-65285558D01*
X73780400Y-65302948D01*
X73799057Y-65404600D01*
X73837103Y-65500692D01*
X73893088Y-65587565D01*
X73964881Y-65661909D01*
X74049747Y-65720892D01*
X74144453Y-65762268D01*
X74245392Y-65784461D01*
X74348720Y-65786625D01*
X74450499Y-65768679D01*
X74457999Y-65765770D01*
X74457999Y-66159161D01*
X74404662Y-66180711D01*
X74318182Y-66237302D01*
X74244341Y-66309612D01*
X74185952Y-66394887D01*
X74145238Y-66489880D01*
X74123750Y-66590972D01*
X74122307Y-66694312D01*
X74140964Y-66795964D01*
X74179010Y-66892056D01*
X74234995Y-66978929D01*
X74306788Y-67053273D01*
X74391654Y-67112256D01*
X74486360Y-67153632D01*
X74587299Y-67175825D01*
X74690627Y-67177989D01*
X74792406Y-67160043D01*
X74888762Y-67122669D01*
X74976024Y-67067291D01*
X75008000Y-67036841D01*
X75008000Y-71350000D01*
X75011537Y-71386074D01*
X75014690Y-71422109D01*
X75015265Y-71424087D01*
X75015466Y-71426140D01*
X75025942Y-71460839D01*
X75036034Y-71495576D01*
X75036981Y-71497404D01*
X75037578Y-71499380D01*
X75054576Y-71531348D01*
X75071241Y-71563499D01*
X75072529Y-71565113D01*
X75073495Y-71566929D01*
X75096362Y-71594967D01*
X75118971Y-71623289D01*
X75121798Y-71626156D01*
X75121848Y-71626217D01*
X75121905Y-71626264D01*
X75122814Y-71627186D01*
X76072550Y-72576922D01*
X76072307Y-72594312D01*
X76090964Y-72695964D01*
X76129010Y-72792056D01*
X76184995Y-72878929D01*
X76256788Y-72953273D01*
X76341654Y-73012256D01*
X76436360Y-73053632D01*
X76537299Y-73075825D01*
X76640627Y-73077989D01*
X76742406Y-73060043D01*
X76838762Y-73022669D01*
X76926024Y-72967291D01*
X77000867Y-72896019D01*
X77060441Y-72811567D01*
X77102477Y-72717152D01*
X77125374Y-72616370D01*
X77127023Y-72498325D01*
X77106949Y-72396943D01*
X77067565Y-72301391D01*
X77010372Y-72215309D01*
X76937548Y-72141975D01*
X76851867Y-72084182D01*
X76756592Y-72044132D01*
X76655353Y-72023351D01*
X76627529Y-72023157D01*
X75792000Y-71187628D01*
X75792000Y-67496372D01*
X81672550Y-73376922D01*
X81672307Y-73394312D01*
X81690964Y-73495964D01*
X81729010Y-73592056D01*
X81784995Y-73678929D01*
X81856788Y-73753273D01*
X81941654Y-73812256D01*
X82036360Y-73853632D01*
X82137299Y-73875825D01*
X82240627Y-73877989D01*
X82342406Y-73860043D01*
X82438762Y-73822669D01*
X82526024Y-73767291D01*
X82600867Y-73696019D01*
X82660441Y-73611567D01*
X82702477Y-73517152D01*
X82725374Y-73416370D01*
X82727023Y-73298325D01*
X82706949Y-73196943D01*
X82667565Y-73101391D01*
X82610372Y-73015309D01*
X82537548Y-72941975D01*
X82451867Y-72884182D01*
X82356592Y-72844132D01*
X82255353Y-72823351D01*
X82227529Y-72823157D01*
X76052011Y-66647639D01*
X76052011Y-63217829D01*
X76458000Y-63623818D01*
X76458000Y-65296236D01*
X76444341Y-65309612D01*
X76385952Y-65394887D01*
X76345238Y-65489880D01*
X76323750Y-65590972D01*
X76322307Y-65694312D01*
X76340964Y-65795964D01*
X76379010Y-65892056D01*
X76434995Y-65978929D01*
X76506788Y-66053273D01*
X76591654Y-66112256D01*
X76686360Y-66153632D01*
X76787299Y-66175825D01*
X76890627Y-66177989D01*
X76992406Y-66160043D01*
X77088762Y-66122669D01*
X77176024Y-66067291D01*
X77250867Y-65996019D01*
X77310441Y-65911567D01*
X77352477Y-65817152D01*
X77375374Y-65716370D01*
X77377023Y-65598325D01*
X77356949Y-65496943D01*
X77317565Y-65401391D01*
X77260372Y-65315309D01*
X77242000Y-65296808D01*
X77242000Y-63461446D01*
X77238463Y-63425372D01*
X77235310Y-63389337D01*
X77234735Y-63387359D01*
X77234534Y-63385306D01*
X77224058Y-63350607D01*
X77213966Y-63315870D01*
X77213019Y-63314042D01*
X77212422Y-63312066D01*
X77195424Y-63280098D01*
X77178759Y-63247947D01*
X77177471Y-63246333D01*
X77176505Y-63244517D01*
X77153638Y-63216479D01*
X77131029Y-63188157D01*
X77128202Y-63185290D01*
X77128152Y-63185229D01*
X77128095Y-63185182D01*
X77127186Y-63184260D01*
X70825752Y-56882825D01*
X70797735Y-56859812D01*
X70770033Y-56836567D01*
X70768229Y-56835575D01*
X70766634Y-56834265D01*
X70734684Y-56817134D01*
X70702991Y-56799710D01*
X70701028Y-56799087D01*
X70699209Y-56798112D01*
X70664570Y-56787522D01*
X70630067Y-56776577D01*
X70628017Y-56776347D01*
X70626048Y-56775745D01*
X70590035Y-56772087D01*
X70554039Y-56768049D01*
X70550013Y-56768021D01*
X70549934Y-56768013D01*
X70549860Y-56768020D01*
X70548566Y-56768011D01*
X69248473Y-56768011D01*
X69226191Y-56749709D01*
X69198467Y-56726446D01*
X69196660Y-56725453D01*
X69195067Y-56724144D01*
X69163139Y-56707024D01*
X69131425Y-56689589D01*
X69129462Y-56688966D01*
X69127643Y-56687991D01*
X69093004Y-56677401D01*
X69058501Y-56666456D01*
X69056451Y-56666226D01*
X69054482Y-56665624D01*
X69018469Y-56661966D01*
X68982473Y-56657928D01*
X68978447Y-56657900D01*
X68978368Y-56657892D01*
X68978294Y-56657899D01*
X68977000Y-56657890D01*
X68244551Y-56657890D01*
X65974284Y-54387623D01*
X65986375Y-49102377D01*
X66273000Y-49389002D01*
X66273000Y-50450000D01*
X66283989Y-50562073D01*
X66316537Y-50669878D01*
X66369404Y-50769307D01*
X66440578Y-50856574D01*
X66527346Y-50928355D01*
X66626404Y-50981915D01*
X66733978Y-51015215D01*
X66845972Y-51026986D01*
X66958119Y-51016780D01*
X67066148Y-50984985D01*
X67165944Y-50932813D01*
X67253706Y-50862251D01*
X67326090Y-50775986D01*
X67380341Y-50677304D01*
X67414391Y-50569965D01*
X67426944Y-50458056D01*
X67427000Y-50450000D01*
X67427000Y-49544312D01*
X68122307Y-49544312D01*
X68140964Y-49645964D01*
X68179010Y-49742056D01*
X68234995Y-49828929D01*
X68306788Y-49903273D01*
X68391654Y-49962256D01*
X68486360Y-50003632D01*
X68587299Y-50025825D01*
X68690627Y-50027989D01*
X68792406Y-50010043D01*
X68888762Y-49972669D01*
X68976024Y-49917291D01*
X69002582Y-49892000D01*
X72327628Y-49892000D01*
X76774250Y-54338622D01*
X76773750Y-54340972D01*
X76772307Y-54444312D01*
X76790964Y-54545964D01*
X76829010Y-54642056D01*
X76884995Y-54728929D01*
X76956788Y-54803273D01*
X77041654Y-54862256D01*
X77136360Y-54903632D01*
X77237299Y-54925825D01*
X77340627Y-54927989D01*
X77442406Y-54910043D01*
X77538762Y-54872669D01*
X77626024Y-54817291D01*
X77700867Y-54746019D01*
X77760441Y-54661567D01*
X77802477Y-54567152D01*
X77825374Y-54466370D01*
X77827023Y-54348325D01*
X77806949Y-54246943D01*
X77767565Y-54151391D01*
X77710372Y-54065309D01*
X77637548Y-53991975D01*
X77551867Y-53934182D01*
X77456592Y-53894132D01*
X77433832Y-53889460D01*
X72767186Y-49222814D01*
X72739191Y-49199819D01*
X72711467Y-49176556D01*
X72709660Y-49175563D01*
X72708067Y-49174254D01*
X72676139Y-49157134D01*
X72644425Y-49139699D01*
X72642462Y-49139076D01*
X72640643Y-49138101D01*
X72606004Y-49127511D01*
X72571501Y-49116566D01*
X72569451Y-49116336D01*
X72567482Y-49115734D01*
X72531469Y-49112076D01*
X72495473Y-49108038D01*
X72491447Y-49108010D01*
X72491368Y-49108002D01*
X72491294Y-49108009D01*
X72490000Y-49108000D01*
X69003462Y-49108000D01*
X68987548Y-49091975D01*
X68901867Y-49034182D01*
X68806592Y-48994132D01*
X68705353Y-48973351D01*
X68602006Y-48972629D01*
X68500486Y-48991995D01*
X68404662Y-49030711D01*
X68318182Y-49087302D01*
X68244341Y-49159612D01*
X68185952Y-49244887D01*
X68145238Y-49339880D01*
X68123750Y-49440972D01*
X68122307Y-49544312D01*
X67427000Y-49544312D01*
X67427000Y-49150000D01*
X67421799Y-49096957D01*
X67417153Y-49043860D01*
X67416307Y-49040949D01*
X67416011Y-49037927D01*
X67400598Y-48986877D01*
X67385736Y-48935720D01*
X67384340Y-48933027D01*
X67383463Y-48930122D01*
X67358435Y-48883051D01*
X67333913Y-48835743D01*
X67332021Y-48833373D01*
X67330596Y-48830693D01*
X67296914Y-48789395D01*
X67263657Y-48747735D01*
X67259489Y-48743508D01*
X67259422Y-48743426D01*
X67259347Y-48743364D01*
X67258001Y-48741999D01*
X65990101Y-47474099D01*
X65999474Y-43377000D01*
X76981559Y-43377000D01*
X79063004Y-43581087D01*
M02*
