M48
INCH,TZ
T1C0.010
T2C0.039
%
G90
G05
T1
X21102Y-22650
X22913Y-22480
X23051Y-18799
X23051Y-19587
X23051Y-20394
X24232Y-17953
X24390Y-19646
X24429Y-20020
X24469Y-20728
X24470Y-22008
X24470Y-22325
X24508Y-17953
X24646Y-20492
X24672Y-19377
X24744Y-17953
X24764Y-18642
X24860Y-23091
X24862Y-22618
X24949Y-19548
X25236Y-19390
X25512Y-28701
X25709Y-19429
X26220Y-28661
X26319Y-19350
X26319Y-19587
X26319Y-19862
X26516Y-21280
X26634Y-21437
X27028Y-19488
X27103Y-23274
X27657Y-18622
X27666Y-23535
X27842Y-23712
X27913Y-18622
X27913Y-32126
X28097Y-30471
X28169Y-18622
X28307Y-30276
X28406Y-24193
X28425Y-18622
X28642Y-26831
X28740Y-30374
X28740Y-32283
X28996Y-22283
X29035Y-18622
X29173Y-22106
X29252Y-31988
X29255Y-25692
X29390Y-26240
X30000Y-29469
X30157Y-28563
X30256Y-25846
X30433Y-21417
X30571Y-24449
X32362Y-28878
X32500Y-27677
X32520Y-25000
X32874Y-21378
T2
X20844Y-25433
X20844Y-26299
X20850Y-23226
X20850Y-24093
X20850Y-27638
X20850Y-28504
X21691Y-25433
X21691Y-26299
X21696Y-23226
X21696Y-24093
X21696Y-27638
X21696Y-28504
X22283Y-33819
X23307Y-33819
X24606Y-33819
X25606Y-33819
X26606Y-33819
X27819Y-33819
X28819Y-33819
T0
M30
