G04 #@! TF.FileFunction,Soldermask,Top*
%FSLAX46Y46*%
G04 Gerber Fmt 4.6, Leading zero omitted, Abs format (unit mm)*
G04 Created by KiCad (PCBNEW 4.0.6) date 10/14/18 11:43:10*
%MOMM*%
%LPD*%
G01*
G04 APERTURE LIST*
%ADD10C,0.100000*%
%ADD11C,0.300000*%
%ADD12C,0.250000*%
%ADD13C,3.500000*%
%ADD14R,1.000000X1.250000*%
%ADD15R,1.250000X1.000000*%
%ADD16R,0.800000X0.750000*%
%ADD17R,0.750000X0.800000*%
%ADD18R,1.700000X0.900000*%
%ADD19R,0.500000X0.500000*%
%ADD20R,0.800000X0.800000*%
%ADD21R,1.700000X1.700000*%
%ADD22O,1.700000X1.700000*%
%ADD23R,2.500000X0.900000*%
%ADD24R,1.400000X0.700000*%
%ADD25R,4.300000X4.410000*%
%ADD26R,0.900000X0.500000*%
%ADD27R,0.500000X0.900000*%
%ADD28R,0.700000X0.250000*%
%ADD29R,0.250000X0.700000*%
%ADD30R,1.000000X1.000000*%
%ADD31R,0.304800X0.889000*%
%ADD32R,2.000000X0.600000*%
%ADD33O,0.300000X0.750000*%
%ADD34O,0.750000X0.300000*%
%ADD35R,0.900000X0.900000*%
%ADD36R,1.400000X0.400000*%
%ADD37R,1.000000X1.600000*%
%ADD38R,2.150000X2.200000*%
%ADD39R,0.740000X2.400000*%
%ADD40R,1.500000X3.000000*%
%ADD41C,0.254000*%
G04 APERTURE END LIST*
D10*
D11*
X68107143Y-73592857D02*
X68321429Y-73664286D01*
X68392857Y-73735714D01*
X68464286Y-73878571D01*
X68464286Y-74092857D01*
X68392857Y-74235714D01*
X68321429Y-74307143D01*
X68178571Y-74378571D01*
X67607143Y-74378571D01*
X67607143Y-72878571D01*
X68107143Y-72878571D01*
X68250000Y-72950000D01*
X68321429Y-73021429D01*
X68392857Y-73164286D01*
X68392857Y-73307143D01*
X68321429Y-73450000D01*
X68250000Y-73521429D01*
X68107143Y-73592857D01*
X67607143Y-73592857D01*
X62842857Y-73950000D02*
X63557143Y-73950000D01*
X62700000Y-74378571D02*
X63200000Y-72878571D01*
X63700000Y-74378571D01*
X75307143Y-81892857D02*
X75521429Y-81964286D01*
X75592857Y-82035714D01*
X75664286Y-82178571D01*
X75664286Y-82392857D01*
X75592857Y-82535714D01*
X75521429Y-82607143D01*
X75378571Y-82678571D01*
X74807143Y-82678571D01*
X74807143Y-81178571D01*
X75307143Y-81178571D01*
X75450000Y-81250000D01*
X75521429Y-81321429D01*
X75592857Y-81464286D01*
X75592857Y-81607143D01*
X75521429Y-81750000D01*
X75450000Y-81821429D01*
X75307143Y-81892857D01*
X74807143Y-81892857D01*
X69442857Y-82250000D02*
X70157143Y-82250000D01*
X69300000Y-82678571D02*
X69800000Y-81178571D01*
X70300000Y-82678571D01*
X87107143Y-66750000D02*
X87178571Y-66892857D01*
X87178571Y-67178571D01*
X87107143Y-67321429D01*
X87035714Y-67392857D01*
X86892857Y-67464286D01*
X86464286Y-67464286D01*
X86321429Y-67392857D01*
X86250000Y-67321429D01*
X86178571Y-67178571D01*
X86178571Y-66892857D01*
X86250000Y-66750000D01*
X87178571Y-65464286D02*
X86392857Y-65464286D01*
X86250000Y-65535715D01*
X86178571Y-65678572D01*
X86178571Y-65964286D01*
X86250000Y-66107143D01*
X87107143Y-65464286D02*
X87178571Y-65607143D01*
X87178571Y-65964286D01*
X87107143Y-66107143D01*
X86964286Y-66178572D01*
X86821429Y-66178572D01*
X86678571Y-66107143D01*
X86607143Y-65964286D01*
X86607143Y-65607143D01*
X86535714Y-65464286D01*
X87178571Y-64535714D02*
X87107143Y-64678572D01*
X86964286Y-64750000D01*
X85678571Y-64750000D01*
X87178571Y-63964286D02*
X86178571Y-63964286D01*
X85678571Y-63964286D02*
X85750000Y-64035715D01*
X85821429Y-63964286D01*
X85750000Y-63892858D01*
X85678571Y-63964286D01*
X85821429Y-63964286D01*
X87178571Y-63250000D02*
X85678571Y-63250000D01*
X86250000Y-63250000D02*
X86178571Y-63107143D01*
X86178571Y-62821429D01*
X86250000Y-62678572D01*
X86321429Y-62607143D01*
X86464286Y-62535714D01*
X86892857Y-62535714D01*
X87035714Y-62607143D01*
X87107143Y-62678572D01*
X87178571Y-62821429D01*
X87178571Y-63107143D01*
X87107143Y-63250000D01*
X87278571Y-72650000D02*
X85778571Y-72650000D01*
X87278571Y-71935714D02*
X85778571Y-71935714D01*
X85778571Y-71578571D01*
X85850000Y-71364286D01*
X85992857Y-71221428D01*
X86135714Y-71150000D01*
X86421429Y-71078571D01*
X86635714Y-71078571D01*
X86921429Y-71150000D01*
X87064286Y-71221428D01*
X87207143Y-71364286D01*
X87278571Y-71578571D01*
X87278571Y-71935714D01*
D12*
X62066666Y-79852381D02*
X62066666Y-78852381D01*
X62304761Y-78852381D01*
X62447619Y-78900000D01*
X62542857Y-78995238D01*
X62590476Y-79090476D01*
X62638095Y-79280952D01*
X62638095Y-79423810D01*
X62590476Y-79614286D01*
X62542857Y-79709524D01*
X62447619Y-79804762D01*
X62304761Y-79852381D01*
X62066666Y-79852381D01*
X63066666Y-79852381D02*
X63066666Y-79185714D01*
X63066666Y-78852381D02*
X63019047Y-78900000D01*
X63066666Y-78947619D01*
X63114285Y-78900000D01*
X63066666Y-78852381D01*
X63066666Y-78947619D01*
X63447618Y-79185714D02*
X63971428Y-79185714D01*
X63447618Y-79852381D01*
X63971428Y-79852381D01*
X64257142Y-79185714D02*
X64780952Y-79185714D01*
X64257142Y-79852381D01*
X64780952Y-79852381D01*
X65066666Y-79185714D02*
X65304761Y-79852381D01*
X65542857Y-79185714D02*
X65304761Y-79852381D01*
X65209523Y-80090476D01*
X65161904Y-80138095D01*
X65066666Y-80185714D01*
X66495238Y-79852381D02*
X66161904Y-79376190D01*
X65923809Y-79852381D02*
X65923809Y-78852381D01*
X66304762Y-78852381D01*
X66400000Y-78900000D01*
X66447619Y-78947619D01*
X66495238Y-79042857D01*
X66495238Y-79185714D01*
X66447619Y-79280952D01*
X66400000Y-79328571D01*
X66304762Y-79376190D01*
X65923809Y-79376190D01*
X67066666Y-79852381D02*
X66971428Y-79804762D01*
X66923809Y-79757143D01*
X66876190Y-79661905D01*
X66876190Y-79376190D01*
X66923809Y-79280952D01*
X66971428Y-79233333D01*
X67066666Y-79185714D01*
X67209524Y-79185714D01*
X67304762Y-79233333D01*
X67352381Y-79280952D01*
X67400000Y-79376190D01*
X67400000Y-79661905D01*
X67352381Y-79757143D01*
X67304762Y-79804762D01*
X67209524Y-79852381D01*
X67066666Y-79852381D01*
X67828571Y-79852381D02*
X67828571Y-78852381D01*
X67828571Y-79233333D02*
X67923809Y-79185714D01*
X68114286Y-79185714D01*
X68209524Y-79233333D01*
X68257143Y-79280952D01*
X68304762Y-79376190D01*
X68304762Y-79661905D01*
X68257143Y-79757143D01*
X68209524Y-79804762D01*
X68114286Y-79852381D01*
X67923809Y-79852381D01*
X67828571Y-79804762D01*
X68876190Y-79852381D02*
X68780952Y-79804762D01*
X68733333Y-79757143D01*
X68685714Y-79661905D01*
X68685714Y-79376190D01*
X68733333Y-79280952D01*
X68780952Y-79233333D01*
X68876190Y-79185714D01*
X69019048Y-79185714D01*
X69114286Y-79233333D01*
X69161905Y-79280952D01*
X69209524Y-79376190D01*
X69209524Y-79661905D01*
X69161905Y-79757143D01*
X69114286Y-79804762D01*
X69019048Y-79852381D01*
X68876190Y-79852381D01*
X69495238Y-79185714D02*
X69876190Y-79185714D01*
X69638095Y-78852381D02*
X69638095Y-79709524D01*
X69685714Y-79804762D01*
X69780952Y-79852381D01*
X69876190Y-79852381D01*
D13*
X50000000Y-81000000D03*
X81000000Y-81000000D03*
X81000000Y-50000000D03*
D14*
X71750000Y-46050000D03*
X69750000Y-46050000D03*
D15*
X70150000Y-51300000D03*
X70150000Y-49300000D03*
D16*
X58550000Y-51800000D03*
X57050000Y-51800000D03*
X58550000Y-49750000D03*
X57050000Y-49750000D03*
X58550000Y-47750000D03*
X57050000Y-47750000D03*
D17*
X75000000Y-80200000D03*
X75000000Y-78700000D03*
D16*
X70500000Y-62700000D03*
X72000000Y-62700000D03*
D18*
X84300000Y-66400000D03*
X84300000Y-63500000D03*
D19*
X73950000Y-51900000D03*
X73950000Y-54100000D03*
D20*
X74750000Y-75350000D03*
X73150000Y-75350000D03*
X79000000Y-71150000D03*
X79000000Y-72750000D03*
D19*
X55500000Y-44350000D03*
X53300000Y-44350000D03*
D20*
X79000000Y-64100000D03*
X79000000Y-65700000D03*
D18*
X84300000Y-73350000D03*
X84300000Y-70450000D03*
D21*
X73200000Y-85900000D03*
D22*
X70660000Y-85900000D03*
D21*
X56600000Y-85900000D03*
X59200000Y-85900000D03*
X62500000Y-85900000D03*
X65040000Y-85900000D03*
X67580000Y-85900000D03*
D23*
X73750000Y-50200000D03*
X73750000Y-47300000D03*
D24*
X50100000Y-73240000D03*
X50100000Y-71970000D03*
X50100000Y-70700000D03*
X50100000Y-69430000D03*
D25*
X46290000Y-71335000D03*
D24*
X50100000Y-67570000D03*
X50100000Y-66300000D03*
X50100000Y-65030000D03*
X50100000Y-63760000D03*
D25*
X46290000Y-65665000D03*
D24*
X50000000Y-62000000D03*
X50000000Y-60730000D03*
X50000000Y-59460000D03*
X50000000Y-58190000D03*
D25*
X46190000Y-60095000D03*
D26*
X77800000Y-72700000D03*
X77800000Y-71200000D03*
X77800000Y-65650000D03*
X77800000Y-64150000D03*
X55250000Y-56950000D03*
X55250000Y-55450000D03*
X56600000Y-56950000D03*
X56600000Y-55450000D03*
X52650000Y-56950000D03*
X52650000Y-55450000D03*
X53950000Y-56950000D03*
X53950000Y-55450000D03*
X50000000Y-56950000D03*
X50000000Y-55450000D03*
X51350000Y-56950000D03*
X51350000Y-55450000D03*
D27*
X73200000Y-74050000D03*
X74700000Y-74050000D03*
D28*
X67700000Y-52750000D03*
X67700000Y-52250000D03*
X67700000Y-51750000D03*
X67700000Y-51250000D03*
X67700000Y-50750000D03*
X67700000Y-50250000D03*
X67700000Y-49750000D03*
X67700000Y-49250000D03*
X67700000Y-48750000D03*
X67700000Y-48250000D03*
X67700000Y-47750000D03*
X67700000Y-47250000D03*
D29*
X67050000Y-46600000D03*
X66550000Y-46600000D03*
X66050000Y-46600000D03*
X65550000Y-46600000D03*
X65050000Y-46600000D03*
X64550000Y-46600000D03*
X64050000Y-46600000D03*
X63550000Y-46600000D03*
X63050000Y-46600000D03*
X62550000Y-46600000D03*
X62050000Y-46600000D03*
X61550000Y-46600000D03*
D28*
X60900000Y-47250000D03*
X60900000Y-47750000D03*
X60900000Y-48250000D03*
X60900000Y-48750000D03*
X60900000Y-49250000D03*
X60900000Y-49750000D03*
X60900000Y-50250000D03*
X60900000Y-50750000D03*
X60900000Y-51250000D03*
X60900000Y-51750000D03*
X60900000Y-52250000D03*
X60900000Y-52750000D03*
D29*
X61550000Y-53400000D03*
X62050000Y-53400000D03*
X62550000Y-53400000D03*
X63050000Y-53400000D03*
X63550000Y-53400000D03*
X64050000Y-53400000D03*
X64550000Y-53400000D03*
X65050000Y-53400000D03*
X65550000Y-53400000D03*
X66050000Y-53400000D03*
X66550000Y-53400000D03*
X67050000Y-53400000D03*
D30*
X65000000Y-50800000D03*
D31*
X73050000Y-77900000D03*
X72550000Y-77900000D03*
X72050000Y-77900000D03*
X71550000Y-77900000D03*
X71550000Y-80922600D03*
X72050000Y-80922600D03*
X72550000Y-80922600D03*
X73050000Y-80922600D03*
D32*
X72200000Y-79411300D03*
D33*
X70150000Y-66975000D03*
X70650000Y-66975000D03*
X71150000Y-66975000D03*
X71650000Y-66975000D03*
D34*
X72375000Y-66250000D03*
X72375000Y-65750000D03*
X72375000Y-65250000D03*
X72375000Y-64750000D03*
D33*
X71650000Y-64025000D03*
X71150000Y-64025000D03*
X70650000Y-64025000D03*
X70150000Y-64025000D03*
D34*
X69425000Y-64750000D03*
X69425000Y-65250000D03*
X69425000Y-65750000D03*
X69425000Y-66250000D03*
D35*
X71350000Y-65050000D03*
X70450000Y-65050000D03*
X71350000Y-65950000D03*
X70450000Y-65950000D03*
D36*
X70000000Y-55150000D03*
X70000000Y-53950000D03*
X70000000Y-52750000D03*
D37*
X56700000Y-44400000D03*
X59700000Y-44400000D03*
D24*
X57823935Y-73205000D03*
X57823935Y-71935000D03*
X57823935Y-70665000D03*
X57823935Y-69395000D03*
D38*
X52958935Y-72400000D03*
X52958935Y-70200000D03*
X55108935Y-72400000D03*
X55108935Y-70200000D03*
D24*
X57810000Y-67605000D03*
X57810000Y-66335000D03*
X57810000Y-65065000D03*
X57810000Y-63795000D03*
D38*
X52945000Y-66800000D03*
X52945000Y-64600000D03*
X55095000Y-66800000D03*
X55095000Y-64600000D03*
D24*
X57823935Y-62000000D03*
X57823935Y-60730000D03*
X57823935Y-59460000D03*
X57823935Y-58190000D03*
D38*
X52958935Y-61195000D03*
X52958935Y-58995000D03*
X55108935Y-61195000D03*
X55108935Y-58995000D03*
D39*
X77610000Y-60150000D03*
X77610000Y-56250000D03*
X78880000Y-60150000D03*
X78880000Y-56250000D03*
X80150000Y-60150000D03*
X80150000Y-56250000D03*
X81420000Y-60150000D03*
X81420000Y-56250000D03*
X82690000Y-60150000D03*
X82690000Y-56250000D03*
D40*
X66600000Y-70600000D03*
X64060000Y-70600000D03*
D27*
X84200000Y-54300000D03*
X82700000Y-54300000D03*
D13*
X50000000Y-50000000D03*
D41*
G36*
X48273000Y-74000000D02*
X48286408Y-74056796D01*
X48686408Y-74856796D01*
X48717454Y-74896515D01*
X48761507Y-74921026D01*
X48800000Y-74927000D01*
X55373000Y-74927000D01*
X55373000Y-77300000D01*
X55383006Y-77349410D01*
X55406028Y-77385429D01*
X57373000Y-79549098D01*
X57373000Y-87873000D01*
X53127000Y-87873000D01*
X53127000Y-80000000D01*
X53116994Y-79950590D01*
X53089803Y-79910197D01*
X51089803Y-77910197D01*
X51047789Y-77882334D01*
X51000000Y-77873000D01*
X45391502Y-77873000D01*
X43427000Y-76435559D01*
X43427000Y-58027000D01*
X48273000Y-58027000D01*
X48273000Y-74000000D01*
X48273000Y-74000000D01*
G37*
X48273000Y-74000000D02*
X48286408Y-74056796D01*
X48686408Y-74856796D01*
X48717454Y-74896515D01*
X48761507Y-74921026D01*
X48800000Y-74927000D01*
X55373000Y-74927000D01*
X55373000Y-77300000D01*
X55383006Y-77349410D01*
X55406028Y-77385429D01*
X57373000Y-79549098D01*
X57373000Y-87873000D01*
X53127000Y-87873000D01*
X53127000Y-80000000D01*
X53116994Y-79950590D01*
X53089803Y-79910197D01*
X51089803Y-77910197D01*
X51047789Y-77882334D01*
X51000000Y-77873000D01*
X45391502Y-77873000D01*
X43427000Y-76435559D01*
X43427000Y-58027000D01*
X48273000Y-58027000D01*
X48273000Y-74000000D01*
G36*
X55974435Y-62173000D02*
X49427000Y-62173000D01*
X49427000Y-59227000D01*
X51850000Y-59227000D01*
X51899410Y-59216994D01*
X51941035Y-59188553D01*
X51968315Y-59146159D01*
X51977000Y-59100000D01*
X51977000Y-58027000D01*
X56021548Y-58027000D01*
X55974435Y-62173000D01*
X55974435Y-62173000D01*
G37*
X55974435Y-62173000D02*
X49427000Y-62173000D01*
X49427000Y-59227000D01*
X51850000Y-59227000D01*
X51899410Y-59216994D01*
X51941035Y-59188553D01*
X51968315Y-59146159D01*
X51977000Y-59100000D01*
X51977000Y-58027000D01*
X56021548Y-58027000D01*
X55974435Y-62173000D01*
G36*
X55974435Y-67773000D02*
X49527000Y-67773000D01*
X49527000Y-64827000D01*
X51900000Y-64827000D01*
X51949410Y-64816994D01*
X51991035Y-64788553D01*
X52018315Y-64746159D01*
X52027000Y-64700000D01*
X52027000Y-63627000D01*
X56021548Y-63627000D01*
X55974435Y-67773000D01*
X55974435Y-67773000D01*
G37*
X55974435Y-67773000D02*
X49527000Y-67773000D01*
X49527000Y-64827000D01*
X51900000Y-64827000D01*
X51949410Y-64816994D01*
X51991035Y-64788553D01*
X52018315Y-64746159D01*
X52027000Y-64700000D01*
X52027000Y-63627000D01*
X56021548Y-63627000D01*
X55974435Y-67773000D01*
G36*
X56023000Y-73422055D02*
X49527000Y-73373937D01*
X49527000Y-70477000D01*
X51900000Y-70477000D01*
X51949410Y-70466994D01*
X51991035Y-70438553D01*
X52018315Y-70396159D01*
X52027000Y-70350000D01*
X52027000Y-69227000D01*
X56023000Y-69227000D01*
X56023000Y-73422055D01*
X56023000Y-73422055D01*
G37*
X56023000Y-73422055D02*
X49527000Y-73373937D01*
X49527000Y-70477000D01*
X51900000Y-70477000D01*
X51949410Y-70466994D01*
X51991035Y-70438553D01*
X52018315Y-70396159D01*
X52027000Y-70350000D01*
X52027000Y-69227000D01*
X56023000Y-69227000D01*
X56023000Y-73422055D01*
G36*
X60473000Y-59702606D02*
X60473000Y-87873000D01*
X58427000Y-87873000D01*
X58427000Y-78350000D01*
X58416994Y-78300590D01*
X58394921Y-78265626D01*
X57227000Y-76951715D01*
X57227000Y-70227000D01*
X59000000Y-70227000D01*
X59049410Y-70216994D01*
X59091035Y-70188553D01*
X59118315Y-70146159D01*
X59127000Y-70100000D01*
X59127000Y-68400000D01*
X59116994Y-68350590D01*
X59088553Y-68308965D01*
X59046159Y-68281685D01*
X59000000Y-68273000D01*
X57227000Y-68273000D01*
X57227000Y-64877000D01*
X59000000Y-64877000D01*
X59049410Y-64866994D01*
X59091035Y-64838553D01*
X59118315Y-64796159D01*
X59127000Y-64750000D01*
X59127000Y-62750000D01*
X59116994Y-62700590D01*
X59088553Y-62658965D01*
X59046159Y-62631685D01*
X59000000Y-62623000D01*
X57227000Y-62623000D01*
X57227000Y-59227000D01*
X59997394Y-59227000D01*
X60473000Y-59702606D01*
X60473000Y-59702606D01*
G37*
X60473000Y-59702606D02*
X60473000Y-87873000D01*
X58427000Y-87873000D01*
X58427000Y-78350000D01*
X58416994Y-78300590D01*
X58394921Y-78265626D01*
X57227000Y-76951715D01*
X57227000Y-70227000D01*
X59000000Y-70227000D01*
X59049410Y-70216994D01*
X59091035Y-70188553D01*
X59118315Y-70146159D01*
X59127000Y-70100000D01*
X59127000Y-68400000D01*
X59116994Y-68350590D01*
X59088553Y-68308965D01*
X59046159Y-68281685D01*
X59000000Y-68273000D01*
X57227000Y-68273000D01*
X57227000Y-64877000D01*
X59000000Y-64877000D01*
X59049410Y-64866994D01*
X59091035Y-64838553D01*
X59118315Y-64796159D01*
X59127000Y-64750000D01*
X59127000Y-62750000D01*
X59116994Y-62700590D01*
X59088553Y-62658965D01*
X59046159Y-62631685D01*
X59000000Y-62623000D01*
X57227000Y-62623000D01*
X57227000Y-59227000D01*
X59997394Y-59227000D01*
X60473000Y-59702606D01*
G36*
X63223000Y-87873000D02*
X61777000Y-87873000D01*
X61777000Y-84177000D01*
X63223000Y-84177000D01*
X63223000Y-87873000D01*
X63223000Y-87873000D01*
G37*
X63223000Y-87873000D02*
X61777000Y-87873000D01*
X61777000Y-84177000D01*
X63223000Y-84177000D01*
X63223000Y-87873000D01*
G36*
X65773000Y-87873000D02*
X64277000Y-87873000D01*
X64277000Y-84177000D01*
X65773000Y-84177000D01*
X65773000Y-87873000D01*
X65773000Y-87873000D01*
G37*
X65773000Y-87873000D02*
X64277000Y-87873000D01*
X64277000Y-84177000D01*
X65773000Y-84177000D01*
X65773000Y-87873000D01*
G36*
X68373000Y-87873000D02*
X66827000Y-87873000D01*
X66827000Y-84177000D01*
X68373000Y-84177000D01*
X68373000Y-87873000D01*
X68373000Y-87873000D01*
G37*
X68373000Y-87873000D02*
X66827000Y-87873000D01*
X66827000Y-84177000D01*
X68373000Y-84177000D01*
X68373000Y-87873000D01*
G36*
X71373000Y-87873000D02*
X69927000Y-87873000D01*
X69927000Y-84227000D01*
X71373000Y-84227000D01*
X71373000Y-87873000D01*
X71373000Y-87873000D01*
G37*
X71373000Y-87873000D02*
X69927000Y-87873000D01*
X69927000Y-84227000D01*
X71373000Y-84227000D01*
X71373000Y-87873000D01*
G36*
X73973000Y-87873000D02*
X72477000Y-87873000D01*
X72477000Y-84227000D01*
X73973000Y-84227000D01*
X73973000Y-87873000D01*
X73973000Y-87873000D01*
G37*
X73973000Y-87873000D02*
X72477000Y-87873000D01*
X72477000Y-84227000D01*
X73973000Y-84227000D01*
X73973000Y-87873000D01*
M02*
